SplineFontDB: 2.0
FontName: THKoHo-Bold
FullName: THKoHo-Bold
FamilyName: TH KoHo
Weight: Bold
Copyright: Copyright (c) 2006 by Department of Intellectual Property (DIP), Ministry of Commerce and Software Industry Promotion Agency (Public Organization) (SIPA). All rights reserved.
Version: 1.1
ItalicAngle: 0
UnderlinePosition: -35
UnderlineWidth: 30
Ascent: 800
Descent: 200
Order2: 1
XUID: [1021 375 425136265 3368139]
FSType: 0
OS2Version: 3
OS2_WeightWidthSlopeOnly: 0
OS2_UseTypoMetrics: 1
CreationTime: 1158666840
ModificationTime: 1196262399
PfmFamily: 17
TTFWeight: 700
TTFWidth: 5
LineGap: 60
VLineGap: 0
Panose: 2 0 8 6 0 0 0 2 0 4
OS2TypoAscent: 0
OS2TypoAOffset: 1
OS2TypoDescent: 0
OS2TypoDOffset: 1
OS2TypoLinegap: 0
OS2WinAscent: -43
OS2WinAOffset: 1
OS2WinDescent: -196
OS2WinDOffset: 1
HheadAscent: -43
HheadAOffset: 1
HheadDescent: 196
HheadDOffset: 1
OS2SubXSize: 700
OS2SubYSize: 650
OS2SubXOff: 0
OS2SubYOff: 140
OS2SupXSize: 700
OS2SupYSize: 650
OS2SupXOff: 0
OS2SupYOff: 477
OS2StrikeYSize: 30
OS2StrikeYPos: 250
OS2FamilyClass: 773
OS2Vendor: 'IPTH'
Lookup: 4 0 0 "'frac' Diagonal Fractions in Latin lookup 0"  {"'frac' Diagonal Fractions in Latin lookup 0 subtable"  } ['frac' ('latn' <'dflt' > ) ]
Lookup: 6 0 0 "'liga' Standard Ligatures in Latin lookup 1"  {"'liga' Standard Ligatures in Latin lookup 1 subtable"  } ['liga' ('latn' <'dflt' > ) ]
Lookup: 6 0 0 "'liga' Standard Ligatures in Latin lookup 2"  {"'liga' Standard Ligatures in Latin lookup 2 subtable"  } ['liga' ('latn' <'dflt' > ) ]
Lookup: 6 0 0 "'liga' Standard Ligatures in Latin lookup 3"  {"'liga' Standard Ligatures in Latin lookup 3 subtable"  } ['liga' ('latn' <'dflt' > ) ]
Lookup: 6 0 0 "'liga' Standard Ligatures in Latin lookup 4"  {"'liga' Standard Ligatures in Latin lookup 4 subtable"  } ['liga' ('latn' <'dflt' > ) ]
Lookup: 6 0 0 "'liga' Standard Ligatures in Latin lookup 5"  {"'liga' Standard Ligatures in Latin lookup 5 subtable"  } ['liga' ('latn' <'dflt' > ) ]

StartChar: .notdef
Encoding: 256 -1 0
Width: 733
VWidth: 1467
Flags: W
HStem: 0 51<139 587> 968 52<139 587>
VStem: 92 47<51 968> 587 53<51 968>
Fore
587 51 m 1,0,-1
 587 968 l 1,1,-1
 139 968 l 1,2,-1
 139 51 l 1,3,-1
 587 51 l 1,0,-1
640 0 m 1,4,-1
 92 0 l 1,5,-1
 89 1020 l 1,6,-1
 637 1020 l 1,7,-1
 640 0 l 1,4,-1
EndSplineSet
EndChar
StartChar: numbersign
Encoding: 260 35 4
Width: 746
VWidth: 1467
Flags: W
HStem: -1 21G<167 246.11 411 489.477> 217 46<73 191 271 436 516 657> 425 46<91 214 295 459 541 672>
Fore
536 425 m 1,0,1
 531 384 531 384 526.5 341.5 c 128,-1,2
 522 299 522 299 516 263 c 1,3,-1
 668 263 l 1,4,-1
 657 217 l 1,5,-1
 514 217 l 1,6,-1
 487 -1 l 1,7,-1
 411 -1 l 1,8,-1
 436 217 l 1,9,-1
 267 217 l 1,10,-1
 244 -1 l 1,11,-1
 167 -1 l 1,12,-1
 191 217 l 1,13,-1
 63 217 l 1,14,-1
 73 263 l 1,15,-1
 195 263 l 1,16,17
 198 305 198 305 204 344.5 c 128,-1,18
 210 384 210 384 214 425 c 1,19,-1
 79 425 l 1,20,-1
 91 471 l 1,21,-1
 220 471 l 1,22,-1
 245 682 l 1,23,-1
 318 682 l 1,24,-1
 295 471 l 1,25,-1
 465 471 l 1,26,27
 472 522 472 522 478 576.5 c 128,-1,28
 484 631 484 631 487 682 c 1,29,-1
 565 682 l 1,30,-1
 541 471 l 1,31,-1
 684 471 l 1,32,-1
 672 425 l 1,33,-1
 536 425 l 1,0,1
289 425 m 1,34,35
 286 384 286 384 280 344.5 c 128,-1,36
 274 305 274 305 271 263 c 1,37,-1
 440 263 l 1,38,39
 443 295 443 295 447 324 c 0,40,41
 450 349 450 349 453 377 c 128,-1,42
 456 405 456 405 459 425 c 1,43,-1
 289 425 l 1,34,35
EndSplineSet
EndChar
StartChar: dollar
Encoding: 261 36 5
Width: 698
VWidth: 1467
Flags: W
HStem: -13 69<288.5 311 384 444.608> 646 67<263.781 311 384 451.422>
VStem: 89 81<463.659 571.763> 311 73<-142 -13 56 318 395 646 715 829> 544 82<127.816 241.857>
Fore
626 192 m 0,0,1
 628 142 628 142 607.5 105.5 c 128,-1,2
 587 69 587 69 552.5 44 c 128,-1,3
 518 19 518 19 473 5 c 128,-1,4
 428 -9 428 -9 384 -13 c 1,5,-1
 386 -142 l 1,6,-1
 313 -142 l 1,7,-1
 311 -13 l 1,8,9
 276 -10 276 -10 239 -1.5 c 128,-1,10
 202 7 202 7 169 25.5 c 128,-1,11
 136 44 136 44 110 72 c 128,-1,12
 84 100 84 100 67 141 c 1,13,-1
 147 141 l 1,14,15
 157 117 157 117 176 102.5 c 128,-1,16
 195 88 195 88 218 78.5 c 128,-1,17
 241 69 241 69 265 64 c 128,-1,18
 289 59 289 59 311 56 c 1,19,-1
 311 333 l 1,20,21
 270 340 270 340 231 352 c 128,-1,22
 192 364 192 364 161.5 383.5 c 128,-1,23
 131 403 131 403 111 435 c 128,-1,24
 91 467 91 467 89 515 c 0,25,26
 87 560 87 560 106 594.5 c 128,-1,27
 125 629 125 629 157 654 c 128,-1,28
 189 679 189 679 229.5 694 c 128,-1,29
 270 709 270 709 311 713 c 1,30,-1
 311 829 l 1,31,-1
 383 829 l 1,32,-1
 384 715 l 1,33,34
 418 712 418 712 452.5 701.5 c 128,-1,35
 487 691 487 691 517 673.5 c 128,-1,36
 547 656 547 656 568.5 630 c 128,-1,37
 590 604 590 604 597 569 c 1,38,-1
 521 569 l 1,39,40
 496 610 496 610 459.5 625 c 128,-1,41
 423 640 423 640 384 647 c 1,42,-1
 384 380 l 1,43,44
 428 374 428 374 470 364.5 c 128,-1,45
 512 355 512 355 546.5 335 c 128,-1,46
 581 315 581 315 602.5 281.5 c 128,-1,47
 624 248 624 248 626 192 c 0,0,1
170 515 m 0,48,49
 172 484 172 484 183 463 c 128,-1,50
 194 442 194 442 213 428.5 c 128,-1,51
 232 415 232 415 257 408 c 128,-1,52
 282 401 282 401 311 395 c 1,53,-1
 311 646 l 1,54,55
 288 641 288 641 263 633 c 128,-1,56
 238 625 238 625 217.5 610.5 c 128,-1,57
 197 596 197 596 183.5 572.5 c 128,-1,58
 170 549 170 549 170 515 c 0,48,49
384 54 m 1,59,60
 417 56 417 56 445.5 63 c 128,-1,61
 474 70 474 70 496 85.5 c 128,-1,62
 518 101 518 101 531 127 c 128,-1,63
 544 153 544 153 544 192 c 0,64,65
 544 222 544 222 531.5 242.5 c 128,-1,66
 519 263 519 263 497 277 c 128,-1,67
 475 291 475 291 446 300.5 c 128,-1,68
 417 310 417 310 384 318 c 1,69,-1
 384 54 l 1,59,60
EndSplineSet
EndChar
StartChar: percent
Encoding: 262 37 6
Width: 1018
VWidth: 1467
Flags: W
HStem: 15 61<726.594 792.133> 295 62<184.563 251.596> 361 63<724.532 819.008> 641 63<182.501 248.713>
VStem: 50 81<460.649 541.974> 318 84<449.687 537.039> 582 87<169.329 258.5> 864 85<172.823 271.525>
Fore
747 707 m 1,0,-1
 321 -4 l 1,1,-1
 229 -4 l 1,2,-1
 654 707 l 1,3,-1
 747 707 l 1,0,-1
402 502 m 0,4,5
 402 459 402 459 389 421.5 c 128,-1,6
 376 384 376 384 352.5 355.5 c 128,-1,7
 329 327 329 327 296 311 c 128,-1,8
 263 295 263 295 222 295 c 0,9,10
 186 295 186 295 154.5 312 c 128,-1,11
 123 329 123 329 99.5 357.5 c 128,-1,12
 76 386 76 386 63 423.5 c 128,-1,13
 50 461 50 461 50 502 c 256,14,15
 50 543 50 543 64 580.5 c 128,-1,16
 78 618 78 618 101.5 645 c 128,-1,17
 125 672 125 672 156.5 688 c 128,-1,18
 188 704 188 704 223 704 c 0,19,20
 260 706 260 706 292 689.5 c 128,-1,21
 324 673 324 673 348.5 645.5 c 128,-1,22
 373 618 373 618 387.5 580.5 c 128,-1,23
 402 543 402 543 402 502 c 0,4,5
223 357 m 0,24,25
 245 355 245 355 263.5 366 c 128,-1,26
 282 377 282 377 294.5 397 c 128,-1,27
 307 417 307 417 313.5 444.5 c 128,-1,28
 320 472 320 472 318 503 c 0,29,30
 317 533 317 533 309.5 558.5 c 128,-1,31
 302 584 302 584 289.5 603 c 128,-1,32
 277 622 277 622 259.5 632.5 c 128,-1,33
 242 643 242 643 220 641 c 0,34,35
 198 638 198 638 182 625.5 c 128,-1,36
 166 613 166 613 154 594 c 128,-1,37
 142 575 142 575 136.5 551.5 c 128,-1,38
 131 528 131 528 131 505 c 0,39,40
 128 475 128 475 133.5 449 c 128,-1,41
 139 423 139 423 152.5 403 c 128,-1,42
 166 383 166 383 184 370.5 c 128,-1,43
 202 358 202 358 223 357 c 0,24,25
766 424 m 0,44,45
 801 425 801 425 835 410.5 c 128,-1,46
 869 396 869 396 895 369 c 128,-1,47
 921 342 921 342 936 304.5 c 128,-1,48
 951 267 951 267 949 222 c 0,49,50
 948 179 948 179 935.5 141.5 c 128,-1,51
 923 104 923 104 899.5 75.5 c 128,-1,52
 876 47 876 47 842 30 c 128,-1,53
 808 13 808 13 764 15 c 0,54,55
 725 16 725 16 691 33 c 128,-1,56
 657 50 657 50 633 78 c 128,-1,57
 609 106 609 106 595.5 143 c 128,-1,58
 582 180 582 180 582 222 c 256,59,60
 582 263 582 263 597.5 301 c 128,-1,61
 613 339 613 339 639 367.5 c 128,-1,62
 665 396 665 396 698 411.5 c 128,-1,63
 731 427 731 427 766 424 c 0,44,45
766 76 m 0,64,65
 788 75 788 75 806.5 86 c 128,-1,66
 825 97 825 97 838 116.5 c 128,-1,67
 851 136 851 136 858.5 164 c 128,-1,68
 866 192 866 192 864 223 c 0,69,70
 861 282 861 282 835.5 320.5 c 128,-1,71
 810 359 810 359 763 361 c 0,72,73
 741 361 741 361 724 348.5 c 128,-1,74
 707 336 707 336 694.5 316 c 128,-1,75
 682 296 682 296 675.5 272 c 128,-1,76
 669 248 669 248 669 224 c 0,77,78
 666 195 666 195 672.5 168.5 c 128,-1,79
 679 142 679 142 693 122.5 c 128,-1,80
 707 103 707 103 726 90.5 c 128,-1,81
 745 78 745 78 766 76 c 0,64,65
EndSplineSet
EndChar
StartChar: ampersand
Encoding: 263 38 7
Width: 698
VWidth: 1467
Flags: W
HStem: -6 69<208.784 368.667>
VStem: 16 90<136.148 251.526> 116 78<490.001 632.852> 408 76<546.939 581 581 642.605> 571 83<303.163 383>
Fore
577 -1 m 1,0,-1
 493 78 l 1,1,2
 431 26 431 26 379 10 c 128,-1,3
 327 -6 327 -6 266 -6 c 0,4,5
 222 -6 222 -6 178 9.5 c 128,-1,6
 134 25 134 25 98 51.5 c 128,-1,7
 62 78 62 78 39 114.5 c 128,-1,8
 16 151 16 151 16 194 c 0,9,10
 16 233 16 233 30.5 266 c 128,-1,11
 45 299 45 299 68.5 325.5 c 128,-1,12
 92 352 92 352 121.5 372.5 c 128,-1,13
 151 393 151 393 182 408 c 1,14,15
 151 449 151 449 133.5 485.5 c 128,-1,16
 116 522 116 522 116 558 c 0,17,18
 116 624 116 624 162 675 c 128,-1,19
 208 726 208 726 305 731 c 0,20,21
 339 732 339 732 370.5 722 c 128,-1,22
 402 712 402 712 427 692.5 c 128,-1,23
 452 673 452 673 467.5 646 c 128,-1,24
 483 619 483 619 484 587 c 0,25,26
 486 549 486 549 470.5 519.5 c 128,-1,27
 455 490 455 490 428.5 467.5 c 128,-1,28
 402 445 402 445 365.5 426.5 c 128,-1,29
 329 408 329 408 286 393 c 1,30,31
 352 321 352 321 400.5 267 c 128,-1,32
 449 213 449 213 487 179 c 1,33,34
 500 197 500 197 511 212 c 128,-1,35
 522 227 522 227 533 249 c 128,-1,36
 544 271 544 271 553 303 c 128,-1,37
 562 335 562 335 571 383 c 1,38,-1
 654 383 l 1,39,40
 637 288 637 288 607.5 227.5 c 128,-1,41
 578 167 578 167 544 129 c 1,42,43
 559 113 559 113 579 95.5 c 128,-1,44
 599 78 599 78 619.5 60.5 c 128,-1,45
 640 43 640 43 659 27.5 c 128,-1,46
 678 12 678 12 691 0 c 1,47,-1
 577 -1 l 1,0,-1
408 581 m 0,48,49
 409 624 409 624 379 649.5 c 128,-1,50
 349 675 349 675 302 672 c 0,51,52
 248 669 248 669 221 639.5 c 128,-1,53
 194 610 194 610 194 563 c 0,54,55
 194 519 194 519 216 489 c 128,-1,56
 238 459 238 459 254 442 c 1,57,58
 286 458 286 458 314.5 472 c 128,-1,59
 343 486 343 486 363.5 501 c 128,-1,60
 384 516 384 516 396 535.5 c 128,-1,61
 408 555 408 555 408 581 c 0,48,49
268 63 m 0,62,63
 330 63 330 63 366 81.5 c 128,-1,64
 402 100 402 100 434 126 c 1,65,66
 411 150 411 150 356.5 210.5 c 128,-1,67
 302 271 302 271 224 359 c 1,68,69
 207 351 207 351 186.5 337.5 c 128,-1,70
 166 324 166 324 147.5 306 c 128,-1,71
 129 288 129 288 117.5 263 c 128,-1,72
 106 238 106 238 106 202 c 128,-1,73
 106 166 106 166 122.5 139.5 c 128,-1,74
 139 113 139 113 163.5 96 c 128,-1,75
 188 79 188 79 216.5 71 c 128,-1,76
 245 63 245 63 268 63 c 0,62,63
EndSplineSet
EndChar
StartChar: quotesingle
Encoding: 264 39 8
Width: 201
VWidth: 1467
Flags: W
HStem: 497 207<69 122>
VStem: 53 85<658.719 704 704 704 704 704>
Fore
122 497 m 1,0,-1
 69 497 l 1,1,-1
 53 704 l 1,2,-1
 138 704 l 1,3,-1
 122 497 l 1,0,-1
EndSplineSet
EndChar
StartChar: parenleft
Encoding: 265 40 9
Width: 324
VWidth: 1467
Flags: W
VStem: 82 76<238.967 501.031>
Fore
245 -85 m 1,0,1
 214 -51 214 -51 185 -8.5 c 128,-1,2
 156 34 156 34 133 87.5 c 128,-1,3
 110 141 110 141 96 204.5 c 128,-1,4
 82 268 82 268 82 343 c 0,5,6
 82 423 82 423 96 486.5 c 128,-1,7
 110 550 110 550 133 603 c 128,-1,8
 156 656 156 656 184.5 699 c 128,-1,9
 213 742 213 742 244 781 c 1,10,-1
 323 781 l 1,11,12
 246 694 246 694 202 590 c 128,-1,13
 158 486 158 486 158 343 c 0,14,15
 158 273 158 273 170 213 c 128,-1,16
 182 153 182 153 204 101.5 c 128,-1,17
 226 50 226 50 256 3.5 c 128,-1,18
 286 -43 286 -43 321 -85 c 1,19,-1
 245 -85 l 1,0,1
EndSplineSet
EndChar
StartChar: parenright
Encoding: 266 41 10
Width: 325
VWidth: 1467
Flags: W
VStem: 161 77<243.529 457.682>
Fore
75 781 m 1,0,1
 106 747 106 747 135 704.5 c 128,-1,2
 164 662 164 662 187 608.5 c 128,-1,3
 210 555 210 555 224 491 c 128,-1,4
 238 427 238 427 238 352 c 0,5,6
 238 273 238 273 224 208.5 c 128,-1,7
 210 144 210 144 187 91 c 128,-1,8
 164 38 164 38 135.5 -5 c 128,-1,9
 107 -48 107 -48 76 -85 c 1,10,-1
 1 -85 l 1,11,12
 38 -41 38 -41 67.5 6 c 128,-1,13
 97 53 97 53 117.5 105.5 c 128,-1,14
 138 158 138 158 149.5 219 c 128,-1,15
 161 280 161 280 161 352 c 0,16,17
 161 423 161 423 149.5 483 c 128,-1,18
 138 543 138 543 116 594.5 c 128,-1,19
 94 646 94 646 64.5 692 c 128,-1,20
 35 738 35 738 0 781 c 1,21,-1
 75 781 l 1,0,1
EndSplineSet
EndChar
StartChar: asterisk
Encoding: 267 42 11
Width: 466
VWidth: 1467
Flags: W
HStem: 361 381<176 280 280 280> 573 20<34 176 273 424>
VStem: 34 390<524 578 509 593 509 509>
Fore
424 593 m 1,0,-1
 424 511 l 1,1,-1
 276 524 l 1,2,-1
 364 411 l 1,3,-1
 295 370 l 1,4,-1
 230 494 l 1,5,-1
 176 361 l 1,6,-1
 103 395 l 1,7,-1
 185 524 l 1,8,-1
 34 509 l 1,9,-1
 34 591 l 1,10,-1
 176 580 l 1,11,-1
 85 697 l 1,12,-1
 156 738 l 1,13,-1
 224 603 l 1,14,-1
 280 742 l 1,15,-1
 352 707 l 1,16,-1
 273 578 l 1,17,-1
 424 593 l 1,0,-1
EndSplineSet
EndChar
StartChar: plus
Encoding: 268 43 12
Width: 641
VWidth: 1467
Flags: W
HStem: 0 21G<275.748 364> 238 80<40 273 361 597>
VStem: 273 88<0 238 318 562>
Fore
361 238 m 1,0,-1
 364 0 l 1,1,-1
 276 0 l 1,2,-1
 273 238 l 1,3,-1
 40 238 l 1,4,-1
 40 318 l 1,5,-1
 273 318 l 1,6,-1
 273 562 l 1,7,-1
 361 562 l 1,8,-1
 361 318 l 1,9,-1
 597 318 l 1,10,-1
 597 238 l 1,11,-1
 361 238 l 1,0,-1
EndSplineSet
EndChar
StartChar: comma
Encoding: 269 44 13
Width: 206
VWidth: 1467
Flags: W
HStem: -109 213.5<67 106.5 106.5 106.5> -20 20<76.25 94.75 112 116.5>
VStem: 42 130<12.3252 62.8461>
Fore
142 98 m 0,0,1
 156 91 156 91 164 76.5 c 128,-1,2
 172 62 172 62 172 45 c 0,3,4
 172 16 172 16 162.5 -8 c 128,-1,5
 153 -32 153 -32 137.5 -51 c 128,-1,6
 122 -70 122 -70 103.5 -85 c 128,-1,7
 85 -100 85 -100 67 -109 c 1,8,-1
 25 -109 l 1,9,10
 57 -89 57 -89 85 -61.5 c 128,-1,11
 113 -34 113 -34 120 0 c 1,12,13
 104 -12 104 -12 85.5 -12 c 128,-1,14
 67 -12 67 -12 54 -3 c 1,15,16
 41 10 41 10 42 34.5 c 128,-1,17
 43 59 43 59 63 82 c 0,18,19
 82 103 82 103 106.5 104.5 c 128,-1,20
 131 106 131 106 142 98 c 0,0,1
EndSplineSet
EndChar
StartChar: hyphen
Encoding: 270 45 14
Width: 371
VWidth: 1467
Flags: W
HStem: 235 83<53 310 53 310 53 53>
Fore
53 235 m 1,0,-1
 53 318 l 1,1,-1
 310 318 l 1,2,-1
 310 235 l 1,3,-1
 53 235 l 1,0,-1
EndSplineSet
EndChar
StartChar: period
Encoding: 271 46 15
Width: 206
VWidth: 1467
Flags: W
HStem: -16 132<78.7319 137.53>
VStem: 47 106<22.1895 99.4036>
Fore
101 116 m 1,0,1
 123 119 123 119 138 100 c 128,-1,2
 153 81 153 81 153 51 c 0,3,4
 153 23 153 23 138 3.5 c 128,-1,5
 123 -16 123 -16 101 -16 c 0,6,7
 76 -16 76 -16 60.5 3.5 c 128,-1,8
 45 23 45 23 47 51 c 0,9,10
 47 81 47 81 63 100 c 128,-1,11
 79 119 79 119 101 116 c 1,0,1
EndSplineSet
EndChar
StartChar: slash
Encoding: 272 47 16
Width: 448
VWidth: 1467
Flags: W
VStem: -10 456<-43 723 -43 -43>
Fore
73 -43 m 1,0,-1
 -10 -43 l 1,1,-1
 358 723 l 1,2,-1
 446 723 l 1,3,-1
 73 -43 l 1,0,-1
EndSplineSet
EndChar
StartChar: zero
Encoding: 273 48 17
Width: 642
VWidth: 1467
Flags: W
HStem: 3 59<288.715 390.407> 640 58<248.84 351.612>
VStem: 73 84<185.875 239 243 253.515 253.515 265.16 265.16 282 282 296 296 352.512 352.512 400.664> 476 79<189.286 258 281 321.021 321.021 338.421 338.421 425.278>
Fore
313 698 m 2,0,-1
 324 698 l 2,1,2
 395 698 395 698 439.5 669.5 c 128,-1,3
 484 641 484 641 510.5 595.5 c 128,-1,4
 537 550 537 550 548 495 c 128,-1,5
 559 440 559 440 562 386 c 0,6,7
 563 324 563 324 555 258 c 128,-1,8
 547 192 547 192 518 131 c 0,9,10
 493 78 493 78 448 42 c 128,-1,11
 403 6 403 6 330 3 c 2,12,-1
 320 3 l 2,13,14
 270 3 270 3 232 17 c 128,-1,15
 194 31 194 31 166.5 55 c 128,-1,16
 139 79 139 79 121 112 c 128,-1,17
 103 145 103 145 92 182 c 0,18,19
 84 210 84 210 79 239 c 0,20,21
 76 254 76 254 75.5 268 c 128,-1,22
 75 282 75 282 73 296 c 2,23,-1
 73 298 l 1,24,-1
 73 330 l 2,25,26
 73 386 73 386 82 448.5 c 128,-1,27
 91 511 91 511 116 566 c 0,28,29
 144 622 144 622 191 658.5 c 128,-1,30
 238 695 238 695 313 698 c 2,0,-1
323 640 m 2,31,-1
 321 640 l 2,32,33
 266 640 266 640 231.5 604 c 128,-1,34
 197 568 197 568 180 516 c 128,-1,35
 163 464 163 464 159.5 404.5 c 128,-1,36
 156 345 156 345 157 301 c 0,37,38
 158 273 158 273 162 243 c 128,-1,39
 166 213 166 213 174.5 185 c 128,-1,40
 183 157 183 157 197 132 c 128,-1,41
 211 107 211 107 233 91 c 2,42,43
 249 75 249 75 272.5 69 c 128,-1,44
 296 63 296 63 320 62 c 2,45,-1
 321 62 l 1,46,-1
 326 62 l 2,47,48
 374 65 374 65 405.5 95.5 c 128,-1,49
 437 126 437 126 453 170 c 0,50,51
 472 223 472 223 476 281 c 128,-1,52
 480 339 480 339 480 389 c 0,53,54
 478 415 478 415 474 446 c 128,-1,55
 470 477 470 477 461 506.5 c 128,-1,56
 452 536 452 536 438 563 c 128,-1,57
 424 590 424 590 403 607 c 0,58,59
 395 615 395 615 387 621.5 c 128,-1,60
 379 628 379 628 368 631 c 0,61,62
 348 640 348 640 323 640 c 2,31,-1
EndSplineSet
EndChar
StartChar: one
Encoding: 274 49 18
Width: 642
VWidth: 1467
Flags: W
HStem: -4 21G<289 367>
VStem: 289 78<-4 602>
Fore
289 6 m 1,0,-1
 289 602 l 1,1,-1
 241 574 l 1,2,-1
 224 565 l 1,3,-1
 226 582 l 1,4,-1
 227 643 l 1,5,-1
 227 649 l 1,6,-1
 232 650 l 1,7,-1
 304 693 l 1,8,-1
 310 694 l 1,9,-1
 355 694 l 1,10,-1
 365 694 l 1,11,-1
 365 684 l 1,12,-1
 367 6 l 1,13,-1
 367 -4 l 1,14,-1
 357 -4 l 1,15,-1
 299 -4 l 1,16,-1
 289 -4 l 1,17,-1
 289 6 l 1,0,-1
EndSplineSet
EndChar
StartChar: two
Encoding: 275 50 19
Width: 642
VWidth: 1467
Flags: W
HStem: 3 69<217 354.242 354.242 418.454 418.454 517.727> 631.5 65.5<220.859 378.399>
VStem: 89 476<3 543 6.68735 70.2999> 489 76<513.345 579.387>
Fore
527 3 m 1,0,-1
 100 3 l 1,1,-1
 89 3 l 1,2,-1
 89 15 l 1,3,-1
 91 48 l 1,4,-1
 94 54 l 1,5,6
 141 101 141 101 187 148 c 128,-1,7
 233 195 233 195 277 245 c 0,8,9
 321 292 321 292 367.5 342.5 c 128,-1,10
 414 393 414 393 452 446 c 0,11,12
 459 459 459 459 465.5 470 c 128,-1,13
 472 481 472 481 477 492 c 0,14,15
 480 497 480 497 481 499 c 1,16,17
 489 525 489 525 489 541 c 256,18,19
 489 558 489 558 484.5 569 c 128,-1,20
 480 580 480 580 471 590 c 1,21,22
 462 597 462 597 448 603.5 c 128,-1,23
 434 610 434 610 417 618 c 0,24,25
 359 638 359 638 296 631.5 c 128,-1,26
 233 625 233 625 175 610 c 0,27,28
 158 607 158 607 139 602 c 1,29,-1
 126 600 l 1,30,-1
 128 613 l 1,31,-1
 132 673 l 1,32,-1
 141 675 l 2,33,34
 176 682 176 682 219.5 688 c 128,-1,35
 263 694 263 694 305 697 c 0,36,37
 351 698 351 698 394 692.5 c 128,-1,38
 437 687 437 687 472 671 c 0,39,40
 494 660 494 660 513.5 645.5 c 128,-1,41
 533 631 533 631 544 612 c 2,42,43
 547 609 547 609 548.5 604.5 c 128,-1,44
 550 600 550 600 553 597 c 1,45,46
 565 574 565 574 565 543 c 0,47,48
 565 522 565 522 558 496 c 0,49,50
 553 484 553 484 546.5 471.5 c 128,-1,51
 540 459 540 459 533 445 c 0,52,53
 500 392 500 392 462.5 342 c 128,-1,54
 425 292 425 292 383 245 c 0,55,56
 345 201 345 201 301.5 157 c 128,-1,57
 258 113 258 113 217 72 c 1,58,-1
 257 72 l 2,59,60
 292 72 292 72 323 72 c 128,-1,61
 354 72 354 72 385.5 72.5 c 128,-1,62
 417 73 417 73 451.5 74 c 128,-1,63
 486 75 486 75 525 78 c 2,64,-1
 536 79 l 1,65,-1
 536 67 l 1,66,-1
 537 13 l 1,67,-1
 537 3 l 1,68,-1
 527 3 l 1,0,-1
EndSplineSet
EndChar
StartChar: three
Encoding: 276 51 20
Width: 642
VWidth: 1467
Flags: W
HStem: 323 69.5<222 242.788 242.788 267.242 267.242 331.6> 635 61.5<207.25 230 240 248.571 248.571 275.154 275.154 292.727 283.94 366.813>
VStem: 79 484<101 192 31 39.5707> 474 78<485.316 583.116>
Fore
220 333 m 1,0,-1
 222 386 l 1,1,-1
 222 395 l 1,2,-1
 230 393 l 1,3,4
 244 393 244 393 255.5 392.5 c 128,-1,5
 267 392 267 392 279 392 c 0,6,7
 313 392 313 392 344.5 397.5 c 128,-1,8
 376 403 376 403 401 417 c 0,9,10
 425 431 425 431 447.5 454 c 128,-1,11
 470 477 470 477 472 511 c 2,12,13
 474 515 474 515 474 528 c 1,14,15
 468 562 468 562 453.5 582.5 c 128,-1,16
 439 603 439 603 418.5 615.5 c 128,-1,17
 398 628 398 628 370.5 633 c 128,-1,18
 343 638 343 638 314 641 c 0,19,20
 292 641 292 641 271.5 639.5 c 128,-1,21
 251 638 251 638 230 635 c 256,22,23
 210 632 210 632 191 629 c 128,-1,24
 172 626 172 626 153 619 c 1,25,-1
 138 616 l 1,26,-1
 139 629 l 1,27,-1
 144 675 l 1,28,-1
 145 682 l 1,29,-1
 153 684 l 2,30,31
 200 693 200 693 240 696.5 c 128,-1,32
 280 700 280 700 310 700 c 0,33,34
 349 700 349 700 391.5 692.5 c 128,-1,35
 434 685 434 685 468 668 c 0,36,37
 505 649 505 649 528.5 618.5 c 128,-1,38
 552 588 552 588 552 543 c 0,39,40
 552 462 552 462 506 417 c 0,41,42
 471 377 471 377 412 362 c 1,43,44
 440 355 440 355 460 347.5 c 128,-1,45
 480 340 480 340 493 333 c 128,-1,46
 506 326 506 326 515 318.5 c 128,-1,47
 524 311 524 311 531 305 c 1,48,49
 572 254 572 254 563 192 c 0,50,51
 553 119 553 119 512.5 78 c 128,-1,52
 472 37 472 37 418.5 18.5 c 128,-1,53
 365 0 365 0 306.5 -1.5 c 128,-1,54
 248 -3 248 -3 202 1 c 0,55,56
 189 4 189 4 175 6.5 c 128,-1,57
 161 9 161 9 147 12 c 0,58,59
 134 15 134 15 120 18 c 128,-1,60
 106 21 106 21 92 23 c 1,61,-1
 85 26 l 1,62,-1
 85 32 l 1,63,-1
 81 87 l 1,64,-1
 79 101 l 1,65,-1
 94 95 l 2,66,67
 157 70 157 70 231 60.5 c 128,-1,68
 305 51 305 51 368 73 c 0,69,70
 409 89 409 89 433.5 107.5 c 128,-1,71
 458 126 458 126 469.5 146 c 128,-1,72
 481 166 481 166 483.5 185 c 128,-1,73
 486 204 486 204 484 220 c 0,74,75
 477 254 477 254 453 277 c 0,76,77
 411 311 411 311 359.5 318.5 c 128,-1,78
 308 326 308 326 261 323 c 2,79,-1
 229 323 l 1,80,-1
 219 323 l 1,81,-1
 220 333 l 1,0,-1
EndSplineSet
EndChar
StartChar: four
Encoding: 277 52 21
Width: 642
VWidth: 1467
Flags: W
HStem: -6 21G<399 489> 239 66<169 401 478 582> 681 20G<374 480>
VStem: 399 88<-6 95.3889> 401 77<147.611 239 305 463 463 621>
Fore
399 3 m 1,0,-1
 402 239 l 1,1,-1
 87 239 l 1,2,-1
 76 239 l 1,3,-1
 76 249 l 1,4,-1
 76 305 l 1,5,-1
 78 311 l 1,6,-1
 374 697 l 1,7,-1
 377 701 l 1,8,-1
 383 701 l 1,9,-1
 470 701 l 1,10,-1
 480 701 l 1,11,-1
 480 691 l 1,12,-1
 478 305 l 1,13,-1
 582 305 l 1,14,-1
 582 295 l 1,15,-1
 582 249 l 1,16,-1
 582 239 l 1,17,-1
 478 239 l 1,18,-1
 487 4 l 1,19,-1
 489 -6 l 1,20,-1
 478 -6 l 1,21,-1
 408 -6 l 1,22,-1
 399 -6 l 1,23,-1
 399 3 l 1,0,-1
169 305 m 1,24,-1
 401 305 l 1,25,-1
 395 621 l 1,26,-1
 169 305 l 1,24,-1
EndSplineSet
EndChar
StartChar: five
Encoding: 278 53 22
Width: 642
VWidth: 1467
Flags: W
HStem: -18 55.5<113.313 135 161 169.392 169.392 174 174 214.546 214.546 234.758 234.758 329.328> 352.5 65<189.188 194 194 239.484 239.484 307.758 307.758 323.63> 628 69<213 415.727 415.727 500.967 500.967 549>
VStem: 78 483.5<59 245 -95.5 -50.0156> 475 86.5<199.997 205 205 225.665 225.665 285.498>
Fore
106 352 m 1,0,-1
 144 687 l 1,1,-1
 144 697 l 1,2,-1
 151 697 l 1,3,-1
 540 697 l 1,4,-1
 549 697 l 1,5,-1
 549 687 l 1,6,-1
 549 637 l 1,7,-1
 549 628 l 1,8,-1
 540 628 l 2,9,10
 496 631 496 631 455.5 633 c 128,-1,11
 415 635 415 635 376 635 c 2,12,-1
 213 635 l 1,13,-1
 183 409 l 1,14,-1
 188 409 l 2,15,16
 226 414 226 414 267 417.5 c 128,-1,17
 308 421 308 421 348.5 419 c 128,-1,18
 389 417 389 417 426.5 406 c 128,-1,19
 464 395 464 395 494 370 c 0,20,21
 536 339 536 339 549 298 c 0,22,23
 560 273 560 273 561.5 245 c 128,-1,24
 563 217 563 217 556 191 c 256,25,26
 549 164 549 164 537 138 c 128,-1,27
 525 112 525 112 508 89 c 0,28,29
 487 63 487 63 459 41 c 128,-1,30
 431 19 431 19 399 7 c 0,31,32
 348 -13 348 -13 291.5 -18 c 128,-1,33
 235 -23 235 -23 178 -18 c 0,34,35
 166 -16 166 -16 161 -15.5 c 0,36,-1
 135 -12 l 0,37,38
 123 -9 123 -9 113 -7.5 c 128,-1,39
 103 -6 103 -6 92 -3 c 1,40,-1
 91 -3 l 1,41,-1
 87 -1 l 1,42,-1
 85 6 l 1,43,-1
 79 44 l 1,44,-1
 78 59 l 1,45,-1
 89 54 l 2,46,47
 132 44 132 44 174 37.5 c 128,-1,48
 216 31 216 31 255 34 c 0,49,50
 293 37 293 37 330.5 48 c 128,-1,51
 368 59 368 59 405 85 c 0,52,53
 430 104 430 104 449 132 c 0,54,55
 472 167 472 167 475 205 c 0,56,57
 477 223 477 223 472.5 246.5 c 128,-1,58
 468 270 468 270 456 286 c 0,59,60
 449 295 449 295 441.5 303 c 128,-1,61
 434 311 434 311 424 318 c 0,62,63
 393 339 393 339 355 346.5 c 128,-1,64
 317 354 317 354 276 355 c 256,65,66
 235 357 235 357 194 352.5 c 128,-1,67
 153 348 153 348 117 342 c 2,68,-1
 104 340 l 1,69,-1
 106 352 l 1,0,-1
EndSplineSet
EndChar
StartChar: six
Encoding: 279 54 23
Width: 642
VWidth: 1467
Flags: W
HStem: 333.5 63.5<194.909 251.5 264 287.788 287.788 291.178 289.483 404.855> 677 20G<329 408>
VStem: 492 79<131.005 235.348>
Fore
179 500 m 0,0,1
 213 552 213 552 252 599.5 c 128,-1,2
 291 647 291 647 329 694 c 2,3,-1
 332 697 l 1,4,-1
 337 697 l 1,5,-1
 389 697 l 1,6,-1
 408 697 l 1,7,-1
 398 682 l 1,8,9
 390 675 390 675 384.5 665.5 c 128,-1,10
 379 656 379 656 371 644 c 0,11,12
 355 621 355 621 332.5 591.5 c 128,-1,13
 310 562 310 562 285 529 c 128,-1,14
 260 496 260 496 235.5 459.5 c 128,-1,15
 211 423 211 423 194 386 c 1,16,17
 223 393 223 393 264 397 c 128,-1,18
 305 401 305 401 335 401 c 0,19,20
 377 401 377 401 414.5 392.5 c 128,-1,21
 452 384 452 384 483 365 c 0,22,23
 515 346 515 346 536.5 318.5 c 128,-1,24
 558 291 558 291 566 249 c 0,25,26
 571 229 571 229 571 204 c 0,27,28
 571 156 571 156 551 114.5 c 128,-1,29
 531 73 531 73 497 43 c 0,30,31
 430 -21 430 -21 318 -21 c 0,32,33
 270 -21 270 -21 230 -12 c 0,34,35
 188 -1 188 -1 157 18.5 c 128,-1,36
 126 38 126 38 106 65 c 0,37,38
 84 94 84 94 74.5 127.5 c 128,-1,39
 65 161 65 161 65 200 c 256,40,41
 65 238 65 238 73 282 c 0,42,43
 88 337 88 337 115 392 c 128,-1,44
 142 447 142 447 179 500 c 0,0,1
169 305 m 1,45,46
 153 266 153 266 148 229 c 0,47,48
 136 161 136 161 173.5 106 c 128,-1,49
 211 51 211 51 304 38 c 0,50,51
 343 34 343 34 377 45.5 c 128,-1,52
 411 57 411 57 436 80 c 128,-1,53
 461 103 461 103 475.5 136 c 128,-1,54
 490 169 490 169 492 208 c 0,55,56
 492 220 492 220 490.5 229 c 128,-1,57
 489 238 489 238 486 248 c 0,58,59
 478 271 478 271 461.5 287.5 c 128,-1,60
 445 304 445 304 424 315 c 0,61,62
 384 337 384 337 324 337 c 0,63,64
 289 337 289 337 251.5 333.5 c 128,-1,65
 214 330 214 330 183 314 c 2,66,-1
 169 305 l 1,45,46
EndSplineSet
EndChar
StartChar: seven
Encoding: 280 55 24
Width: 642
VWidth: 1467
Flags: W
HStem: -12 21G<112 208> 625 72<94 181.881 181.881 456 94 541 94 94>
Fore
235 216 m 0,0,1
 288 313 288 313 343.5 414 c 128,-1,2
 399 515 399 515 456 628 c 1,3,-1
 411 628 l 2,4,5
 335 628 335 628 260.5 628 c 128,-1,6
 186 628 186 628 103 625 c 2,7,-1
 94 625 l 1,8,-1
 94 634 l 1,9,-1
 94 687 l 1,10,-1
 94 697 l 1,11,-1
 103 697 l 1,12,-1
 531 697 l 1,13,-1
 541 697 l 1,14,-1
 541 687 l 1,15,-1
 540 629 l 1,16,-1
 538 626 l 2,17,18
 505 559 505 559 470 493 c 0,19,-1
 399 361 l 0,20,21
 351 270 351 270 303 180.5 c 128,-1,22
 255 91 255 91 208 -6 c 2,23,-1
 205 -12 l 1,24,-1
 200 -12 l 1,25,-1
 128 -12 l 1,26,-1
 112 -12 l 1,27,-1
 119 3 l 2,28,29
 148 57 148 57 176.5 109 c 128,-1,30
 205 161 205 161 235 216 c 0,0,1
EndSplineSet
EndChar
StartChar: eight
Encoding: 281 56 25
Width: 642
VWidth: 1467
Flags: W
HStem: -16 61<229.584 403.833> 326 86<241.773 396.149> 653 62<236.336 402.348>
VStem: 84 77<108.539 256.656> 107 72<472.038 600.389> 458 75<471.653 600.876> 477 81<112.934 257.971>
Fore
458 536 m 0,0,1
 458 587 458 587 418.5 620 c 128,-1,2
 379 653 379 653 320 653 c 0,3,4
 260 653 260 653 219.5 620 c 128,-1,5
 179 587 179 587 179 536 c 0,6,7
 179 486 179 486 221 449 c 128,-1,8
 263 412 263 412 320 412 c 0,9,10
 376 412 376 412 417 449 c 128,-1,11
 458 486 458 486 458 536 c 0,0,1
477 183 m 0,12,13
 477 245 477 245 431.5 285.5 c 128,-1,14
 386 326 386 326 320 326 c 256,15,16
 254 326 254 326 207.5 285 c 128,-1,17
 161 244 161 244 161 183 c 128,-1,18
 161 122 161 122 205 83.5 c 128,-1,19
 249 45 249 45 320 45 c 0,20,21
 384 45 384 45 430.5 85 c 128,-1,22
 477 125 477 125 477 183 c 0,12,13
533 541 m 0,23,24
 533 439 533 439 415 374 c 1,25,26
 486 352 486 352 522 302 c 128,-1,27
 558 252 558 252 558 191 c 0,28,29
 558 98 558 98 489.5 41 c 128,-1,30
 421 -16 421 -16 323 -16 c 0,31,32
 214 -16 214 -16 149 40.5 c 128,-1,33
 84 97 84 97 84 191 c 0,34,35
 84 249 84 249 120 300.5 c 128,-1,36
 156 352 156 352 222 376 c 1,37,38
 106 439 106 439 107 533 c 0,39,40
 107 618 107 618 160.5 666.5 c 128,-1,41
 214 715 214 715 320 715 c 0,42,43
 420 715 420 715 476.5 668 c 128,-1,44
 533 621 533 621 533 541 c 0,23,24
EndSplineSet
EndChar
StartChar: nine
Encoding: 282 57 26
Width: 642
VWidth: 1467
Flags: W
HStem: 291.5 62.5<218.254 363.543> 634 67<267.013 360.191>
VStem: 75 476<483 513.5 483 483>
Fore
436 195 m 0,0,1
 402 144 402 144 372 96 c 128,-1,2
 342 48 342 48 304 4 c 1,3,-1
 301 3 l 1,4,-1
 296 3 l 1,5,-1
 246 3 l 1,6,-1
 227 3 l 1,7,-1
 238 18 l 2,8,9
 244 26 244 26 249.5 34.5 c 128,-1,10
 255 43 255 43 263 54 c 0,11,12
 295 100 295 100 339 166 c 128,-1,13
 383 232 383 232 421 307 c 1,14,15
 367 291 367 291 306 291.5 c 128,-1,16
 245 292 245 292 194.5 312.5 c 128,-1,17
 144 333 144 333 110 375 c 128,-1,18
 76 417 76 417 75 483 c 2,19,-1
 75 484 l 2,20,21
 76 531 76 531 94.5 570.5 c 128,-1,22
 113 610 113 610 147 640 c 256,23,24
 180 669 180 669 225 686 c 128,-1,25
 270 703 270 703 321 701 c 2,26,-1
 323 701 l 2,27,28
 370 701 370 701 408 693 c 0,29,30
 449 682 449 682 473 663 c 128,-1,31
 497 644 497 644 518 616 c 0,32,33
 534 594 534 594 542 567.5 c 128,-1,34
 550 541 550 541 551 513.5 c 128,-1,35
 552 486 552 486 549 458.5 c 128,-1,36
 546 431 546 431 540 406 c 0,37,38
 524 351 524 351 497 298 c 128,-1,39
 470 245 470 245 436 195 c 0,0,1
452 383 m 1,40,41
 459 403 459 403 465 417 c 128,-1,42
 471 431 471 431 474 449 c 0,43,44
 483 484 483 484 475 518.5 c 128,-1,45
 467 553 467 553 444 580 c 128,-1,46
 421 607 421 607 385 622.5 c 128,-1,47
 349 638 349 638 302 634 c 0,48,49
 244 634 244 634 205 599 c 0,50,51
 172 565 172 565 158.5 524.5 c 128,-1,52
 145 484 145 484 157 442 c 0,53,54
 163 420 163 420 180.5 403.5 c 128,-1,55
 198 387 198 387 217 376 c 0,56,57
 257 354 257 354 314 354 c 0,58,59
 348 354 348 354 385.5 361 c 128,-1,60
 423 368 423 368 452 383 c 1,40,41
EndSplineSet
EndChar
StartChar: colon
Encoding: 283 58 27
Width: 201
VWidth: 1467
Flags: W
HStem: -16 132<78.7319 137.53> 352 132<78.7319 137.53>
VStem: 47 106<22.1895 99.4036 391.031 467.404>
Fore
101 116 m 1,0,1
 123 119 123 119 138 100 c 128,-1,2
 153 81 153 81 153 51 c 0,3,4
 153 23 153 23 138 3.5 c 128,-1,5
 123 -16 123 -16 101 -16 c 0,6,7
 76 -16 76 -16 60.5 3.5 c 128,-1,8
 45 23 45 23 47 51 c 0,9,10
 47 81 47 81 63 100 c 128,-1,11
 79 119 79 119 101 116 c 1,0,1
101 484 m 1,12,13
 123 487 123 487 138 468 c 128,-1,14
 153 449 153 449 153 420 c 0,15,16
 153 392 153 392 138 372 c 128,-1,17
 123 352 123 352 101 352 c 0,18,19
 76 352 76 352 60.5 372 c 128,-1,20
 45 392 45 392 47 420 c 0,21,22
 47 449 47 449 63 468 c 128,-1,23
 79 487 79 487 101 484 c 1,12,13
EndSplineSet
EndChar
StartChar: semicolon
Encoding: 284 59 28
Width: 215
VWidth: 1467
Flags: W
HStem: -20 20<76.25 94.75 112 116.5> 352 132<78.7319 137.53>
VStem: 42 130<12.3252 62.8461> 47 106<391.031 467.404>
Fore
142 98 m 0,0,1
 156 91 156 91 164 76.5 c 128,-1,2
 172 62 172 62 172 45 c 0,3,4
 172 16 172 16 162.5 -8 c 128,-1,5
 153 -32 153 -32 137.5 -51 c 128,-1,6
 122 -70 122 -70 103.5 -85 c 128,-1,7
 85 -100 85 -100 67 -109 c 1,8,-1
 25 -109 l 1,9,10
 57 -89 57 -89 85 -61.5 c 128,-1,11
 113 -34 113 -34 120 0 c 1,12,13
 104 -12 104 -12 85.5 -12 c 128,-1,14
 67 -12 67 -12 54 -3 c 1,15,16
 41 10 41 10 42 34.5 c 128,-1,17
 43 59 43 59 63 82 c 0,18,19
 82 103 82 103 106.5 104.5 c 128,-1,20
 131 106 131 106 142 98 c 0,0,1
101 484 m 1,21,22
 123 487 123 487 138 468 c 128,-1,23
 153 449 153 449 153 420 c 0,24,25
 153 392 153 392 138 372 c 128,-1,26
 123 352 123 352 101 352 c 0,27,28
 76 352 76 352 60.5 372 c 128,-1,29
 45 392 45 392 47 420 c 0,30,31
 47 449 47 449 63 468 c 128,-1,32
 79 487 79 487 101 484 c 1,21,22
EndSplineSet
EndChar
StartChar: less
Encoding: 285 60 29
Width: 632
VWidth: 1467
Flags: W
HStem: -1 21G<531 550> 571 20G<529 550>
VStem: 75 475<-1 292 292 292>
Fore
550 -1 m 1,0,1
 512 50 512 50 452 97 c 128,-1,2
 392 144 392 144 325 182 c 128,-1,3
 258 220 258 220 191.5 248.5 c 128,-1,4
 125 277 125 277 75 292 c 1,5,6
 125 310 125 310 190 338.5 c 128,-1,7
 255 367 255 367 321 405 c 128,-1,8
 387 443 387 443 447.5 490 c 128,-1,9
 508 537 508 537 550 591 c 1,10,-1
 550 484 l 1,11,12
 518 450 518 450 478.5 421.5 c 128,-1,13
 439 393 439 393 395 369 c 128,-1,14
 351 345 351 345 304.5 326 c 128,-1,15
 258 307 258 307 214 292 c 1,16,17
 257 279 257 279 302.5 262 c 128,-1,18
 348 245 348 245 392 222.5 c 128,-1,19
 436 200 436 200 477 170.5 c 128,-1,20
 518 141 518 141 550 104 c 1,21,-1
 550 -1 l 1,0,1
EndSplineSet
EndChar
StartChar: equal
Encoding: 286 61 30
Width: 657
VWidth: 1467
Flags: W
HStem: 147 83<53 599> 343 84<53 599>
Fore
53 147 m 1,0,-1
 53 230 l 1,1,-1
 599 230 l 1,2,-1
 599 147 l 1,3,-1
 53 147 l 1,0,-1
53 343 m 1,4,-1
 53 427 l 1,5,-1
 599 427 l 1,6,-1
 599 343 l 1,7,-1
 53 343 l 1,4,-1
EndSplineSet
EndChar
StartChar: greater
Encoding: 287 62 31
Width: 629
VWidth: 1467
Flags: W
HStem: -1 21G<70 91> 571 20G<70 88.5>
VStem: 70 476<298 591 591 591>
Fore
70 591 m 1,0,1
 107 540 107 540 168 493 c 128,-1,2
 229 446 229 446 295.5 408 c 128,-1,3
 362 370 362 370 429 341.5 c 128,-1,4
 496 313 496 313 546 298 c 1,5,6
 496 280 496 280 430.5 251.5 c 128,-1,7
 365 223 365 223 299 185 c 128,-1,8
 233 147 233 147 172.5 100 c 128,-1,9
 112 53 112 53 70 -1 c 1,10,-1
 70 106 l 1,11,12
 103 139 103 139 142.5 168 c 128,-1,13
 182 197 182 197 226 221 c 128,-1,14
 270 245 270 245 316 264 c 128,-1,15
 362 283 362 283 406 298 c 1,16,17
 364 311 364 311 318.5 328 c 128,-1,18
 273 345 273 345 229 367.5 c 128,-1,19
 185 390 185 390 144 418.5 c 128,-1,20
 103 447 103 447 70 486 c 1,21,-1
 70 591 l 1,0,1
EndSplineSet
EndChar
StartChar: question
Encoding: 288 63 32
Width: 550
VWidth: 1467
Flags: W
HStem: -16 132<243.582 302.045>
VStem: 49 62<491.515 522.969 522.969 527.5 527.5 567.593> 211 106<4.11145 99.4036> 219 89<182 197.162 197.162 197.485 197.485 238.232>
Fore
261 533 m 1,0,1
 254 509 254 509 240.5 488 c 128,-1,2
 227 467 227 467 209 450.5 c 128,-1,3
 191 434 191 434 169 426 c 128,-1,4
 147 418 147 418 123 423 c 0,5,6
 103 425 103 425 87.5 441.5 c 128,-1,7
 72 458 72 458 61.5 480 c 128,-1,8
 51 502 51 502 49 527.5 c 128,-1,9
 47 553 47 553 53 578 c 0,10,11
 56 596 56 596 59.5 607 c 128,-1,12
 63 618 63 618 70 629 c 0,13,14
 95 668 95 668 126 689 c 128,-1,15
 157 710 157 710 211 723 c 0,16,17
 288 737 288 737 351.5 712.5 c 128,-1,18
 415 688 415 688 452 642 c 128,-1,19
 489 596 489 596 490.5 535.5 c 128,-1,20
 492 475 492 475 446 417 c 0,21,22
 433 399 433 399 415.5 385 c 128,-1,23
 398 371 398 371 380 356.5 c 128,-1,24
 362 342 362 342 347 326 c 128,-1,25
 332 310 332 310 324 289 c 0,26,27
 315 266 315 266 312.5 246.5 c 128,-1,28
 310 227 310 227 308 213 c 0,29,30
 307 197 307 197 308 182 c 1,31,-1
 222 180 l 1,32,33
 219 195 219 195 219 213 c 0,34,35
 219 229 219 229 222.5 251 c 128,-1,36
 226 273 226 273 238 302 c 0,37,38
 246 324 246 324 265.5 346 c 128,-1,39
 285 368 285 368 305 386 c 0,40,41
 329 406 329 406 357 424 c 1,42,43
 401 465 401 465 409 510.5 c 128,-1,44
 417 556 417 556 400.5 593.5 c 128,-1,45
 384 631 384 631 349 655 c 128,-1,46
 314 679 314 679 271 679 c 0,47,48
 258 679 258 679 236 677 c 128,-1,49
 214 675 214 675 198 666 c 1,50,51
 214 659 214 659 228 650 c 128,-1,52
 242 641 242 641 251 625.5 c 128,-1,53
 260 610 260 610 263 587.5 c 128,-1,54
 266 565 266 565 261 533 c 1,0,1
114 568 m 0,55,56
 112 555 112 555 110.5 538.5 c 128,-1,57
 109 522 109 522 111 507.5 c 128,-1,58
 113 493 113 493 118 482 c 128,-1,59
 123 471 123 471 134 470 c 1,60,61
 142 467 142 467 152.5 473.5 c 128,-1,62
 163 480 163 480 172.5 490 c 128,-1,63
 182 500 182 500 189.5 513.5 c 128,-1,64
 197 527 197 527 200 540 c 0,65,66
 207 566 207 566 203.5 594 c 128,-1,67
 200 622 200 622 179 629 c 0,68,69
 158 635 158 635 140 614 c 128,-1,70
 122 593 122 593 114 568 c 0,55,56
266 116 m 1,71,72
 288 119 288 119 302.5 100 c 128,-1,73
 317 81 317 81 317 51 c 0,74,75
 317 23 317 23 302.5 3.5 c 128,-1,76
 288 -16 288 -16 266 -16 c 0,77,78
 241 -16 241 -16 225.5 3.5 c 128,-1,79
 210 23 210 23 211 51 c 0,80,81
 211 81 211 81 227.5 100 c 128,-1,82
 244 119 244 119 266 116 c 1,71,72
EndSplineSet
EndChar
StartChar: at
Encoding: 289 64 33
Width: 934
VWidth: 1467
Flags: W
HStem: -163 59<326.72 508.551> 519 68<351.64 605.701>
VStem: 57 78<75.171 319.577> 264 66<49.1064 139.044> 602 63<110 232 290.041 332.106> 791 76<204.957 354.145>
Fore
490 587 m 0,0,1
 574 587 574 587 643.5 562.5 c 128,-1,2
 713 538 713 538 763 494 c 128,-1,3
 813 450 813 450 841 388 c 128,-1,4
 869 326 869 326 867 251 c 0,5,6
 867 198 867 198 850 155 c 128,-1,7
 833 112 833 112 807 78 c 128,-1,8
 781 44 781 44 748.5 20.5 c 128,-1,9
 716 -3 716 -3 685 -15 c 0,10,11
 656 -22 656 -22 641 -14.5 c 128,-1,12
 626 -7 626 -7 624 -4 c 1,13,14
 616 7 616 7 610 20.5 c 128,-1,15
 604 34 604 34 602 45 c 1,16,17
 590 37 590 37 568.5 22 c 128,-1,18
 547 7 547 7 518.5 -4.5 c 128,-1,19
 490 -16 490 -16 456.5 -22.5 c 128,-1,20
 423 -29 423 -29 386 -23 c 0,21,22
 335 -16 335 -16 300.5 16 c 128,-1,23
 266 48 266 48 264 100 c 0,24,25
 264 144 264 144 289.5 169 c 128,-1,26
 315 194 315 194 352 207 c 128,-1,27
 389 220 389 220 430.5 226.5 c 128,-1,28
 472 233 472 233 506 241 c 0,29,30
 516 244 516 244 532.5 249 c 128,-1,31
 549 254 549 254 563.5 261 c 128,-1,32
 578 268 578 268 588.5 279.5 c 128,-1,33
 599 291 599 291 599 305 c 0,34,35
 599 324 599 324 593.5 338 c 128,-1,36
 588 352 588 352 568 367 c 0,37,38
 546 384 546 384 510 388.5 c 128,-1,39
 474 393 474 393 433.5 388.5 c 128,-1,40
 393 384 393 384 353.5 372.5 c 128,-1,41
 314 361 314 361 286 346 c 1,42,-1
 293 401 l 1,43,44
 324 417 324 417 366 425.5 c 128,-1,45
 408 434 408 434 450.5 435 c 128,-1,46
 493 436 493 436 533.5 430 c 128,-1,47
 574 424 574 424 603 409 c 0,48,49
 631 398 631 398 648 368.5 c 128,-1,50
 665 339 665 339 665 304 c 2,51,-1
 665 75 l 2,52,53
 665 66 665 66 665 58 c 128,-1,54
 665 50 665 50 668 43 c 1,55,56
 691 53 691 53 713 72 c 128,-1,57
 735 91 735 91 752 117.5 c 128,-1,58
 769 144 769 144 780 176 c 128,-1,59
 791 208 791 208 791 245 c 0,60,61
 791 307 791 307 768 358 c 128,-1,62
 745 409 745 409 705 446 c 128,-1,63
 665 483 665 483 607.5 502 c 128,-1,64
 550 521 550 521 483 519 c 0,65,66
 405 516 405 516 341 494 c 128,-1,67
 277 472 277 472 231 430.5 c 128,-1,68
 185 389 185 389 160 328 c 128,-1,69
 135 267 135 267 135 186 c 0,70,71
 135 120 135 120 160.5 66.5 c 128,-1,72
 186 13 186 13 228 -25 c 128,-1,73
 270 -63 270 -63 325 -83.5 c 128,-1,74
 380 -104 380 -104 440 -104 c 0,75,76
 492 -104 492 -104 532 -97.5 c 128,-1,77
 572 -91 572 -91 609 -73 c 1,78,-1
 654 -106 l 1,79,80
 607 -132 607 -132 548.5 -146.5 c 128,-1,81
 490 -161 490 -161 437 -163 c 0,82,83
 362 -164 362 -164 293 -139 c 128,-1,84
 224 -114 224 -114 171.5 -68 c 128,-1,85
 119 -22 119 -22 88 42.5 c 128,-1,86
 57 107 57 107 57 182 c 0,87,88
 57 260 57 260 80 332.5 c 128,-1,89
 103 405 103 405 154 460.5 c 128,-1,90
 205 516 205 516 287.5 550.5 c 128,-1,91
 370 585 370 585 490 587 c 0,0,1
602 232 m 1,92,93
 558 197 558 197 500 188 c 0,94,95
 474 183 474 183 443 178 c 128,-1,96
 412 173 412 173 386.5 163.5 c 128,-1,97
 361 154 361 154 345 139.5 c 128,-1,98
 329 125 329 125 330 100 c 0,99,100
 332 66 332 66 354.5 46 c 128,-1,101
 377 26 377 26 409 25 c 0,102,103
 456 22 456 22 491.5 35 c 128,-1,104
 527 48 527 48 552 65 c 0,105,106
 580 84 580 84 602 110 c 1,107,-1
 602 232 l 1,92,93
EndSplineSet
EndChar
StartChar: A
Encoding: 290 65 34
Width: 698
VWidth: 1467
Flags: W
HStem: 1 21G<53 134.094 556.717 637> 213 58<200 492>
Fore
506 213 m 1,0,-1
 183 213 l 1,1,-1
 129 1 l 1,2,-1
 53 1 l 1,3,-1
 186 534 l 2,4,5
 198 569 198 569 210 601.5 c 128,-1,6
 222 634 222 634 238.5 658 c 128,-1,7
 255 682 255 682 281.5 696 c 128,-1,8
 308 710 308 710 348 709 c 0,9,10
 381 707 381 707 405.5 694 c 128,-1,11
 430 681 430 681 447 660.5 c 128,-1,12
 464 640 464 640 474 614 c 128,-1,13
 484 588 484 588 492 563 c 0,14,15
 527 421 527 421 563 281.5 c 128,-1,16
 599 142 599 142 637 1 c 1,17,-1
 562 1 l 1,18,-1
 506 213 l 1,0,-1
492 271 m 1,19,-1
 430 509 l 2,20,21
 420 537 420 537 412.5 559 c 128,-1,22
 405 581 405 581 396 600 c 0,23,24
 386 625 386 625 370.5 637 c 128,-1,25
 355 649 355 649 339.5 648 c 128,-1,26
 324 647 324 647 310 635.5 c 128,-1,27
 296 624 296 624 289 603 c 0,28,29
 283 588 283 588 279.5 577 c 128,-1,30
 276 566 276 566 273 556 c 128,-1,31
 270 546 270 546 268 535 c 128,-1,32
 266 524 266 524 261 509 c 2,33,-1
 200 271 l 1,34,-1
 492 271 l 1,19,-1
EndSplineSet
EndChar
StartChar: B
Encoding: 291 66 35
Width: 736
VWidth: 1467
Flags: W
HStem: 0 60<178 433> 389 67<308 435.024> 641 56<176 465.264>
VStem: 104 74<60 271.454 271.454 422.515 422.515 641> 494 69<511.456 613.411> 566 72<136.942 287.997>
Fore
436 418 m 1,0,1
 462 412 462 412 497.5 399 c 128,-1,2
 533 386 533 386 564.5 361.5 c 128,-1,3
 596 337 596 337 618 300 c 128,-1,4
 640 263 640 263 638 210 c 0,5,6
 638 148 638 148 617.5 109 c 128,-1,7
 597 70 597 70 566.5 46.5 c 128,-1,8
 536 23 536 23 499 13 c 128,-1,9
 462 3 462 3 430 1 c 1,10,-1
 433 0 l 1,11,-1
 104 0 l 1,12,-1
 101 697 l 1,13,-1
 421 697 l 2,14,15
 447 694 447 694 473 686.5 c 128,-1,16
 499 679 499 679 518.5 663 c 128,-1,17
 538 647 538 647 550.5 621.5 c 128,-1,18
 563 596 563 596 563 558 c 0,19,20
 563 533 563 533 554.5 512.5 c 128,-1,21
 546 492 546 492 531 471 c 0,22,23
 518 452 518 452 489.5 438.5 c 128,-1,24
 461 425 461 425 436 418 c 1,0,1
408 60 m 2,25,26
 436 60 436 60 464 66 c 128,-1,27
 492 72 492 72 514.5 89 c 128,-1,28
 537 106 537 106 551.5 136 c 128,-1,29
 566 166 566 166 566 214 c 0,30,31
 566 257 566 257 547 289 c 128,-1,32
 528 321 528 321 500 342.5 c 128,-1,33
 472 364 472 364 440 375 c 128,-1,34
 408 386 408 386 380 389 c 2,35,-1
 308 389 l 1,36,-1
 308 455 l 1,37,-1
 390 456 l 2,38,39
 430 459 430 459 462 485.5 c 128,-1,40
 494 512 494 512 494 555 c 0,41,42
 494 596 494 596 468.5 617 c 128,-1,43
 443 638 443 638 405 641 c 2,44,-1
 176 641 l 1,45,46
 176 574 176 574 176 498.5 c 128,-1,47
 176 423 176 423 177 346.5 c 128,-1,48
 178 270 178 270 178 196.5 c 128,-1,49
 178 123 178 123 178 60 c 1,50,-1
 408 60 l 2,25,26
EndSplineSet
EndChar
StartChar: C
Encoding: 292 67 36
Width: 654
VWidth: 1467
Flags: W
VStem: 103 72<173.365 540.676>
Fore
103 509 m 2,0,1
 103 538 103 538 114 564 c 128,-1,2
 125 590 125 590 141 610.5 c 128,-1,3
 157 631 157 631 175.5 647 c 128,-1,4
 194 663 194 663 210 672 c 0,5,6
 246 694 246 694 302 702 c 128,-1,7
 358 710 358 710 414.5 702.5 c 128,-1,8
 471 695 471 695 520 671 c 128,-1,9
 569 647 569 647 591 603 c 1,10,-1
 552 560 l 1,11,12
 536 597 536 597 497 617.5 c 128,-1,13
 458 638 458 638 411.5 644 c 128,-1,14
 365 650 365 650 319 642.5 c 128,-1,15
 273 635 273 635 245 618 c 0,16,17
 216 600 216 600 195.5 572 c 128,-1,18
 175 544 175 544 175 512 c 2,19,-1
 175 189 l 2,20,21
 175 157 175 157 195.5 129 c 128,-1,22
 216 101 216 101 245 84 c 0,23,24
 273 66 273 66 319 58.5 c 128,-1,25
 365 51 365 51 411.5 57 c 128,-1,26
 458 63 458 63 497 83 c 128,-1,27
 536 103 536 103 552 141 c 1,28,-1
 591 98 l 1,29,30
 569 54 569 54 520 30 c 128,-1,31
 471 6 471 6 414.5 -1.5 c 128,-1,32
 358 -9 358 -9 302 -1 c 128,-1,33
 246 7 246 7 210 29 c 0,34,35
 194 38 194 38 175.5 55 c 128,-1,36
 157 72 157 72 141 94.5 c 128,-1,37
 125 117 125 117 114 146.5 c 128,-1,38
 103 176 103 176 103 211 c 2,39,-1
 103 509 l 2,0,1
EndSplineSet
EndChar
StartChar: D
Encoding: 293 68 37
Width: 682
VWidth: 1467
Flags: W
HStem: 4 57<170.698 200.788 200.788 221.546 221.546 364.655> 647 57<170 205.676>
VStem: 101 69<60 647> 530.5 73<289.5 321.5 321.5 393.974>
Fore
474 628 m 1,0,1
 516 596 516 596 544 557 c 128,-1,2
 572 518 572 518 586 474 c 128,-1,3
 600 430 600 430 603.5 383 c 128,-1,4
 607 336 607 336 602 288 c 0,5,6
 596 238 596 238 580.5 186.5 c 128,-1,7
 565 135 565 135 529 94 c 128,-1,8
 493 53 493 53 433 27 c 128,-1,9
 373 1 373 1 277 4 c 2,10,11
 261.5 4 l 2,12,13
 246 4 246 4 224 4 c 128,-1,14
 202 4 202 4 177.5 3.5 c 128,-1,15
 153 3 153 3 133 3 c 128,-1,16
 113 3 113 3 103.5 3 c 128,-1,17
 94 3 94 3 101 3 c 1,18,-1
 101 704 l 1,19,-1
 145 704 l 2,20,21
 238 700 238 700 296 690.5 c 128,-1,22
 354 681 354 681 389 670 c 128,-1,23
 424 659 424 659 442.5 647 c 128,-1,24
 461 635 461 635 474 628 c 1,0,1
492 169 m 0,25,26
 528 251 528 251 530.5 321.5 c 128,-1,27
 533 392 533 392 515 447 c 128,-1,28
 497 502 497 502 467 539.5 c 128,-1,29
 437 577 437 577 411 593 c 0,30,31
 377 612 377 612 339 623 c 128,-1,32
 301 634 301 634 267 639 c 128,-1,33
 233 644 233 644 206.5 645.5 c 128,-1,34
 180 647 180 647 170 647 c 1,35,-1
 170 60 l 1,36,37
 223 59 223 59 273 61 c 128,-1,38
 323 63 323 63 366 75 c 128,-1,39
 409 87 409 87 441.5 109 c 128,-1,40
 474 131 474 131 492 169 c 0,25,26
EndSplineSet
EndChar
StartChar: E
Encoding: 294 69 38
Width: 664
VWidth: 1467
Flags: W
HStem: -4 57<336.552 594> 315 59<173 483> 640 57<330.974 415.419 415.419 464.181 464.181 526.304 526.304 576.096 576.096 594>
VStem: 101 72<142.711 315 374 549.259>
Fore
396 640 m 1,0,1
 355 640 355 640 314.5 634.5 c 128,-1,2
 274 629 274 629 242.5 609.5 c 128,-1,3
 211 590 211 590 191.5 550.5 c 128,-1,4
 172 511 172 511 173 443 c 2,5,-1
 173 374 l 1,6,-1
 483 374 l 1,7,-1
 483 315 l 1,8,-1
 173 315 l 1,9,-1
 173 249 l 2,10,11
 172 180 172 180 191.5 141.5 c 128,-1,12
 211 103 211 103 242.5 83 c 128,-1,13
 274 63 274 63 314.5 58 c 128,-1,14
 355 53 355 53 396 53 c 2,15,-1
 594 53 l 1,16,-1
 594 -4 l 1,17,-1
 398 -4 l 2,18,19
 345 -3 345 -3 291.5 5 c 128,-1,20
 238 13 238 13 196 40 c 128,-1,21
 154 67 154 67 127.5 117 c 128,-1,22
 101 167 101 167 101 252 c 2,23,-1
 101 440 l 2,24,25
 101 525 101 525 127.5 575 c 128,-1,26
 154 625 154 625 196 652 c 128,-1,27
 238 679 238 679 291.5 687 c 128,-1,28
 345 695 345 695 398 697 c 0,29,30
 405 697 405 697 433.5 697.5 c 128,-1,31
 462 698 462 698 495 698 c 128,-1,32
 528 698 528 698 557.5 697.5 c 128,-1,33
 587 697 587 697 594 697 c 1,34,-1
 594 640 l 1,35,-1
 396 640 l 1,0,1
EndSplineSet
EndChar
StartChar: F
Encoding: 295 70 39
Width: 660
VWidth: 1467
Flags: W
HStem: 1 21G<103 175> 317 59<175 484> 641 57<337.552 416.662 416.662 465.938 465.938 528.062 528.062 577.823 577.823 596>
VStem: 103 72<1 317 376 550.259>
Fore
398 641 m 1,0,1
 357 641 357 641 316.5 636 c 128,-1,2
 276 631 276 631 244.5 611 c 128,-1,3
 213 591 213 591 193 551.5 c 128,-1,4
 173 512 173 512 175 445 c 2,5,-1
 175 376 l 1,6,-1
 484 376 l 1,7,-1
 484 317 l 1,8,-1
 175 317 l 1,9,-1
 175 1 l 1,10,-1
 103 1 l 1,11,-1
 103 442 l 2,12,13
 103 527 103 527 129.5 576.5 c 128,-1,14
 156 626 156 626 197.5 653.5 c 128,-1,15
 239 681 239 681 292.5 689 c 128,-1,16
 346 697 346 697 399 698 c 0,17,18
 406 698 406 698 435 699 c 128,-1,19
 464 700 464 700 497 700 c 128,-1,20
 530 700 530 700 559 699 c 128,-1,21
 588 698 588 698 596 698 c 1,22,-1
 596 641 l 1,23,-1
 398 641 l 1,0,1
EndSplineSet
EndChar
StartChar: G
Encoding: 296 71 40
Width: 698
VWidth: 1467
Flags: W
HStem: -6 66<338.614 438.083>
VStem: 101 82<146.648 564.969> 552 73<125.841 270.154>
Fore
380 60 m 0,0,1
 470 59 470 59 509.5 97.5 c 128,-1,2
 549 136 549 136 552 216 c 0,3,4
 553 258 553 258 540 281 c 128,-1,5
 527 304 527 304 505 314 c 128,-1,6
 483 324 483 324 455 326.5 c 128,-1,7
 427 329 427 329 399 332 c 1,8,-1
 399 392 l 1,9,10
 447 398 447 398 489 392 c 128,-1,11
 531 386 531 386 562.5 364 c 128,-1,12
 594 342 594 342 611 304 c 128,-1,13
 628 266 628 266 625 210 c 0,14,15
 622 147 622 147 602 105 c 128,-1,16
 582 63 582 63 550 38 c 128,-1,17
 518 13 518 13 474.5 3.5 c 128,-1,18
 431 -6 431 -6 381 -6 c 0,19,20
 329 -4 329 -4 278 4.5 c 128,-1,21
 227 13 227 13 187.5 41 c 128,-1,22
 148 69 148 69 124.5 119.5 c 128,-1,23
 101 170 101 170 101 254 c 2,24,-1
 101 524 l 2,25,26
 101 552 101 552 112 575.5 c 128,-1,27
 123 599 123 599 139.5 616.5 c 128,-1,28
 156 634 156 634 175 648 c 128,-1,29
 194 662 194 662 210 671 c 0,30,31
 246 693 246 693 302.5 701 c 128,-1,32
 359 709 359 709 416.5 701.5 c 128,-1,33
 474 694 474 694 523 670 c 128,-1,34
 572 646 572 646 594 602 c 1,35,-1
 555 546 l 1,36,37
 538 582 538 582 501 605 c 128,-1,38
 464 628 464 628 419 636 c 128,-1,39
 374 644 374 644 329.5 639 c 128,-1,40
 285 634 285 634 255 616 c 256,41,42
 226 599 226 599 204.5 566 c 128,-1,43
 183 533 183 533 183 500 c 2,44,-1
 183 248 l 2,45,46
 186 182 186 182 204 145.5 c 128,-1,47
 222 109 222 109 249 90.5 c 128,-1,48
 276 72 276 72 310.5 67 c 128,-1,49
 345 62 345 62 380 60 c 0,0,1
EndSplineSet
EndChar
StartChar: H
Encoding: 297 72 41
Width: 735
VWidth: 1467
Flags: W
HStem: 1 21G<103.971 178 559 632> 317 59<178 559> 678 20G<103 178 559 632>
VStem: 104 74<1 317 376 698> 559 73<1 317 376 698>
Fore
559 698 m 1,0,-1
 632 698 l 1,1,-1
 632 1 l 1,2,-1
 559 1 l 1,3,-1
 559 317 l 1,4,-1
 178 317 l 1,5,-1
 178 1 l 1,6,-1
 104 1 l 1,7,-1
 103 698 l 1,8,-1
 178 698 l 1,9,-1
 178 376 l 1,10,-1
 559 376 l 1,11,-1
 559 698 l 1,0,-1
EndSplineSet
EndChar
StartChar: I
Encoding: 298 73 42
Width: 280
VWidth: 1467
Flags: W
HStem: 1 21G<100 175> 678 20G<100 175>
VStem: 100 75<1 698>
Fore
100 698 m 1,0,-1
 175 698 l 1,1,-1
 175 1 l 1,2,-1
 100 1 l 1,3,-1
 100 698 l 1,0,-1
EndSplineSet
EndChar
StartChar: J
Encoding: 299 74 43
Width: 470
VWidth: 1467
Flags: W
HStem: 677 20G<296 368>
VStem: 23 345<144 697 144 144> 296 72<87.557 697>
Fore
94 144 m 1,0,1
 100 89 100 89 132 64.5 c 128,-1,2
 164 40 164 40 201 42.5 c 128,-1,3
 238 45 238 45 267 77.5 c 128,-1,4
 296 110 296 110 296 170 c 2,5,-1
 296 697 l 1,6,-1
 368 697 l 1,7,8
 368 641 368 641 368 569 c 128,-1,9
 368 497 368 497 368 422.5 c 128,-1,10
 368 348 368 348 368 275 c 128,-1,11
 368 202 368 202 368 147 c 0,12,13
 368 95 368 95 342.5 60.5 c 128,-1,14
 317 26 317 26 279 8.5 c 128,-1,15
 241 -9 241 -9 196 -9.5 c 128,-1,16
 151 -10 151 -10 113 6.5 c 128,-1,17
 75 23 75 23 49 57 c 128,-1,18
 23 91 23 91 23 144 c 1,19,-1
 94 144 l 1,0,1
EndSplineSet
EndChar
StartChar: K
Encoding: 300 75 44
Width: 720
VWidth: 1467
Flags: W
VStem: 100 78<4 280 379 716> 541 74<3 306.437>
Fore
493 409 m 0,0,1
 465 430 465 430 430 440 c 128,-1,2
 395 450 395 450 358 453 c 1,3,-1
 176 280 l 1,4,-1
 178 4 l 1,5,-1
 100 3 l 1,6,-1
 100 4 l 1,7,-1
 100 716 l 1,8,-1
 178 716 l 1,9,-1
 180 379 l 1,10,-1
 544 716 l 1,11,-1
 629 716 l 1,12,-1
 408 511 l 1,13,14
 450 508 450 508 490 490 c 128,-1,15
 530 472 530 472 558 449 c 0,16,17
 596 415 596 415 605.5 363 c 128,-1,18
 615 311 615 311 615 232 c 2,19,-1
 615 3 l 1,20,-1
 541 3 l 1,21,-1
 541 229 l 2,22,23
 543 286 543 286 532.5 337.5 c 128,-1,24
 522 389 522 389 493 409 c 0,0,1
EndSplineSet
EndChar
StartChar: L
Encoding: 301 76 45
Width: 620
VWidth: 1467
Flags: W
HStem: -1 58<314.151 552> 678 20G<100 172.045>
VStem: 100 73<147.226 698>
Fore
552 -1 m 1,0,-1
 355 -1 l 2,1,2
 302 0 302 0 255 9 c 128,-1,3
 208 18 208 18 173.5 44 c 128,-1,4
 139 70 139 70 119.5 121 c 128,-1,5
 100 172 100 172 100 255 c 2,6,-1
 100 698 l 1,7,-1
 172 698 l 1,8,-1
 173 254 l 2,9,10
 172 185 172 185 188.5 146 c 128,-1,11
 205 107 205 107 234 87 c 128,-1,12
 263 67 263 67 301 62 c 128,-1,13
 339 57 339 57 380 57 c 2,14,-1
 552 57 l 1,15,-1
 552 -1 l 1,0,-1
EndSplineSet
EndChar
StartChar: M
Encoding: 302 77 46
Width: 874
VWidth: 1467
Flags: W
HStem: 0 21G<102.914 176 702 773> 678 20G<100 187.5 682 770.086>
VStem: 103 70<0 35.5693 35.5693 128.3 128.3 250.908 250.908 626> 700.5 72.5<0 35.8424 35.8424 127.815 127.815 248.635 248.635 626>
Fore
185 713 m 1,0,-1
 186 713 l 1,1,-1
 185 713 l 1,0,-1
173 698 m 1,2,3
 202 684 202 684 237.5 658 c 128,-1,4
 273 632 273 632 308 599 c 128,-1,5
 343 566 343 566 376 529 c 128,-1,6
 409 492 409 492 434 455 c 1,7,8
 464 499 464 499 498.5 537 c 128,-1,9
 533 575 533 575 568 606.5 c 128,-1,10
 603 638 603 638 636 661.5 c 128,-1,11
 669 685 669 685 695 698 c 1,12,-1
 770 698 l 1,13,-1
 773 0 l 1,14,-1
 703 0 l 1,15,16
 701 23 701 23 701 72.5 c 128,-1,17
 701 122 701 122 700.5 183.5 c 128,-1,18
 700 245 700 245 700 314 c 128,-1,19
 700 383 700 383 700 444.5 c 128,-1,20
 700 506 700 506 700 554.5 c 128,-1,21
 700 603 700 603 700 626 c 1,22,23
 679 621 679 621 639.5 587 c 128,-1,24
 600 553 600 553 557.5 510.5 c 128,-1,25
 515 468 515 468 480 424 c 128,-1,26
 445 380 445 380 433 352 c 1,27,28
 406 399 406 399 372.5 443 c 128,-1,29
 339 487 339 487 303.5 523.5 c 128,-1,30
 268 560 268 560 234 587.5 c 128,-1,31
 200 615 200 615 173 626 c 1,32,33
 173 606 173 606 173 558.5 c 128,-1,34
 173 511 173 511 173 448.5 c 128,-1,35
 173 386 173 386 173 317 c 128,-1,36
 173 248 173 248 174 185 c 128,-1,37
 175 122 175 122 175 72 c 128,-1,38
 175 22 175 22 176 0 c 1,39,-1
 103 0 l 1,40,-1
 100 698 l 1,41,-1
 173 698 l 1,2,3
EndSplineSet
EndChar
StartChar: N
Encoding: 303 78 47
Width: 760
VWidth: 1467
Flags: W
HStem: -6 21G<91 170.07 519 531.5> 680 20G<91.9714 176.37 588 663>
VStem: 92 78<1 569> 588 75<103.498 700>
Fore
588 700 m 1,0,-1
 663 700 l 1,1,-1
 663 131 l 2,2,3
 663 94 663 94 648.5 68.5 c 128,-1,4
 634 43 634 43 612.5 26.5 c 128,-1,5
 591 10 591 10 566 2 c 128,-1,6
 541 -6 541 -6 522 -6 c 1,7,8
 516 4 516 4 489 48 c 128,-1,9
 462 92 462 92 424.5 152.5 c 128,-1,10
 387 213 387 213 344.5 282 c 128,-1,11
 302 351 302 351 265.5 411 c 128,-1,12
 229 471 229 471 202.5 515 c 128,-1,13
 176 559 176 559 172 569 c 1,14,-1
 170 1 l 1,15,-1
 91 1 l 1,16,-1
 92 700 l 1,17,-1
 164 700 l 1,18,-1
 558 63 l 1,19,20
 578 70 578 70 583 94.5 c 128,-1,21
 588 119 588 119 588 163 c 2,22,-1
 588 700 l 1,0,-1
EndSplineSet
EndChar
StartChar: O
Encoding: 304 79 48
Width: 724
VWidth: 1467
Flags: W
HStem: -15 62<278.596 432.503> 649 63<312.276 413.219>
VStem: 100 72<118.847 575.668> 552 72<118.847 577.122>
Fore
383 712 m 0,0,1
 428 709 428 709 472 696.5 c 128,-1,2
 516 684 516 684 549 661 c 128,-1,3
 582 638 582 638 603 605 c 128,-1,4
 624 572 624 572 624 528 c 2,5,-1
 624 167 l 2,6,7
 624 123 624 123 602 89.5 c 128,-1,8
 580 56 580 56 542.5 33 c 128,-1,9
 505 10 505 10 455.5 -1.5 c 128,-1,10
 406 -13 406 -13 354 -15 c 0,11,12
 292 -15 292 -15 244.5 1.5 c 128,-1,13
 197 18 197 18 165.5 42.5 c 128,-1,14
 134 67 134 67 117 100.5 c 128,-1,15
 100 134 100 134 100 167 c 2,16,-1
 100 528 l 2,17,18
 100 577 100 577 125.5 613 c 128,-1,19
 151 649 151 649 192 671.5 c 128,-1,20
 233 694 233 694 284 704.5 c 128,-1,21
 335 715 335 715 383 712 c 0,0,1
552 509 m 2,22,23
 552 550 552 550 535.5 578 c 128,-1,24
 519 606 519 606 492 621.5 c 128,-1,25
 465 637 465 637 430.5 643 c 128,-1,26
 396 649 396 649 361 649 c 256,27,28
 326 649 326 649 292 642 c 128,-1,29
 258 635 258 635 231.5 619 c 128,-1,30
 205 603 205 603 188.5 576.5 c 128,-1,31
 172 550 172 550 172 509 c 2,32,-1
 172 186 l 2,33,34
 172 145 172 145 188 118 c 128,-1,35
 204 91 204 91 231 75.5 c 128,-1,36
 258 60 258 60 292 53.5 c 128,-1,37
 326 47 326 47 361 47 c 256,38,39
 396 47 396 47 430.5 53.5 c 128,-1,40
 465 60 465 60 492 75.5 c 128,-1,41
 519 91 519 91 535.5 118 c 128,-1,42
 552 145 552 145 552 186 c 2,43,-1
 552 509 l 2,22,23
EndSplineSet
EndChar
StartChar: P
Encoding: 305 80 49
Width: 669
VWidth: 1467
Flags: W
HStem: -1 21G<95 170> 267 56<172 394.938> 643 52<172 396.053>
VStem: 95 77<-1 195.485 195.485 267 323 643> 537 65<391.471 551.575>
Fore
377 695 m 2,0,1
 411 695 411 695 450 684 c 128,-1,2
 489 673 489 673 522 646 c 128,-1,3
 555 619 555 619 577.5 575 c 128,-1,4
 600 531 600 531 602 465 c 0,5,6
 602 423 602 423 585 387 c 128,-1,7
 568 351 568 351 538 324.5 c 128,-1,8
 508 298 508 298 466 282.5 c 128,-1,9
 424 267 424 267 374 267 c 2,10,-1
 172 267 l 1,11,12
 170 195 170 195 170 124 c 128,-1,13
 170 53 170 53 170 -1 c 1,14,-1
 95 -1 l 1,15,-1
 95 695 l 1,16,-1
 377 695 l 2,0,1
362 324 m 2,17,18
 393 326 393 326 424 332.5 c 128,-1,19
 455 339 455 339 480.5 353.5 c 128,-1,20
 506 368 506 368 521.5 394 c 128,-1,21
 537 420 537 420 537 461 c 0,22,23
 537 514 537 514 520 548 c 128,-1,24
 503 582 503 582 476.5 603.5 c 128,-1,25
 450 625 450 625 419.5 634 c 128,-1,26
 389 643 389 643 361 643 c 2,27,-1
 172 643 l 1,28,-1
 172 323 l 1,29,-1
 362 324 l 2,17,18
EndSplineSet
EndChar
StartChar: Q
Encoding: 306 81 50
Width: 723
VWidth: 1467
Flags: W
HStem: -100 53<584.763 624> -15 62<306.8 398.625> 649 63<286.031 375.454 375.454 377.384 377.384 402 411.5 455.672>
VStem: 100 72<119.332 574.669> 552 72<119.002 577.122>
Fore
624 -100 m 1,0,1
 599 -100 599 -100 571.5 -96 c 128,-1,2
 544 -92 544 -92 517 -82.5 c 128,-1,3
 490 -73 490 -73 466.5 -55.5 c 128,-1,4
 443 -38 443 -38 425 -10 c 1,5,6
 415 -13 415 -13 401 -14 c 128,-1,7
 387 -15 387 -15 373 -15 c 2,8,-1
 337 -15 l 2,9,10
 291 -12 291 -12 248 0.5 c 128,-1,11
 205 13 205 13 172 36 c 128,-1,12
 139 59 139 59 119.5 92 c 128,-1,13
 100 125 100 125 100 167 c 2,14,-1
 100 528 l 2,15,16
 100 572 100 572 121 605 c 128,-1,17
 142 638 142 638 177.5 661.5 c 128,-1,18
 213 685 213 685 257.5 697 c 128,-1,19
 302 709 302 709 349 712 c 0,20,21
 374 712 374 712 402 709 c 128,-1,22
 430 706 430 706 456.5 699.5 c 128,-1,23
 483 693 483 693 505.5 683 c 128,-1,24
 528 673 528 673 546 663 c 0,25,26
 581 640 581 640 602.5 606 c 128,-1,27
 624 572 624 572 624 528 c 2,28,-1
 624 167 l 2,29,30
 624 106 624 106 583.5 64.5 c 128,-1,31
 543 23 543 23 483 3 c 1,32,33
 503 -10 503 -10 527 -22 c 0,34,35
 547 -32 547 -32 571.5 -40 c 128,-1,36
 596 -48 596 -48 624 -47 c 1,37,-1
 624 -100 l 1,0,1
357 47 m 0,38,39
 381 47 381 47 415 53 c 128,-1,40
 449 59 449 59 479 75 c 128,-1,41
 509 91 509 91 530.5 118 c 128,-1,42
 552 145 552 145 552 186 c 2,43,-1
 552 509 l 2,44,45
 552 550 552 550 530 578 c 128,-1,46
 508 606 508 606 477 622 c 128,-1,47
 446 638 446 638 411.5 644 c 128,-1,48
 377 650 377 650 352 649 c 0,49,50
 318 646 318 646 285 639 c 128,-1,51
 252 632 252 632 227 617 c 128,-1,52
 202 602 202 602 187 575.5 c 128,-1,53
 172 549 172 549 172 509 c 2,54,-1
 172 186 l 2,55,56
 172 145 172 145 188 118.5 c 128,-1,57
 204 92 204 92 229.5 76 c 128,-1,58
 255 60 255 60 288 53.5 c 128,-1,59
 321 47 321 47 357 47 c 0,38,39
EndSplineSet
EndChar
StartChar: R
Encoding: 307 82 51
Width: 683
VWidth: 1467
Flags: W
HStem: 0 21G<99.9139 173 530.5 607> 321 56<170 266.638 266.638 322.108> 644 53<172 373.165 373.165 375.454 375.454 405 422.5 460.702>
VStem: 97 73<0 33.027 33.027 119.842 119.842 321 377 418.458 418.458 491.335 491.335 644> 521 75<443.262 583.891> 531 76<0 209.386>
Fore
437 351 m 1,0,1
 467 339 467 339 496 321.5 c 128,-1,2
 525 304 525 304 549.5 276.5 c 128,-1,3
 574 249 574 249 589 212 c 128,-1,4
 604 175 604 175 604 123 c 2,5,-1
 607 0 l 1,6,-1
 531 0 l 1,7,-1
 528 120 l 2,8,9
 528 175 528 175 512.5 210.5 c 128,-1,10
 497 246 497 246 471.5 268.5 c 128,-1,11
 446 291 446 291 413.5 301 c 128,-1,12
 381 311 381 311 346 315 c 0,13,14
 335 317 335 317 322.5 318.5 c 128,-1,15
 310 320 310 320 290.5 320.5 c 128,-1,16
 271 321 271 321 242.5 321 c 128,-1,17
 214 321 214 321 170 321 c 1,18,19
 170 286 170 286 170 263.5 c 0,20,-1
 170 174 l 0,21,22
 170 107 170 107 171 66.5 c 128,-1,23
 172 26 172 26 173 0 c 1,24,-1
 100 0 l 1,25,-1
 97 697 l 1,26,-1
 346 697 l 2,27,28
 380 697 380 697 422.5 690.5 c 128,-1,29
 465 684 465 684 503 664 c 128,-1,30
 541 644 541 644 567.5 606 c 128,-1,31
 594 568 594 568 596 505 c 0,32,33
 596 474 596 474 582 449 c 128,-1,34
 568 424 568 424 546 405 c 128,-1,35
 524 386 524 386 495.5 372.5 c 128,-1,36
 467 359 467 359 437 351 c 1,0,1
346 377 m 2,37,38
 377 380 377 380 408 383.5 c 128,-1,39
 439 387 439 387 464 399 c 128,-1,40
 489 411 489 411 505 434.5 c 128,-1,41
 521 458 521 458 521 499 c 0,42,43
 521 552 521 552 504 580.5 c 128,-1,44
 487 609 487 609 461.5 623 c 128,-1,45
 436 637 436 637 405 640.5 c 128,-1,46
 374 644 374 644 346 644 c 2,47,-1
 172 644 l 1,48,49
 172 607 172 607 172 579.5 c 128,-1,50
 172 552 172 552 172 523 c 128,-1,51
 172 494 172 494 171 459.5 c 128,-1,52
 170 425 170 425 170 377 c 1,53,-1
 346 377 l 2,37,38
EndSplineSet
EndChar
StartChar: S
Encoding: 308 83 52
Width: 698
VWidth: 1467
Flags: W
HStem: -16 21G<328 371.5> 656 59<305.885 395.063>
VStem: 88 85<448.017 556.894> 540 85<129.3 247.205>
Fore
540 191 m 0,0,1
 537 239 537 239 502 262.5 c 128,-1,2
 467 286 467 286 416 298.5 c 128,-1,3
 365 311 365 311 307 320 c 128,-1,4
 249 329 249 329 200 348.5 c 128,-1,5
 151 368 151 368 119 405.5 c 128,-1,6
 87 443 87 443 88 514 c 0,7,8
 88 563 88 563 113 601.5 c 128,-1,9
 138 640 138 640 175.5 665 c 128,-1,10
 213 690 213 690 260 702.5 c 128,-1,11
 307 715 307 715 351 715 c 0,12,13
 387 715 387 715 427 706 c 128,-1,14
 467 697 467 697 501.5 679.5 c 128,-1,15
 536 662 536 662 561.5 634 c 128,-1,16
 587 606 587 606 596 568 c 1,17,-1
 524 568 l 1,18,19
 506 599 506 599 485 615.5 c 128,-1,20
 464 632 464 632 441 641 c 128,-1,21
 418 650 418 650 394.5 653 c 128,-1,22
 371 656 371 656 349 656 c 0,23,24
 321 656 321 656 289.5 649.5 c 128,-1,25
 258 643 258 643 231.5 626.5 c 128,-1,26
 205 610 205 610 187.5 582.5 c 128,-1,27
 170 555 170 555 173 514 c 0,28,29
 176 458 176 458 210 432 c 128,-1,30
 244 406 244 406 293 394.5 c 128,-1,31
 342 383 342 383 399 376.5 c 128,-1,32
 456 370 456 370 505.5 353 c 128,-1,33
 555 336 555 336 588.5 299.5 c 128,-1,34
 622 263 622 263 625 191 c 0,35,36
 626 136 626 136 601.5 97.5 c 128,-1,37
 577 59 577 59 535.5 33 c 128,-1,38
 494 7 494 7 444.5 -4.5 c 128,-1,39
 395 -16 395 -16 348 -16 c 0,40,41
 308 -16 308 -16 266 -9.5 c 128,-1,42
 224 -3 224 -3 185.5 14.5 c 128,-1,43
 147 32 147 32 115.5 62 c 128,-1,44
 84 92 84 92 66 139 c 1,45,-1
 141 139 l 1,46,47
 154 109 154 109 183.5 89.5 c 128,-1,48
 213 70 213 70 245 59 c 128,-1,49
 277 48 277 48 308 44.5 c 128,-1,50
 339 41 339 41 355 44 c 0,51,52
 392 50 392 50 426.5 59.5 c 128,-1,53
 461 69 461 69 486 86 c 128,-1,54
 511 103 511 103 525.5 128.5 c 128,-1,55
 540 154 540 154 540 191 c 0,0,1
EndSplineSet
EndChar
StartChar: T
Encoding: 309 84 53
Width: 654
VWidth: 1467
Flags: W
HStem: -1 21G<285 359> 638 59<66 285 359 584>
VStem: 285 74<-1 638>
Fore
584 697 m 1,0,-1
 584 638 l 1,1,-1
 359 638 l 1,2,-1
 359 -1 l 1,3,-1
 285 -1 l 1,4,-1
 285 638 l 1,5,-1
 66 638 l 1,6,-1
 66 697 l 1,7,-1
 584 697 l 1,0,-1
EndSplineSet
EndChar
StartChar: U
Encoding: 310 85 54
Width: 749
VWidth: 1467
Flags: W
HStem: -15 59<322.426 429.878> 677 20G<100 172 578 650>
VStem: 100 72<121.847 698> 578 72<117.394 697>
Fore
650 697 m 1,0,-1
 650 169 l 2,1,2
 650 107 650 107 609 66.5 c 128,-1,3
 568 26 568 26 507 5.5 c 128,-1,4
 446 -15 446 -15 375 -15 c 128,-1,5
 304 -15 304 -15 243 5.5 c 128,-1,6
 182 26 182 26 141 66.5 c 128,-1,7
 100 107 100 107 100 169 c 2,8,-1
 100 698 l 1,9,-1
 172 698 l 1,10,-1
 172 188 l 2,11,12
 172 148 172 148 188 121 c 128,-1,13
 204 94 204 94 231 77 c 128,-1,14
 258 60 258 60 293.5 52.5 c 128,-1,15
 329 45 329 45 365 44 c 0,16,17
 405 43 405 43 443 49.5 c 128,-1,18
 481 56 481 56 511 72 c 128,-1,19
 541 88 541 88 559.5 116.5 c 128,-1,20
 578 145 578 145 578 188 c 2,21,-1
 578 697 l 1,22,-1
 650 697 l 1,0,-1
EndSplineSet
EndChar
StartChar: V
Encoding: 311 86 55
Width: 708
VWidth: 1467
Flags: W
HStem: 677 20G<57 133.197 565.466 647>
Fore
486 129 m 0,0,1
 478 104 478 104 467 78.5 c 128,-1,2
 456 53 456 53 440 31.5 c 128,-1,3
 424 10 424 10 400.5 -3 c 128,-1,4
 377 -16 377 -16 345 -13 c 1,5,6
 295 -21 295 -21 255.5 16.5 c 128,-1,7
 216 54 216 54 201 112 c 2,8,-1
 57 697 l 1,9,-1
 128 697 l 1,10,-1
 260 189 l 2,11,12
 267 160 267 160 274.5 139.5 c 128,-1,13
 282 119 282 119 292 91 c 0,14,15
 301 70 301 70 315 57.5 c 128,-1,16
 329 45 329 45 344 44 c 128,-1,17
 359 43 359 43 374.5 54 c 128,-1,18
 390 65 390 65 401 89 c 2,19,-1
 431 191 l 1,20,-1
 571 697 l 1,21,-1
 647 697 l 1,22,23
 628 629 628 629 608 555 c 128,-1,24
 588 481 588 481 567 406.5 c 128,-1,25
 546 332 546 332 525.5 261.5 c 128,-1,26
 505 191 505 191 486 129 c 0,0,1
EndSplineSet
EndChar
StartChar: W
Encoding: 312 87 56
Width: 878
VWidth: 1467
Flags: W
HStem: 0 21G<174.528 260 611 697.587> 677 20G<57 129.736 742.5 819>
Fore
178 0 m 1,0,-1
 57 697 l 1,1,-1
 126 697 l 1,2,-1
 242 76 l 1,3,4
 291 126 291 126 322.5 190.5 c 128,-1,5
 354 255 354 255 373.5 322 c 128,-1,6
 393 389 393 389 407 453.5 c 128,-1,7
 421 518 421 518 434 568 c 1,8,9
 452 519 452 519 468 457.5 c 128,-1,10
 484 396 484 396 504 331 c 128,-1,11
 524 266 524 266 552 200.5 c 128,-1,12
 580 135 580 135 622 78 c 1,13,14
 635 145 635 145 652 225 c 128,-1,15
 669 305 669 305 686.5 387.5 c 128,-1,16
 704 470 704 470 720.5 549.5 c 128,-1,17
 737 629 737 629 748 697 c 1,18,-1
 819 697 l 1,19,-1
 694 0 l 1,20,-1
 626 0 l 1,21,22
 596 12 596 12 566 49.5 c 128,-1,23
 536 87 536 87 510 138 c 128,-1,24
 484 189 484 189 465 249.5 c 128,-1,25
 446 310 446 310 437 367 c 1,26,27
 433 299 433 299 413 239 c 128,-1,28
 393 179 393 179 365 130.5 c 128,-1,29
 337 82 337 82 305.5 48.5 c 128,-1,30
 274 15 274 15 246 0 c 1,31,-1
 178 0 l 1,0,-1
EndSplineSet
EndChar
StartChar: X
Encoding: 313 88 57
Width: 704
VWidth: 1467
Flags: W
HStem: 1 21G<53 149.488 578.512 675> 681 20G<53 149.436 577.631 675>
Fore
134 701 m 1,0,-1
 364 403 l 1,1,-1
 593 701 l 1,2,-1
 675 701 l 1,3,-1
 403 351 l 1,4,-1
 675 1 l 1,5,-1
 594 1 l 1,6,-1
 364 298 l 1,7,-1
 134 1 l 1,8,-1
 53 1 l 1,9,-1
 323 351 l 1,10,-1
 53 701 l 1,11,-1
 134 701 l 1,0,-1
EndSplineSet
EndChar
StartChar: Y
Encoding: 314 89 58
Width: 691
VWidth: 1467
Flags: W
HStem: -1 21G<304 381> 677 20G<53 147.5 540.5 632>
VStem: 304 77<-1 283>
Fore
304 283 m 1,0,1
 288 291 288 291 273 311.5 c 128,-1,2
 258 332 258 332 254 339 c 0,3,4
 230 376 230 376 204.5 421.5 c 128,-1,5
 179 467 179 467 152.5 515 c 128,-1,6
 126 563 126 563 100.5 610 c 128,-1,7
 75 657 75 657 53 697 c 1,8,-1
 126 697 l 1,9,10
 169 616 169 616 218.5 531.5 c 128,-1,11
 268 447 268 447 311 373 c 0,12,13
 329 340 329 340 340 338.5 c 128,-1,14
 351 337 351 337 370 368 c 0,15,16
 417 445 417 445 467.5 530.5 c 128,-1,17
 518 616 518 616 563 697 c 1,18,-1
 632 697 l 1,19,20
 609 654 609 654 583.5 607 c 128,-1,21
 558 560 558 560 531.5 513.5 c 0,22,-1
 478.5 420.5 l 0,23,24
 452 374 452 374 428 335 c 0,25,26
 421 323 421 323 408.5 307.5 c 128,-1,27
 396 292 396 292 381 285 c 1,28,-1
 381 -1 l 1,29,-1
 304 -1 l 1,30,-1
 304 283 l 1,0,1
EndSplineSet
EndChar
StartChar: Z
Encoding: 315 90 59
Width: 754
VWidth: 1467
Flags: W
HStem: 1 74<214.414 226 226 666> 625 75<95 540>
Fore
666 75 m 1,0,-1
 666 1 l 1,1,-1
 226 1 l 2,2,3
 189 1 189 1 162.5 13.5 c 128,-1,4
 136 26 136 26 120 44.5 c 128,-1,5
 104 63 104 63 96 86 c 128,-1,6
 88 109 88 109 88 129 c 1,7,8
 95 136 95 136 130.5 173.5 c 128,-1,9
 166 211 166 211 213.5 264 c 128,-1,10
 261 317 261 317 316 376.5 c 128,-1,11
 371 436 371 436 418 488.5 c 128,-1,12
 465 541 465 541 499 578.5 c 128,-1,13
 533 616 533 616 540 625 c 1,14,-1
 95 625 l 1,15,-1
 95 700 l 1,16,-1
 666 700 l 1,17,-1
 666 631 l 1,18,-1
 195 119 l 1,19,20
 201 97 201 97 214 86 c 128,-1,21
 227 75 227 75 271 75 c 2,22,-1
 666 75 l 1,0,-1
EndSplineSet
EndChar
StartChar: bracketleft
Encoding: 316 91 60
Width: 322
VWidth: 1467
Flags: W
HStem: -117 45<172 318> -117 840<91 172 91 318 91 91> 679 44<172 318>
VStem: 91 81<-72 679>
Fore
91 -117 m 1,0,-1
 91 723 l 1,1,-1
 318 723 l 1,2,-1
 318 679 l 1,3,-1
 172 679 l 1,4,-1
 172 -72 l 1,5,-1
 318 -72 l 1,6,-1
 318 -117 l 1,7,-1
 91 -117 l 1,0,-1
EndSplineSet
EndChar
StartChar: backslash
Encoding: 317 92 61
Width: 463
VWidth: 1467
Flags: W
VStem: 0 462<-44 722 722 722>
Fore
0 722 m 1,0,-1
 88 722 l 1,1,-1
 462 -44 l 1,2,-1
 373 -44 l 1,3,-1
 0 722 l 1,0,-1
EndSplineSet
EndChar
StartChar: bracketright
Encoding: 318 93 62
Width: 322
VWidth: 1467
Flags: W
HStem: -117 45<1 144> 679 44<-1 144>
VStem: 1 225<-117 -72 679 723> 144 82<-72 679>
Fore
1 -117 m 1,0,-1
 1 -72 l 1,1,-1
 144 -72 l 1,2,-1
 144 679 l 1,3,-1
 -1 679 l 1,4,-1
 -1 723 l 1,5,-1
 226 723 l 1,6,-1
 226 -117 l 1,7,-1
 1 -117 l 1,0,-1
EndSplineSet
EndChar
StartChar: asciicircum
Encoding: 319 94 63
Width: 710
VWidth: 1467
Flags: W
Fore
75 204 m 1,0,1
 116 249 116 249 160 313 c 128,-1,2
 204 377 204 377 243 447.5 c 128,-1,3
 282 518 282 518 311 589 c 128,-1,4
 340 660 340 660 352 722 c 1,5,6
 365 660 365 660 394.5 591 c 128,-1,7
 424 522 424 522 462 452.5 c 128,-1,8
 500 383 500 383 544 318.5 c 128,-1,9
 588 254 588 254 631 204 c 1,10,-1
 528 204 l 1,11,12
 467 285 467 285 420.5 377.5 c 128,-1,13
 374 470 374 470 355 571 c 1,14,15
 332 471 332 471 284 377 c 128,-1,16
 236 283 236 283 176 204 c 1,17,-1
 75 204 l 1,0,1
EndSplineSet
EndChar
StartChar: underscore
Encoding: 320 95 64
Width: 528
VWidth: 1467
Flags: W
HStem: -292 76<1 525>
Fore
1 -292 m 1,0,-1
 1 -216 l 1,1,-1
 525 -216 l 1,2,-1
 525 -292 l 1,3,-1
 1 -292 l 1,0,-1
EndSplineSet
EndChar
StartChar: grave
Encoding: 321 96 65
Width: 300
VWidth: 1467
Flags: W
HStem: 566 153<45 169 45 45>
Fore
169 566 m 1,0,-1
 45 719 l 1,1,-1
 145 719 l 1,2,-1
 239 566 l 1,3,-1
 169 566 l 1,0,-1
EndSplineSet
EndChar
StartChar: a
Encoding: 322 97 66
Width: 639
VWidth: 1467
Flags: W
HStem: -10 21G<507.5 515.5> 461.5 50<229.32 344.233>
VStem: 72 76<67.6789 179.247> 461 73<58.5 66.89 129 286 344.706 406.938>
Fore
461 286 m 1,0,1
 434 266 434 266 408.5 254 c 128,-1,2
 383 242 383 242 349 236 c 0,3,4
 318 230 318 230 282 225 c 128,-1,5
 246 220 246 220 217 209 c 128,-1,6
 188 198 188 198 168 179 c 128,-1,7
 148 160 148 160 148 129 c 0,8,9
 148 91 148 91 168.5 67.5 c 128,-1,10
 189 44 189 44 227 43 c 0,11,12
 285 40 285 40 329 53.5 c 128,-1,13
 373 67 373 67 402 84 c 0,14,15
 437 103 437 103 461 129 c 1,16,-1
 461 286 l 1,0,1
512 -10 m 1,17,18
 503 -6 503 -6 495 3 c 128,-1,19
 487 12 487 12 479.5 23 c 128,-1,20
 472 34 472 34 467 45.5 c 128,-1,21
 462 57 462 57 461 67 c 1,22,23
 447 57 447 57 424 41.5 c 128,-1,24
 401 26 401 26 368.5 13 c 128,-1,25
 336 0 336 0 297 -6.5 c 128,-1,26
 258 -13 258 -13 217 -4 c 0,27,28
 163 6 163 6 118 38 c 128,-1,29
 73 70 73 70 72 129 c 0,30,31
 72 179 72 179 101.5 205.5 c 128,-1,32
 131 232 131 232 173.5 246 c 128,-1,33
 216 260 216 260 263.5 265.5 c 128,-1,34
 311 271 311 271 349 280 c 0,35,36
 362 283 362 283 380.5 290.5 c 128,-1,37
 399 298 399 298 416.5 308 c 128,-1,38
 434 318 434 318 446 331.5 c 128,-1,39
 458 345 458 345 458 361 c 0,40,41
 458 399 458 399 411 433 c 0,42,43
 386 452 386 452 345.5 458.5 c 128,-1,44
 305 465 305 465 259.5 461.5 c 128,-1,45
 214 458 214 458 170 445.5 c 128,-1,46
 126 433 126 433 94 417 c 1,47,-1
 103 474 l 1,48,49
 138 492 138 492 186.5 501.5 c 128,-1,50
 235 511 235 511 285.5 511.5 c 128,-1,51
 336 512 336 512 382 504 c 128,-1,52
 428 496 428 496 462 480 c 0,53,54
 494 465 494 465 514 432 c 128,-1,55
 534 399 534 399 534 359 c 2,56,-1
 534 101 l 2,57,58
 534 79 534 79 538.5 58.5 c 128,-1,59
 543 38 543 38 568 19 c 1,60,61
 559 10 559 10 539 3 c 128,-1,62
 519 -4 519 -4 512 -10 c 1,17,18
EndSplineSet
Substitution2: "Single Substitution lookup 22 subtable" uni0E38
Substitution2: "Single Substitution lookup 22 subtable" uni0E38
EndChar
StartChar: b
Encoding: 323 98 67
Width: 664
VWidth: 1467
Flags: W
HStem: -3 51<301.01 430.224> 448 57.5<259.812 301.5 307 323.669 323.669 324.27 324.27 424.387> 678 20G<98 172>
VStem: 98 74<123 361 440 698> 510 73<145.751 265.492 265.492 267.685 267.685 307.5 307.5 326.5>
Fore
172 126 m 1,0,-1
 172 123 l 1,1,2
 205 92 205 92 247 68.5 c 128,-1,3
 289 45 289 45 352 48 c 0,4,5
 427 51 427 51 466.5 101 c 128,-1,6
 506 151 506 151 514 226 c 0,7,8
 518 267 518 267 510 307.5 c 128,-1,9
 502 348 502 348 481.5 380 c 128,-1,10
 461 412 461 412 425.5 432 c 128,-1,11
 390 452 390 452 340 453 c 0,12,13
 324 453 324 453 301.5 448 c 128,-1,14
 279 443 279 443 254.5 431.5 c 128,-1,15
 230 420 230 420 208 402 c 128,-1,16
 186 384 186 384 172 361 c 1,17,-1
 172 126 l 1,0,-1
98 698 m 1,18,-1
 172 698 l 1,19,-1
 172 440 l 1,20,21
 186 459 186 459 209.5 472.5 c 128,-1,22
 233 486 233 486 259 494 c 128,-1,23
 285 502 285 502 307 505.5 c 128,-1,24
 329 509 329 509 340 509 c 0,25,26
 406 512 406 512 456 487 c 128,-1,27
 506 462 506 462 537.5 420.5 c 128,-1,28
 569 379 569 379 583 326.5 c 128,-1,29
 597 274 597 274 590 222 c 0,30,31
 584 178 584 178 565 137.5 c 128,-1,32
 546 97 546 97 516 65.5 c 128,-1,33
 486 34 486 34 447 15.5 c 128,-1,34
 408 -3 408 -3 362 -3 c 0,35,36
 320 -3 320 -3 290.5 2 c 128,-1,37
 261 7 261 7 240.5 16 c 128,-1,38
 220 25 220 25 204 36 c 128,-1,39
 188 47 188 47 172 59 c 1,40,-1
 163 63 l 1,41,42
 154 41 154 41 137 22.5 c 128,-1,43
 120 4 120 4 100 -3 c 1,44,45
 88 6 88 6 75 16 c 128,-1,46
 62 26 62 26 47 43 c 1,47,48
 76 65 76 65 85.5 86 c 128,-1,49
 95 107 95 107 98 132 c 2,50,-1
 98 698 l 1,18,-1
EndSplineSet
Substitution2: "Single Substitution lookup 22 subtable" uni0E39
Substitution2: "Single Substitution lookup 22 subtable" uni0E39
EndChar
StartChar: c
Encoding: 324 99 68
Width: 616
VWidth: 1467
Flags: W
VStem: 100 76<104.267 391.887>
Fore
100 359 m 2,0,1
 100 398 100 398 124 426.5 c 128,-1,2
 148 455 148 455 182 474 c 0,3,4
 219 496 219 496 273 504 c 128,-1,5
 327 512 327 512 383 504.5 c 128,-1,6
 439 497 439 497 486.5 473 c 128,-1,7
 534 449 534 449 556 405 c 1,8,-1
 506 373 l 1,9,10
 490 409 490 409 457 429.5 c 128,-1,11
 424 450 424 450 384.5 455.5 c 128,-1,12
 345 461 345 461 305.5 454 c 128,-1,13
 266 447 266 447 238 430 c 0,14,15
 208 412 208 412 192 392.5 c 128,-1,16
 176 373 176 373 176 340 c 2,17,-1
 176 160 l 2,18,19
 176 128 176 128 196 103.5 c 128,-1,20
 216 79 216 79 245 62 c 0,21,22
 273 44 273 44 311 38 c 128,-1,23
 349 32 349 32 386 39.5 c 128,-1,24
 423 47 423 47 453.5 68 c 128,-1,25
 484 89 484 89 500 128 c 1,26,-1
 556 95 l 1,27,28
 534 51 534 51 486.5 27 c 128,-1,29
 439 3 439 3 383 -4.5 c 128,-1,30
 327 -12 327 -12 273 -4 c 128,-1,31
 219 4 219 4 182 26 c 0,32,33
 148 45 148 45 124 74 c 128,-1,34
 100 103 100 103 100 141 c 2,35,-1
 100 359 l 2,0,1
EndSplineSet
Substitution2: "Single Substitution lookup 22 subtable" uni0E3A
Substitution2: "Single Substitution lookup 22 subtable" uni0E3A
EndChar
StartChar: d
Encoding: 325 100 69
Width: 671
VWidth: 1467
Flags: W
HStem: -4 51<235.776 406.621> 452 56<240.582 355.061> 677 20G<494 568>
VStem: 494 74<122 359 439 697>
Fore
494 359 m 1,0,1
 465 392 465 392 441.5 411 c 128,-1,2
 418 430 418 430 397.5 439.5 c 128,-1,3
 377 449 377 449 359.5 450.5 c 128,-1,4
 342 452 342 452 324 452 c 0,5,6
 274 450 274 450 239.5 430.5 c 128,-1,7
 205 411 205 411 184.5 378.5 c 128,-1,8
 164 346 164 346 156 306 c 128,-1,9
 148 266 148 266 153 224 c 0,10,11
 160 150 160 150 199.5 100 c 128,-1,12
 239 50 239 50 314 47 c 0,13,14
 376 44 376 44 418.5 67.5 c 128,-1,15
 461 91 461 91 494 122 c 1,16,-1
 494 125 l 2,17,18
 494 175 494 175 494 210 c 128,-1,19
 494 245 494 245 494 270.5 c 128,-1,20
 494 296 494 296 494 316.5 c 128,-1,21
 494 337 494 337 494 359 c 1,0,1
568 131 m 2,22,23
 569 106 569 106 578.5 84.5 c 128,-1,24
 588 63 588 63 618 41 c 1,25,26
 604 25 604 25 591 14.5 c 128,-1,27
 578 4 578 4 566 -4 c 1,28,29
 544 3 544 3 528 21.5 c 128,-1,30
 512 40 512 40 502 62 c 1,31,32
 452 28 452 28 408 12 c 128,-1,33
 364 -4 364 -4 304 -4 c 0,34,35
 258 -4 258 -4 218.5 14 c 128,-1,36
 179 32 179 32 149 63 c 128,-1,37
 119 94 119 94 99 135 c 128,-1,38
 79 176 79 176 75 220 c 0,39,40
 69 270 69 270 83.5 321.5 c 128,-1,41
 98 373 98 373 129.5 414.5 c 128,-1,42
 161 456 161 456 211 482.5 c 128,-1,43
 261 509 261 509 326 508 c 0,44,45
 336 508 336 508 358.5 504 c 128,-1,46
 381 500 381 500 406 493 c 128,-1,47
 431 486 431 486 455.5 472 c 128,-1,48
 480 458 480 458 494 439 c 1,49,-1
 494 697 l 1,50,-1
 568 697 l 1,51,-1
 568 131 l 2,22,23
EndSplineSet
EndChar
StartChar: e
Encoding: 326 101 70
Width: 635
VWidth: 1467
Flags: W
HStem: 220 56<169 402.888 402.888 438.28 438.28 452> 457.5 52.5<248.1 376.023>
VStem: 97 72<142.432 220 276 390.279>
Fore
179 28 m 2,0,1
 167 32 167 32 152.5 44 c 128,-1,2
 138 56 138 56 125.5 75 c 128,-1,3
 113 94 113 94 105 122 c 128,-1,4
 97 150 97 150 97 188 c 2,5,-1
 97 361 l 2,6,7
 97 399 97 399 121 427.5 c 128,-1,8
 145 456 145 456 179 475 c 0,9,10
 207 492 207 492 243.5 500.5 c 128,-1,11
 280 509 280 509 319.5 510 c 128,-1,12
 359 511 359 511 398 502.5 c 128,-1,13
 437 494 437 494 470 475 c 256,14,15
 502 456 502 456 524 421.5 c 128,-1,16
 546 387 546 387 549 349 c 0,17,18
 552 307 552 307 541 281 c 128,-1,19
 530 255 530 255 503.5 242 c 128,-1,20
 477 229 477 229 433.5 224.5 c 128,-1,21
 390 220 390 220 327 220 c 2,22,-1
 169 220 l 1,23,-1
 169 167 l 2,24,25
 169 147 169 147 175.5 132 c 128,-1,26
 182 117 182 117 192 106 c 128,-1,27
 202 95 202 95 214.5 87 c 128,-1,28
 227 79 227 79 239 72 c 0,29,30
 266 57 266 57 301.5 50.5 c 128,-1,31
 337 44 337 44 374.5 49 c 128,-1,32
 412 54 412 54 446.5 73 c 128,-1,33
 481 92 481 92 503 129 c 1,34,-1
 547 97 l 1,35,36
 525 53 525 53 478 28.5 c 128,-1,37
 431 4 431 4 377 -3 c 128,-1,38
 323 -10 323 -10 269.5 -2 c 128,-1,39
 216 6 216 6 179 28 c 2,0,1
436 425 m 0,40,41
 384 459 384 459 332 457.5 c 128,-1,42
 280 456 280 456 239 431 c 0,43,44
 210 414 210 414 189.5 391 c 128,-1,45
 169 368 169 368 169 336 c 2,46,-1
 169 276 l 1,47,-1
 327 276 l 2,48,49
 373 276 373 276 403 276 c 128,-1,50
 433 276 433 276 452 280.5 c 128,-1,51
 471 285 471 285 478.5 296 c 128,-1,52
 486 307 486 307 486 329 c 0,53,54
 484 357 484 357 471 384 c 128,-1,55
 458 411 458 411 436 425 c 0,40,41
EndSplineSet
EndChar
StartChar: f
Encoding: 327 102 71
Width: 412
VWidth: 1467
Flags: W
HStem: 443 54<173 311> 643 52<260.622 337>
VStem: 48 289<-26 695 -19 46.1533> 100 73<48.1287 443 497 562.153>
Fore
311 443 m 1,0,-1
 173 443 l 1,1,-1
 173 136 l 1,2,-1
 173 22 l 1,3,4
 167 -9 167 -9 148 -34.5 c 128,-1,5
 129 -60 129 -60 100 -72 c 1,6,7
 88 -63 88 -63 75.5 -53 c 128,-1,8
 63 -43 63 -43 48 -26 c 1,9,10
 85 1 85 1 92.5 29 c 128,-1,11
 100 57 100 57 100 92 c 2,12,-1
 100 490 l 2,13,14
 100 607 100 607 151 652 c 128,-1,15
 202 697 202 697 313 695 c 2,16,-1
 337 695 l 1,17,-1
 337 643 l 1,18,-1
 310 643 l 2,19,20
 264 643 264 643 236 634 c 128,-1,21
 208 625 208 625 194 607.5 c 128,-1,22
 180 590 180 590 176 563 c 128,-1,23
 172 536 172 536 173 497 c 1,24,-1
 311 497 l 1,25,-1
 311 443 l 1,0,-1
EndSplineSet
EndChar
StartChar: g
Encoding: 328 103 72
Width: 657
VWidth: 1467
Flags: W
HStem: -219 58<305 402.47> 0 54<227.582 347.315> 459 53<221.344 394.529>
VStem: 481 74<-85.6691 67 147 386>
Fore
313 54 m 0,0,1
 368 53 368 53 410 78.5 c 128,-1,2
 452 104 452 104 481 147 c 1,3,-1
 481 386 l 1,4,5
 447 417 447 417 405.5 439.5 c 128,-1,6
 364 462 364 462 301 459 c 0,7,8
 226 456 226 456 186.5 407 c 128,-1,9
 147 358 147 358 139 283 c 0,10,11
 135 241 135 241 143 201 c 128,-1,12
 151 161 151 161 171.5 129 c 128,-1,13
 192 97 192 97 226.5 76.5 c 128,-1,14
 261 56 261 56 313 54 c 0,0,1
349 -161 m 2,15,16
 393 -161 393 -161 420 -154 c 128,-1,17
 447 -147 447 -147 461 -130 c 128,-1,18
 475 -113 475 -113 479 -86.5 c 128,-1,19
 483 -60 483 -60 481 -22 c 2,20,-1
 481 67 l 1,21,22
 467 48 467 48 443.5 35 c 128,-1,23
 420 22 420 22 395 14.5 c 128,-1,24
 370 7 370 7 348 3.5 c 128,-1,25
 326 0 326 0 315 0 c 0,26,27
 251 0 251 0 202 26.5 c 128,-1,28
 153 53 153 53 120.5 94 c 128,-1,29
 88 135 88 135 73.5 186.5 c 128,-1,30
 59 238 59 238 63 288 c 0,31,32
 67 332 67 332 85 373.5 c 128,-1,33
 103 415 103 415 131.5 446.5 c 128,-1,34
 160 478 160 478 200.5 496.5 c 128,-1,35
 241 515 241 515 291 512 c 0,36,37
 349 509 349 509 396 495 c 128,-1,38
 443 481 443 481 490 445 c 1,39,40
 509 493 509 493 553 512 c 1,41,42
 565 503 565 503 578 492 c 128,-1,43
 591 481 591 481 606 467 c 1,44,45
 575 445 575 445 565.5 423.5 c 128,-1,46
 556 402 556 402 555 377 c 2,47,-1
 555 -21 l 2,48,49
 555 -134 555 -134 504 -176.5 c 128,-1,50
 453 -219 453 -219 348 -219 c 2,51,-1
 305 -219 l 1,52,-1
 305 -161 l 1,53,-1
 349 -161 l 2,15,16
EndSplineSet
EndChar
StartChar: h
Encoding: 329 104 73
Width: 630
VWidth: 1467
Flags: W
HStem: 0 21G<103.85 178 460.774 531> 446 62<265.944 402.373>
VStem: 100 75<0 237.257 374.719 540.758 540.758 579.18> 461 70<0 321.47>
Fore
173 597 m 1,0,1
 173 541 173 541 174 484.5 c 128,-1,2
 175 428 175 428 175 373 c 1,3,4
 197 450 197 450 243 479 c 128,-1,5
 289 508 289 508 371 508 c 0,6,7
 411 508 411 508 441 491.5 c 128,-1,8
 471 475 471 475 490 448 c 128,-1,9
 509 421 509 421 518.5 383.5 c 128,-1,10
 528 346 528 346 528 304 c 2,11,-1
 531 0 l 1,12,-1
 461 0 l 1,13,-1
 458 266 l 2,14,15
 458 302 458 302 452.5 335 c 128,-1,16
 447 368 447 368 434 393 c 128,-1,17
 421 418 421 418 397 432 c 128,-1,18
 373 446 373 446 335 446 c 0,19,20
 291 446 291 446 260.5 420.5 c 128,-1,21
 230 395 230 395 210.5 356 c 128,-1,22
 191 317 191 317 183 269.5 c 128,-1,23
 175 222 175 222 175 178 c 2,24,-1
 178 0 l 1,25,-1
 104 0 l 1,26,-1
 100 533 l 2,27,28
 100 568 100 568 93.5 595 c 128,-1,29
 87 622 87 622 48 651 c 1,30,-1
 100 697 l 1,31,32
 103 698 103 698 107 694 c 2,33,34
 132 682 132 682 150.5 654 c 128,-1,35
 169 626 169 626 173 597 c 1,0,1
EndSplineSet
EndChar
StartChar: i
Encoding: 330 105 74
Width: 278
VWidth: 1467
Flags: W
HStem: 556 141<91.5642 172.014>
VStem: 73 115<578.174 678.857> 100 73<92.6981 481>
Fore
100 481 m 1,0,-1
 173 481 l 1,1,-1
 173 135 l 2,2,3
 173 101 173 101 180.5 74.5 c 128,-1,4
 188 48 188 48 224 21 c 1,5,-1
 173 -25 l 1,6,7
 170 -26 170 -26 168.5 -24 c 128,-1,8
 167 -22 167 -22 166 -22 c 1,9,10
 141 -9 141 -9 122.5 19 c 128,-1,11
 104 47 104 47 100 76 c 1,12,-1
 100 481 l 1,0,-1
134 697 m 1,13,14
 157 700 157 700 172.5 679.5 c 128,-1,15
 188 659 188 659 188 628 c 0,16,17
 188 599 188 599 172.5 577.5 c 128,-1,18
 157 556 157 556 134 556 c 0,19,20
 107 556 107 556 89.5 577.5 c 128,-1,21
 72 599 72 599 73 628 c 0,22,23
 73 659 73 659 91 679.5 c 128,-1,24
 109 700 109 700 134 697 c 1,13,14
EndSplineSet
EndChar
StartChar: j
Encoding: 331 106 75
Width: 353
VWidth: 1467
Flags: W
HStem: -222 58<3 97.4705> 556 141<168.049 248.014>
VStem: 150 114<578.174 678.857> 176 72<-88.6691 483>
Fore
175 483 m 1,0,-1
 248 483 l 1,1,-1
 248 -23 l 2,2,3
 248 -136 248 -136 198 -179 c 128,-1,4
 148 -222 148 -222 45 -222 c 2,5,-1
 3 -222 l 1,6,-1
 3 -164 l 1,7,-1
 44 -164 l 2,8,9
 88 -164 88 -164 115 -157 c 128,-1,10
 142 -150 142 -150 156 -133 c 128,-1,11
 170 -116 170 -116 174 -89.5 c 128,-1,12
 178 -63 178 -63 176 -25 c 2,13,-1
 175 483 l 1,0,-1
210 697 m 1,14,15
 233 700 233 700 248.5 679.5 c 128,-1,16
 264 659 264 659 264 628 c 0,17,18
 264 599 264 599 248.5 577.5 c 128,-1,19
 233 556 233 556 210 556 c 0,20,21
 183 556 183 556 165.5 577.5 c 128,-1,22
 148 599 148 599 150 628 c 0,23,24
 150 659 150 659 167.5 679.5 c 128,-1,25
 185 700 185 700 210 697 c 1,14,15
EndSplineSet
EndChar
StartChar: k
Encoding: 332 107 76
Width: 595
VWidth: 1467
Flags: W
HStem: 1 21G<102.888 176 425 499> 476 20G<384.378 496> 678 20G<76.8889 114.5>
VStem: 48 451<160 653 924 1233.3> 103 70<0 178 271 580.302> 425 74<1 198.254>
Fore
496 496 m 1,0,-1
 340 343 l 1,1,2
 371 339 371 339 399.5 328 c 128,-1,3
 428 317 428 317 450 295.5 c 128,-1,4
 472 274 472 274 485.5 241 c 128,-1,5
 499 208 499 208 499 160 c 2,6,-1
 499 1 l 1,7,-1
 425 1 l 1,8,-1
 425 158 l 2,9,10
 425 198 425 198 414 223 c 128,-1,11
 403 248 403 248 384 263.5 c 128,-1,12
 365 279 365 279 341 285.5 c 128,-1,13
 317 292 317 292 292 295 c 1,14,-1
 173 178 l 1,15,-1
 176 0 l 1,16,-1
 103 0 l 1,17,-1
 100 538 l 2,18,19
 100 572 100 572 92.5 598.5 c 128,-1,20
 85 625 85 625 48 653 c 1,21,-1
 100 698 l 1,22,23
 129 687 129 687 148 657.5 c 128,-1,24
 167 628 167 628 173 599 c 1,25,-1
 173 271 l 1,26,-1
 405 496 l 1,27,-1
 496 496 l 1,0,-1
EndSplineSet
EndChar
StartChar: l
Encoding: 333 108 77
Width: 278
VWidth: 1467
Flags: W
HStem: -29 21G<158.5 195.667>
VStem: 100 73<65.2357 70 103 578.85>
Fore
173 117 m 1,0,1
 175 88 175 88 183 64.5 c 128,-1,2
 191 41 191 41 224 16 c 1,3,-1
 173 -29 l 1,4,5
 144 -18 144 -18 124 11.5 c 128,-1,6
 104 41 104 41 100 70 c 1,7,-1
 100 103 l 1,8,-1
 100 537 l 2,9,10
 100 571 100 571 92.5 596.5 c 128,-1,11
 85 622 85 622 48 651 c 1,12,-1
 100 695 l 1,13,14
 129 685 129 685 148 655 c 128,-1,15
 167 625 167 625 173 596 c 1,16,-1
 173 117 l 1,0,1
EndSplineSet
EndChar
StartChar: m
Encoding: 334 109 78
Width: 760
VWidth: 1467
Flags: W
HStem: -31 21G<102 178 340 417 639.5 676.609> 443 60.5<264 294.523 468.469 508.133>
VStem: 100 73<0 40.6384 40.6384 87.2913 87.2913 114.335 114.335 175.577 175.577 253.219> 340 77<-1 349.169> 581 73<82.125 305.427 305.427 349.092 349.092 376.102>
Fore
101 343 m 2,0,1
 101 377 101 377 94 402 c 128,-1,2
 87 427 87 427 50 455 c 1,3,-1
 101 500 l 1,4,5
 126 492 126 492 143.5 469 c 128,-1,6
 161 446 161 446 169 421 c 1,7,8
 189 464 189 464 216 486 c 0,9,10
 239 505 239 505 274.5 503.5 c 128,-1,11
 310 502 310 502 332 486 c 0,12,13
 352 472 352 472 366 448.5 c 128,-1,14
 380 425 380 425 392 396 c 1,15,16
 418 459 418 459 453 486 c 0,17,18
 465 494 465 494 485 498.5 c 128,-1,19
 505 503 505 503 527 502.5 c 128,-1,20
 549 502 549 502 568.5 497.5 c 128,-1,21
 588 493 588 493 600 486 c 0,22,23
 637 462 637 462 645.5 413 c 128,-1,24
 654 364 654 364 654 302 c 2,25,-1
 654 132 l 2,26,27
 654 98 654 98 660 66 c 128,-1,28
 666 34 666 34 706 15 c 1,29,-1
 654 -31 l 1,30,31
 625 -19 625 -19 604.5 7.5 c 128,-1,32
 584 34 584 34 581 69 c 2,33,-1
 581 279 l 2,34,35
 581 311 581 311 581.5 331.5 c 128,-1,36
 582 352 582 352 581 366.5 c 128,-1,37
 580 381 580 381 574.5 393.5 c 128,-1,38
 569 406 569 406 559 424 c 0,39,40
 543 450 543 450 512 448 c 128,-1,41
 481 446 481 446 464 420 c 0,42,43
 445 393 445 393 432.5 350.5 c 128,-1,44
 420 308 420 308 417 255 c 2,45,-1
 417 -1 l 1,46,-1
 340 -1 l 1,47,-1
 340 279 l 2,48,49
 340 340 340 340 334.5 371.5 c 128,-1,50
 329 403 329 403 313 424 c 0,51,52
 293 449 293 449 264 443 c 128,-1,53
 235 437 235 437 217 411 c 0,54,55
 182 359 182 359 175 254 c 0,56,57
 173 229 173 229 173 203.5 c 128,-1,58
 173 178 173 178 174 147.5 c 128,-1,59
 175 117 175 117 176.5 81 c 128,-1,60
 178 45 178 45 178 0 c 1,61,-1
 104 0 l 1,62,63
 100 120 100 120 100 245 c 2,64,-1
 101 343 l 2,0,1
EndSplineSet
EndChar
StartChar: n
Encoding: 335 110 79
Width: 620
VWidth: 1467
Flags: W
HStem: -28 21G<100 170 501.5 538.609> 483 20G<77.4444 116 309 364.5>
VStem: 100 75<1 3 3 240.313 342 387.85> 443 73<85.125 348.797>
Fore
100 346 m 1,0,1
 100 380 100 380 92.5 405.5 c 128,-1,2
 85 431 85 431 48 458 c 1,3,-1
 101 503 l 1,4,5
 131 492 131 492 150 462.5 c 128,-1,6
 169 433 169 433 175 403 c 1,7,-1
 175 342 l 1,8,9
 201 420 201 420 237 464.5 c 128,-1,10
 273 509 273 509 345 509 c 0,11,12
 384 509 384 509 416.5 493 c 128,-1,13
 449 477 449 477 471 449 c 128,-1,14
 493 421 493 421 504.5 383.5 c 128,-1,15
 516 346 516 346 516 305 c 2,16,-1
 516 135 l 2,17,18
 516 101 516 101 522 69 c 128,-1,19
 528 37 528 37 568 18 c 1,20,-1
 516 -28 l 1,21,22
 487 -16 487 -16 466.5 10.5 c 128,-1,23
 446 37 446 37 443 72 c 2,24,-1
 443 282 l 2,25,26
 443 362 443 362 415 407.5 c 128,-1,27
 387 453 387 453 329 449 c 0,28,29
 296 446 296 446 270.5 416 c 128,-1,30
 245 386 245 386 225 341 c 128,-1,31
 205 296 205 296 192 242 c 128,-1,32
 179 188 179 188 175 138 c 2,33,-1
 175 3 l 1,34,-1
 170 3 l 1,35,-1
 170 1 l 1,36,-1
 100 1 l 1,37,-1
 100 3 l 1,38,-1
 100 346 l 1,0,1
EndSplineSet
EndChar
StartChar: o
Encoding: 336 111 80
Width: 677
VWidth: 1467
Flags: W
HStem: -12.5 47<257.642 414.358> 458 51<254.564 417.936>
VStem: 97.5 74.5<111.612 194.239 194.239 250.788 250.788 305.488 305.488 343> 503 72<115.506 239.877 239.877 269.146 269.146 378.683>
Fore
97 326 m 1,0,1
 97 387 97 387 133 427.5 c 128,-1,2
 169 468 169 468 222.5 488.5 c 128,-1,3
 276 509 276 509 337.5 509 c 128,-1,4
 399 509 399 509 452 488.5 c 128,-1,5
 505 468 505 468 540 427.5 c 128,-1,6
 575 387 575 387 575 326 c 0,7,8
 575 292 575 292 575 275 c 128,-1,9
 575 258 575 258 575 251 c 128,-1,10
 575 244 575 244 575 241 c 128,-1,11
 575 238 575 238 575 232 c 128,-1,12
 575 226 575 226 575 213 c 128,-1,13
 575 200 575 200 575 170 c 0,14,15
 574 109 574 109 539.5 68.5 c 128,-1,16
 505 28 505 28 452 7.5 c 128,-1,17
 399 -13 399 -13 338 -12.5 c 128,-1,18
 277 -12 277 -12 224.5 8 c 128,-1,19
 172 28 172 28 136.5 69 c 128,-1,20
 101 110 101 110 100 170 c 0,21,22
 100 186 100 186 99 219 c 128,-1,23
 98 252 98 252 97.5 282.5 c 128,-1,24
 97 313 97 313 97 328 c 128,-1,25
 97 343 97 343 97 326 c 1,0,1
172 293 m 2,26,-1
 172 200 l 2,27,28
 172 144 172 144 196 107 c 128,-1,29
 220 70 220 70 256.5 52 c 128,-1,30
 293 34 293 34 336 34.5 c 128,-1,31
 379 35 379 35 415.5 53.5 c 128,-1,32
 452 72 452 72 477 108.5 c 128,-1,33
 502 145 502 145 503 200 c 0,34,35
 503 222 503 222 503 226 c 128,-1,36
 503 230 503 230 503 233 c 128,-1,37
 503 236 503 236 502.5 247 c 128,-1,38
 502 258 502 258 502 292 c 0,39,40
 502 348 502 348 477 384.5 c 128,-1,41
 452 421 452 421 415.5 439.5 c 128,-1,42
 379 458 379 458 336 458 c 128,-1,43
 293 458 293 458 256.5 439.5 c 128,-1,44
 220 421 220 421 196 384.5 c 128,-1,45
 172 348 172 348 172 293 c 2,26,-1
EndSplineSet
EndChar
StartChar: p
Encoding: 337 112 81
Width: 683
VWidth: 1467
Flags: W
HStem: -6 63<283.443 426.749> 446 60<298.442 433.628>
VStem: 100 73<-183 63 164 371>
Fore
342 57 m 0,0,1
 392 59 392 59 426.5 78 c 128,-1,2
 461 97 461 97 480.5 127 c 128,-1,3
 500 157 500 157 507 196 c 128,-1,4
 514 235 514 235 509 277 c 0,5,6
 502 352 502 352 465 397.5 c 128,-1,7
 428 443 428 443 354 446 c 0,8,9
 291 449 291 449 249 425.5 c 128,-1,10
 207 402 207 402 173 371 c 1,11,-1
 173 164 l 1,12,13
 194 119 194 119 237 90.5 c 128,-1,14
 280 62 280 62 342 57 c 0,0,1
100 371 m 2,15,16
 98 396 98 396 88.5 417.5 c 128,-1,17
 79 439 79 439 48 461 c 1,18,19
 63 477 63 477 76 487 c 128,-1,20
 89 497 89 497 101 506 c 1,21,22
 145 487 145 487 164 440 c 1,23,24
 182 453 182 453 198 465.5 c 128,-1,25
 214 478 214 478 235.5 487 c 128,-1,26
 257 496 257 496 287.5 501 c 128,-1,27
 318 506 318 506 364 506 c 256,28,29
 409 506 409 506 449.5 488 c 128,-1,30
 490 470 490 470 520 439 c 128,-1,31
 550 408 550 408 569 367 c 128,-1,32
 588 326 588 326 591 282 c 0,33,34
 596 232 596 232 580.5 181.5 c 128,-1,35
 565 131 565 131 532.5 89 c 128,-1,36
 500 47 500 47 451.5 20.5 c 128,-1,37
 403 -6 403 -6 342 -6 c 0,38,39
 330 -6 330 -6 308 -2.5 c 128,-1,40
 286 1 286 1 260.5 8.5 c 128,-1,41
 235 16 235 16 211.5 29.5 c 128,-1,42
 188 43 188 43 173 63 c 1,43,-1
 173 -183 l 1,44,-1
 100 -183 l 1,45,-1
 100 371 l 2,15,16
EndSplineSet
EndChar
StartChar: q
Encoding: 338 113 82
Width: 667
VWidth: 1467
Flags: W
HStem: -226 21G<545.5 582.609> -6 71<233.582 350.8> 486 20G<273.5 319 548 565>
VStem: 487 73<-107.264 63 150 376>
Fore
317 65 m 0,0,1
 425 65 425 65 487 150 c 1,2,-1
 487 373 l 1,3,-1
 487 376 l 1,4,5
 453 406 453 406 410 429.5 c 128,-1,6
 367 453 367 453 307 442 c 0,7,8
 233 427 233 427 197 383 c 128,-1,9
 161 339 161 339 151 277 c 0,10,11
 144 236 144 236 150.5 198 c 128,-1,12
 157 160 157 160 177.5 131.5 c 128,-1,13
 198 103 198 103 232.5 84.5 c 128,-1,14
 267 66 267 66 317 65 c 0,0,1
487 63 m 1,15,16
 472 43 472 43 448 30.5 c 128,-1,17
 424 18 424 18 399 9.5 c 128,-1,18
 374 1 374 1 351.5 -2.5 c 128,-1,19
 329 -6 329 -6 318 -6 c 0,20,21
 254 -9 254 -9 204 17 c 128,-1,22
 154 43 154 43 121 84.5 c 128,-1,23
 88 126 88 126 74 178 c 128,-1,24
 60 230 60 230 67 282 c 0,25,26
 73 326 73 326 93 366 c 128,-1,27
 113 406 113 406 142.5 438 c 128,-1,28
 172 470 172 470 211.5 488 c 128,-1,29
 251 506 251 506 296 506 c 256,30,31
 342 506 342 506 373.5 500 c 128,-1,32
 405 494 405 494 428.5 484.5 c 128,-1,33
 452 475 452 475 467.5 463.5 c 128,-1,34
 483 452 483 452 496 440 c 1,35,36
 505 462 505 462 521 479.5 c 128,-1,37
 537 497 537 497 559 506 c 1,38,39
 571 497 571 497 584 487 c 128,-1,40
 597 477 597 477 610 461 c 1,41,42
 581 439 581 439 571.5 417.5 c 128,-1,43
 562 396 562 396 560 371 c 2,44,-1
 560 -62 l 2,45,46
 560 -97 560 -97 567 -124 c 128,-1,47
 574 -151 574 -151 612 -180 c 1,48,-1
 560 -226 l 1,49,50
 531 -214 531 -214 511.5 -185 c 128,-1,51
 492 -156 492 -156 487 -126 c 1,52,-1
 487 63 l 1,15,16
EndSplineSet
EndChar
StartChar: r
Encoding: 339 114 83
Width: 404
VWidth: 1467
Flags: W
HStem: 440 59<245.301 337>
VStem: 100 73<76.1287 97.7577 97.7577 120 120 179.242 179.242 275.142 414 497>
Fore
175 220 m 0,0,1
 175 179 175 179 174 138.5 c 128,-1,2
 173 98 173 98 173 57 c 0,3,4
 173 45 173 45 166.5 30 c 128,-1,5
 160 15 160 15 150.5 1 c 128,-1,6
 141 -13 141 -13 127.5 -25.5 c 128,-1,7
 114 -38 114 -38 100 -43 c 1,8,-1
 48 1 l 1,9,10
 85 29 85 29 92.5 57 c 128,-1,11
 100 85 100 85 100 120 c 2,12,-1
 100 497 l 1,13,-1
 173 497 l 1,14,-1
 173 414 l 1,15,16
 195 452 195 452 229 475.5 c 128,-1,17
 263 499 263 499 313 499 c 2,18,-1
 337 499 l 1,19,-1
 337 440 l 1,20,-1
 311 440 l 2,21,22
 270 440 270 440 244.5 419.5 c 128,-1,23
 219 399 219 399 203.5 367.5 c 128,-1,24
 188 336 188 336 181.5 297 c 128,-1,25
 175 258 175 258 175 220 c 0,0,1
EndSplineSet
EndChar
StartChar: s
Encoding: 340 115 84
Width: 550
VWidth: 1467
Flags: W
HStem: -11 44.5<217.915 244.674 244.674 273.592> 459 53<231.367 305.649>
VStem: 73 77<316.844 397.83> 406 75<97.3438 185.735>
Fore
406 134 m 0,0,1
 403 172 403 172 378.5 191.5 c 128,-1,2
 354 211 354 211 318 221.5 c 128,-1,3
 282 232 282 232 240 238 c 128,-1,4
 198 244 198 244 161.5 257 c 128,-1,5
 125 270 125 270 100 295 c 128,-1,6
 75 320 75 320 73 367 c 0,7,8
 72 403 72 403 90.5 430.5 c 128,-1,9
 109 458 109 458 138 476 c 128,-1,10
 167 494 167 494 203 503 c 128,-1,11
 239 512 239 512 271 512 c 0,12,13
 298 512 298 512 326.5 506 c 128,-1,14
 355 500 355 500 380 487 c 128,-1,15
 405 474 405 474 422.5 454 c 128,-1,16
 440 434 440 434 443 406 c 1,17,-1
 384 406 l 1,18,19
 379 424 379 424 365 434.5 c 128,-1,20
 351 445 351 445 334 450.5 c 128,-1,21
 317 456 317 456 299.5 457.5 c 128,-1,22
 282 459 282 459 267 459 c 0,23,24
 246 459 246 459 225 454 c 128,-1,25
 204 449 204 449 187 438 c 128,-1,26
 170 427 170 427 159 409.5 c 128,-1,27
 148 392 148 392 150 367 c 0,28,29
 151 330 151 330 176 313 c 128,-1,30
 201 296 201 296 237 286.5 c 128,-1,31
 273 277 273 277 315 271.5 c 128,-1,32
 357 266 357 266 393.5 252 c 128,-1,33
 430 238 430 238 454 210.5 c 128,-1,34
 478 183 478 183 481 134 c 0,35,36
 483 94 483 94 463 65.5 c 128,-1,37
 443 37 443 37 411.5 19 c 128,-1,38
 380 1 380 1 342 -7.5 c 128,-1,39
 304 -16 304 -16 270 -16 c 0,40,41
 241 -16 241 -16 209.5 -11 c 128,-1,42
 178 -6 178 -6 148.5 7.5 c 128,-1,43
 119 21 119 21 93 42 c 128,-1,44
 67 63 67 63 53 97 c 1,45,-1
 123 97 l 1,46,47
 139 73 139 73 159.5 60 c 128,-1,48
 180 47 180 47 201.5 41 c 128,-1,49
 223 35 223 35 242 33.5 c 128,-1,50
 261 32 261 32 274 34 c 0,51,52
 302 37 302 37 327 42 c 128,-1,53
 352 47 352 47 370.5 58 c 128,-1,54
 389 69 389 69 398.5 87.5 c 128,-1,55
 408 106 408 106 406 134 c 0,0,1
EndSplineSet
EndChar
StartChar: t
Encoding: 341 116 85
Width: 412
VWidth: 1467
Flags: W
HStem: -3 53<257.784 324.453 324.547 337> 442 54<173 311>
VStem: 48 289<50 650 664.547 677> 100 73<132.393 442 496 555 600 600.249>
Fore
311 442 m 1,0,-1
 173 442 l 1,1,-1
 173 200 l 2,2,3
 172 160 172 160 175.5 131.5 c 128,-1,4
 179 103 179 103 193.5 85 c 128,-1,5
 208 67 208 67 235.5 58.5 c 128,-1,6
 263 50 263 50 310 50 c 2,7,-1
 337 50 l 1,8,-1
 337 -4 l 1,9,10
 330 -4 330 -4 328 -4 c 128,-1,11
 326 -4 326 -4 324.5 -3.5 c 128,-1,12
 323 -3 323 -3 321.5 -3 c 128,-1,13
 320 -3 320 -3 313 -3 c 0,14,15
 257 -3 257 -3 217.5 6.5 c 128,-1,16
 178 16 178 16 151.5 40.5 c 128,-1,17
 125 65 125 65 112.5 103.5 c 128,-1,18
 100 142 100 142 100 201 c 2,19,-1
 100 547 l 2,20,21
 98 577 98 577 90 601 c 128,-1,22
 82 625 82 625 48 650 c 1,23,24
 62 665 62 665 75 676 c 128,-1,25
 88 687 88 687 100 695 c 1,26,27
 129 684 129 684 147.5 657.5 c 128,-1,28
 166 631 166 631 172 600 c 1,29,-1
 172 555 l 1,30,-1
 173 555 l 1,31,-1
 173 496 l 1,32,-1
 311 496 l 1,33,-1
 311 442 l 1,0,-1
EndSplineSet
EndChar
StartChar: u
Encoding: 342 117 86
Width: 657
VWidth: 1467
Flags: W
HStem: -13 51<285.497 370.781> 479 20G<100 172 472 544>
VStem: 100 72<121.941 175 175 499> 472 72<124.909 145 145 499>
Fore
544 499 m 1,0,-1
 544 145 l 2,1,2
 544 110 544 110 551 82 c 128,-1,3
 558 54 558 54 596 25 c 1,4,5
 569 -1 569 -1 544 -19 c 1,6,7
 524 -12 524 -12 507 5.5 c 128,-1,8
 490 23 490 23 481 44 c 1,9,10
 447 15 447 15 404.5 1 c 128,-1,11
 362 -13 362 -13 321 -13 c 0,12,13
 285 -13 285 -13 246 -0.5 c 128,-1,14
 207 12 207 12 174.5 35.5 c 128,-1,15
 142 59 142 59 121 94 c 128,-1,16
 100 129 100 129 100 175 c 2,17,-1
 100 499 l 1,18,-1
 172 499 l 1,19,-1
 172 194 l 2,20,21
 172 151 172 151 185 121 c 128,-1,22
 198 91 198 91 220 72.5 c 128,-1,23
 242 54 242 54 269 46 c 128,-1,24
 296 38 296 38 326 38 c 0,25,26
 354 40 354 40 380 48.5 c 128,-1,27
 406 57 406 57 426.5 76 c 128,-1,28
 447 95 447 95 459.5 124 c 128,-1,29
 472 153 472 153 472 194 c 2,30,-1
 472 499 l 1,31,-1
 544 499 l 1,0,-1
EndSplineSet
EndChar
StartChar: v
Encoding: 343 118 87
Width: 520
VWidth: 1467
Flags: W
HStem: -10 60<236.464 286.892> 476 20G<59 136.286 387.893 459>
VStem: 59 400<479.636 496 496 496 496 496>
Fore
386 151 m 2,0,1
 379 122 379 122 368 93.5 c 128,-1,2
 357 65 357 65 341.5 42 c 128,-1,3
 326 19 326 19 306 4.5 c 128,-1,4
 286 -10 286 -10 261 -10 c 0,5,6
 213 -10 213 -10 183.5 29.5 c 128,-1,7
 154 69 154 69 136 136 c 2,8,-1
 59 496 l 1,9,-1
 132 496 l 1,10,-1
 204 160 l 2,11,12
 205 153 205 153 210.5 134.5 c 128,-1,13
 216 116 216 116 222.5 97 c 128,-1,14
 229 78 229 78 238.5 64 c 128,-1,15
 248 50 248 50 261 50 c 256,16,17
 274 50 274 50 284.5 64 c 128,-1,18
 295 78 295 78 303 96 c 128,-1,19
 311 114 311 114 316 132.5 c 128,-1,20
 321 151 321 151 323 160 c 2,21,-1
 392 496 l 1,22,-1
 459 496 l 1,23,-1
 386 151 l 2,0,1
EndSplineSet
EndChar
StartChar: w
Encoding: 344 119 88
Width: 735
VWidth: 1467
Flags: W
HStem: -3 21G<147.48 234 495.5 575.88> 477 20G<63 138.953 586 669>
Fore
151 -3 m 1,0,-1
 63 497 l 1,1,-1
 135 497 l 1,2,-1
 220 67 l 1,3,4
 244 81 244 81 264.5 114 c 128,-1,5
 285 147 285 147 302.5 191 c 128,-1,6
 320 235 320 235 336 285.5 c 128,-1,7
 352 336 352 336 367 386 c 1,8,9
 384 337 384 337 399 286.5 c 128,-1,10
 414 236 414 236 430 193 c 128,-1,11
 446 150 446 150 464.5 117 c 128,-1,12
 483 84 483 84 508 69 c 1,13,14
 525 160 525 160 550 272 c 128,-1,15
 575 384 575 384 597 497 c 1,16,-1
 669 497 l 1,17,-1
 572 -3 l 1,18,-1
 511 -3 l 1,19,20
 480 13 480 13 459.5 31.5 c 128,-1,21
 439 50 439 50 423.5 75 c 128,-1,22
 408 100 408 100 394.5 133.5 c 128,-1,23
 381 167 381 167 368 214 c 1,24,25
 355 167 355 167 340.5 134 c 128,-1,26
 326 101 326 101 308.5 76 c 128,-1,27
 291 51 291 51 269.5 32 c 128,-1,28
 248 13 248 13 220 -3 c 1,29,-1
 151 -3 l 1,0,-1
EndSplineSet
EndChar
StartChar: x
Encoding: 345 120 89
Width: 603
VWidth: 1467
Flags: W
HStem: 0 496<138 550 138 138>
Fore
138 496 m 1,0,-1
 299 298 l 1,1,-1
 461 496 l 1,2,-1
 547 496 l 1,3,-1
 355 248 l 1,4,-1
 550 0 l 1,5,-1
 464 0 l 1,6,-1
 299 200 l 1,7,-1
 141 0 l 1,8,-1
 54 0 l 1,9,-1
 248 248 l 1,10,-1
 51 496 l 1,11,-1
 138 496 l 1,0,-1
EndSplineSet
EndChar
StartChar: y
Encoding: 346 121 90
Width: 661
VWidth: 1467
Flags: W
HStem: -242 57<295 393.209> -15 53<285.497 358.934> 477 20<100 172 529.5 550>
VStem: 100 72<121.425 497> 471 73<-107.016 37 124.424 389.599>
Fore
471 37 m 1,0,1
 439 12 439 12 399 -1.5 c 128,-1,2
 359 -15 359 -15 321 -15 c 0,3,4
 285 -15 285 -15 246 -2.5 c 128,-1,5
 207 10 207 10 174.5 33.5 c 128,-1,6
 142 57 142 57 121 92.5 c 128,-1,7
 100 128 100 128 100 175 c 2,8,-1
 100 497 l 1,9,-1
 172 497 l 1,10,-1
 172 192 l 2,11,12
 172 150 172 150 185 120.5 c 128,-1,13
 198 91 198 91 220 72.5 c 128,-1,14
 242 54 242 54 269 46 c 128,-1,15
 296 38 296 38 326 38 c 0,16,17
 354 38 354 38 379.5 47.5 c 128,-1,18
 405 57 405 57 425.5 75.5 c 128,-1,19
 446 94 446 94 458.5 123.5 c 128,-1,20
 471 153 471 153 471 192 c 2,21,-1
 471 321 l 1,22,-1
 471 414 l 1,23,24
 477 445 477 445 496 471 c 128,-1,25
 515 497 515 497 544 509 c 1,26,27
 556 500 556 500 568.5 489 c 128,-1,28
 581 478 581 478 596 464 c 1,29,30
 558 434 558 434 551 406.5 c 128,-1,31
 544 379 544 379 544 345 c 2,32,-1
 544 -47 l 2,33,34
 543 -158 543 -158 493 -200 c 128,-1,35
 443 -242 443 -242 337 -242 c 2,36,-1
 295 -242 l 1,37,-1
 295 -185 l 1,38,-1
 339 -185 l 2,39,40
 383 -185 383 -185 409.5 -178.5 c 128,-1,41
 436 -172 436 -172 449 -156.5 c 128,-1,42
 462 -141 462 -141 466.5 -114 c 128,-1,43
 471 -87 471 -87 471 -45 c 2,44,-1
 471 6 l 1,45,-1
 471 37 l 1,0,1
EndSplineSet
EndChar
StartChar: z
Encoding: 347 122 91
Width: 625
VWidth: 1467
Flags: W
HStem: -1 64<180.867 536> 434 62<91 428>
VStem: 91 445<436 496>
Fore
536 63 m 1,0,-1
 536 -1 l 1,1,-1
 220 -1 l 2,2,3
 183 -1 183 -1 157.5 12 c 128,-1,4
 132 25 132 25 116 45 c 128,-1,5
 100 65 100 65 92 87.5 c 128,-1,6
 84 110 84 110 84 131 c 1,7,8
 91 138 91 138 118 161.5 c 128,-1,9
 145 185 145 185 181 215.5 c 128,-1,10
 217 246 217 246 257.5 281.5 c 128,-1,11
 298 317 298 317 334 348 c 128,-1,12
 370 379 370 379 395.5 402 c 128,-1,13
 421 425 421 425 428 434 c 1,14,-1
 91 434 l 1,15,-1
 91 496 l 1,16,-1
 536 496 l 5,17,-1
 536 436 l 1,18,-1
 163 103 l 1,19,20
 169 81 169 81 180.5 72 c 128,-1,21
 192 63 192 63 236 63 c 2,22,-1
 536 63 l 1,0,-1
EndSplineSet
EndChar
StartChar: braceleft
Encoding: 348 123 92
Width: 334
VWidth: 1467
Flags: W
HStem: 697 63<226.764 281.42>
VStem: 23 268<-122 311 522 788.973> 125 76<7.99646 261 364 630.973>
Fore
291 -122 m 1,0,1
 217 -119 217 -119 171 -48 c 128,-1,2
 125 23 125 23 125 153 c 2,3,-1
 125 261 l 1,4,5
 100 277 100 277 73.5 289.5 c 128,-1,6
 47 302 47 302 23 311 c 1,7,8
 72 330 72 330 125 364 c 1,9,-1
 125 486 l 2,10,11
 125 613 125 613 169 680.5 c 128,-1,12
 213 748 213 748 291 760 c 1,13,-1
 291 697 l 1,14,15
 236 681 236 681 218 632.5 c 128,-1,16
 200 584 200 584 201 487 c 2,17,-1
 201 371 l 1,18,-1
 201 365 l 2,19,20
 201 362 201 362 200.5 360.5 c 0,21,-1
 197 354 l 0,22,23
 194 349 194 349 188 343 c 0,24,25
 185 340 185 340 182 339 c 0,26,27
 176 335 176 335 164.5 332 c 128,-1,28
 153 329 153 329 140.5 325 c 128,-1,29
 128 321 128 321 116 318 c 128,-1,30
 104 315 104 315 98 314 c 1,31,32
 104 311 104 311 116 309 c 128,-1,33
 128 307 128 307 140.5 303 c 128,-1,34
 153 299 153 299 164.5 296 c 128,-1,35
 176 293 176 293 182 289 c 0,36,37
 183 288 183 288 186 286 c 256,38,39
 189 285 189 285 190.5 282.5 c 128,-1,40
 192 280 192 280 195 277 c 1,41,-1
 200 264 l 2,42,43
 201 260 201 260 201 257 c 2,44,-1
 201 151 l 2,45,46
 200 54 200 54 219.5 6.5 c 128,-1,47
 239 -41 239 -41 291 -59 c 1,48,-1
 291 -122 l 1,0,1
EndSplineSet
EndChar
StartChar: bar
Encoding: 349 124 93
Width: 296
VWidth: 1467
Flags: W
VStem: 103 88<-261 791>
Fore
103 -261 m 1,0,-1
 101 791 l 1,1,-1
 191 791 l 1,2,-1
 191 -261 l 1,3,-1
 103 -261 l 1,0,-1
EndSplineSet
EndChar
StartChar: braceright
Encoding: 350 125 94
Width: 331
VWidth: 1467
Flags: W
HStem: -119 63<23 76.5995>
VStem: 22 267<330 763 653 906.973> 112 76<10.0275 277 380 633.973>
Fore
22 763 m 1,0,1
 95 760 95 760 141.5 689 c 128,-1,2
 188 618 188 618 188 489 c 2,3,-1
 188 380 l 1,4,5
 213 364 213 364 239.5 351.5 c 128,-1,6
 266 339 266 339 289 330 c 1,7,8
 241 311 241 311 188 277 c 1,9,-1
 188 156 l 2,10,11
 188 28 188 28 144 -39.5 c 128,-1,12
 100 -107 100 -107 25 -119 c 1,13,-1
 23 -56 l 1,14,15
 76 -40 76 -40 94 8.5 c 128,-1,16
 112 57 112 57 110 154 c 2,17,-1
 112 270 l 1,18,-1
 112 276 l 2,19,20
 112 280 112 280 116 288 c 0,21,22
 117 291 117 291 119.5 293 c 128,-1,23
 122 295 122 295 125 298 c 256,24,25
 128 301 128 301 131 302 c 0,26,27
 136 307 136 307 148 310 c 128,-1,28
 160 313 160 313 172.5 316.5 c 128,-1,29
 185 320 185 320 196.5 322 c 128,-1,30
 208 324 208 324 214 327 c 1,31,32
 208 329 208 329 196.5 332 c 128,-1,33
 185 335 185 335 172.5 338.5 c 128,-1,34
 160 342 160 342 148 345 c 128,-1,35
 136 348 136 348 131 352 c 0,36,37
 129 354 129 354 126 355 c 0,38,39
 119 358 119 358 117 364 c 2,40,41
 114 367 114 367 114 370.5 c 128,-1,42
 114 374 114 374 113 377 c 0,43,44
 112 381 112 381 112 384 c 2,45,-1
 112 490 l 2,46,47
 113 587 113 587 93 635.5 c 128,-1,48
 73 684 73 684 22 701 c 1,49,-1
 22 763 l 1,0,1
EndSplineSet
EndChar
StartChar: asciitilde
Encoding: 351 126 95
Width: 735
VWidth: 1467
Flags: W
HStem: 200 79<463.919 562.904> 323 82<164.922 241.406>
VStem: 70 69<227 273.209> 590 70<297.607 374>
Fore
660 374 m 1,0,-1
 660 364 l 2,1,2
 662 320 662 320 649.5 288.5 c 128,-1,3
 637 257 637 257 617 237 c 128,-1,4
 597 217 597 217 573 208.5 c 128,-1,5
 549 200 549 200 525 200 c 0,6,7
 497 200 497 200 454.5 206.5 c 128,-1,8
 412 213 412 213 357 248 c 0,9,10
 337 260 337 260 321 273 c 128,-1,11
 305 286 305 286 289 297 c 128,-1,12
 273 308 273 308 256 315.5 c 128,-1,13
 239 323 239 323 220 323 c 0,14,15
 185 323 185 323 162 298.5 c 128,-1,16
 139 274 139 274 139 227 c 1,17,-1
 70 227 l 1,18,-1
 70 238 l 2,19,20
 70 270 70 270 80.5 299.5 c 128,-1,21
 91 329 91 329 108.5 352.5 c 128,-1,22
 126 376 126 376 149.5 389.5 c 128,-1,23
 173 403 173 403 201 405 c 0,24,25
 223 406 223 406 242 404 c 128,-1,26
 261 402 261 402 281.5 394.5 c 128,-1,27
 302 387 302 387 326.5 374 c 128,-1,28
 351 361 351 361 383 339 c 256,29,30
 415 317 415 317 449.5 298 c 128,-1,31
 484 279 484 279 522 279 c 0,32,33
 590 279 590 279 590 374 c 1,34,-1
 660 374 l 1,0,-1
EndSplineSet
EndChar
StartChar: uni0E33.alt1
Encoding: 352 -1 96
Width: 525
VWidth: 1467
Flags: W
HStem: -3 21G<339 418> 502 21G<53.3333 64.5> 539 49<165.466 255.484> 634 34<-410.204 -340.931>
VStem: -472 49<711.425 757.758> -327 50<690.688 759.669> 339 79<-3 436.122>
Fore
185 588 m 0,0,1
 230 588 230 588 272.5 573.5 c 128,-1,2
 315 559 315 559 347.5 532.5 c 128,-1,3
 380 506 380 506 399 471 c 128,-1,4
 418 436 418 436 418 395 c 2,5,-1
 418 -3 l 1,6,-1
 339 -3 l 1,7,-1
 339 367 l 2,8,9
 339 409 339 409 335.5 437 c 128,-1,10
 332 465 332 465 310 490 c 0,11,12
 289 514 289 514 256.5 526 c 128,-1,13
 224 538 224 538 188.5 539 c 128,-1,14
 153 540 153 540 116 530.5 c 128,-1,15
 79 521 79 521 50 502 c 1,16,-1
 57 544 l 1,17,18
 72 559 72 559 92 568 c 128,-1,19
 112 577 112 577 131 581 c 128,-1,20
 150 585 150 585 165 586.5 c 128,-1,21
 180 588 180 588 185 588 c 0,0,1
-472 737 m 0,22,23
 -474 779 -474 779 -444 807.5 c 128,-1,24
 -414 836 -414 836 -374 836 c 0,25,26
 -336 836 -336 836 -306 807 c 128,-1,27
 -276 778 -276 778 -277 735 c 0,28,29
 -274 693 -274 693 -305 663.5 c 128,-1,30
 -336 634 -336 634 -374 634 c 0,31,32
 -417 634 -417 634 -444.5 664.5 c 128,-1,33
 -472 695 -472 695 -472 737 c 0,22,23
-423 737 m 0,34,35
 -423 712 -423 712 -411 690.5 c 128,-1,36
 -399 669 -399 669 -374 668 c 0,37,38
 -352 668 -352 668 -340.5 690 c 128,-1,39
 -329 712 -329 712 -327 737 c 0,40,41
 -327 759 -327 759 -339 778.5 c 128,-1,42
 -351 798 -351 798 -374 800 c 0,43,44
 -398 798 -398 798 -410.5 777.5 c 128,-1,45
 -423 757 -423 757 -423 737 c 0,34,35
EndSplineSet
EndChar
StartChar: quotedbl
Encoding: 353 34 97
Width: 380
VWidth: 1467
Flags: W
HStem: 497 207<87 139 239 291>
VStem: 70 238<662.971 704 704 706 704 704>
Fore
291 497 m 1,0,-1
 239 497 l 1,1,-1
 222 704 l 1,2,-1
 308 706 l 1,3,-1
 291 497 l 1,0,-1
139 497 m 1,4,-1
 87 497 l 1,5,-1
 70 704 l 1,6,-1
 156 706 l 1,7,-1
 139 497 l 1,4,-1
EndSplineSet
EndChar
StartChar: exclam
Encoding: 354 33 98
Width: 250
VWidth: 1467
Flags: W
HStem: -3 157<91.412 169.389>
VStem: 72 116<22.6904 131.31> 79 101<611.206 716> 94 69<207 311.794>
Fore
94 207 m 1,0,-1
 79 716 l 1,1,-1
 180 716 l 1,2,-1
 163 207 l 1,3,-1
 94 207 l 1,0,-1
129 154 m 0,4,5
 154 154 154 154 171 132 c 128,-1,6
 188 110 188 110 188 78 c 0,7,8
 188 44 188 44 172 22 c 128,-1,9
 156 0 156 0 129 -3 c 1,10,11
 107 0 107 0 88.5 22 c 128,-1,12
 70 44 70 44 72 78 c 0,13,14
 72 110 72 110 89 132 c 128,-1,15
 106 154 106 154 129 154 c 0,4,5
EndSplineSet
EndChar
StartChar: uni0E4E.alt1
Encoding: 355 -1 99
Width: 0
VWidth: 1467
Flags: W
HStem: 657 37<-361 -299.21 -299.21 -299 -299 -259.882 -259.882 -227> 931.5 38<-232.5 -224.248 -221.75 -196.14 -175.523 -154> 934.5 44.5<-231.983 -170.069>
VStem: -355 84<853.219 915.654>
Fore
-142 971 m 1,0,-1
 -154 929 l 1,1,2
 -175 933 -175 933 -195.5 934.5 c 128,-1,3
 -216 936 -216 936 -232.5 931.5 c 128,-1,4
 -249 927 -249 927 -260 916 c 128,-1,5
 -271 905 -271 905 -271 886 c 0,6,7
 -271 863 -271 863 -248.5 852.5 c 128,-1,8
 -226 842 -226 842 -200 839 c 1,9,-1
 -210 785 l 1,10,11
 -238 782 -238 782 -260.5 780 c 128,-1,12
 -283 778 -283 778 -298.5 772 c 128,-1,13
 -314 766 -314 766 -323 755.5 c 128,-1,14
 -332 745 -332 745 -332 726 c 0,15,16
 -330 703 -330 703 -299 694 c 128,-1,17
 -268 685 -268 685 -217 691 c 1,18,-1
 -227 650 l 1,19,20
 -266 644 -266 644 -300.5 646.5 c 128,-1,21
 -335 649 -335 649 -361 657 c 128,-1,22
 -387 665 -387 665 -404 679 c 128,-1,23
 -421 693 -421 693 -421 713 c 0,24,25
 -421 742 -421 742 -410 762.5 c 128,-1,26
 -399 783 -399 783 -379 795.5 c 128,-1,27
 -359 808 -359 808 -333 813.5 c 128,-1,28
 -307 819 -307 819 -277 817 c 1,29,30
 -308 825 -308 825 -331.5 846 c 128,-1,31
 -355 867 -355 867 -355 888 c 0,32,33
 -358 920 -358 920 -340.5 940 c 128,-1,34
 -323 960 -323 960 -293 969.5 c 128,-1,35
 -263 979 -263 979 -223 979 c 128,-1,36
 -183 979 -183 979 -142 971 c 1,0,-1
EndSplineSet
EndChar
StartChar: exclamdown
Encoding: 356 161 100
Width: 227
VWidth: 1467
Flags: W
HStem: 352 157<68.6113 147.87>
VStem: 50 116<375.721 484.279> 59 101<-210 -98.6562> 75 69<187.656 299>
Fore
144 299 m 1,0,-1
 160 -210 l 1,1,-1
 59 -210 l 1,2,-1
 75 299 l 1,3,-1
 144 299 l 1,0,-1
109 352 m 0,4,5
 84 352 84 352 67 375 c 128,-1,6
 50 398 50 398 50 430 c 256,7,8
 50 462 50 462 67 485 c 128,-1,9
 84 508 84 508 109 509 c 0,10,11
 134 508 134 508 150.5 485 c 128,-1,12
 167 462 167 462 166 430 c 0,13,14
 166 398 166 398 149 375 c 128,-1,15
 132 352 132 352 109 352 c 0,4,5
EndSplineSet
EndChar
StartChar: cent
Encoding: 357 162 101
Width: 627
VWidth: 1467
Flags: W
HStem: 0 21G<298.341 384> 91 57<258.158 296 381 444.856> 555 48<386.954 462.29>
VStem: 100 76<206.628 490.372> 296 85<0 91 148 547 604 720>
Fore
296 91 m 1,0,1
 263 94 263 94 233.5 103 c 128,-1,2
 204 112 204 112 182 125 c 0,3,4
 148 144 148 144 124 172.5 c 128,-1,5
 100 201 100 201 100 239 c 2,6,-1
 100 458 l 2,7,8
 100 496 100 496 124 524.5 c 128,-1,9
 148 553 148 553 182 572 c 0,10,11
 227 600 227 600 296 604 c 1,12,-1
 296 720 l 1,13,-1
 381 720 l 1,14,-1
 381 603 l 1,15,16
 437 596 437 596 485.5 571.5 c 128,-1,17
 534 547 534 547 556 503 c 1,18,-1
 506 471 l 1,19,20
 489 511 489 511 455 530.5 c 128,-1,21
 421 550 421 550 381 555 c 1,22,-1
 381 141 l 1,23,24
 420 147 420 147 452 166.5 c 128,-1,25
 484 186 484 186 500 226 c 1,26,-1
 556 194 l 1,27,28
 534 148 534 148 485.5 124.5 c 128,-1,29
 437 101 437 101 381 94 c 1,30,-1
 384 0 l 1,31,-1
 299 0 l 1,32,-1
 296 91 l 1,0,1
248 169 m 0,33,34
 271 154 271 154 296 148 c 1,35,-1
 296 547 l 1,36,37
 283 544 283 544 270.5 540 c 128,-1,38
 258 536 258 536 248 528 c 0,39,40
 219 511 219 511 197.5 491 c 128,-1,41
 176 471 176 471 176 439 c 2,42,-1
 176 258 l 2,43,44
 176 226 176 226 197.5 206 c 128,-1,45
 219 186 219 186 248 169 c 0,33,34
EndSplineSet
EndChar
StartChar: sterling
Encoding: 358 163 102
Width: 613
VWidth: 1467
Flags: W
HStem: 0 51<205 538> 308 66<92 213 304 433> 643 55<329.498 428.617>
VStem: 92 449<0 308 243 274.3> 202 83.5<381.781 430.5 431 462.3 462.3 468.17 465.235 584.252> 224 84<136.682 179 180.5 206.343 206.343 212.389 209.366 250.487 248.092 252.881 252.881 289.103>
Fore
97 0 m 1,0,-1
 94 48 l 1,1,2
 136 66 136 66 162.5 87.5 c 128,-1,3
 189 109 189 109 204 131.5 c 128,-1,4
 219 154 219 154 224 180.5 c 128,-1,5
 229 207 229 207 229 236 c 0,6,7
 229 257 229 257 226.5 269.5 c 128,-1,8
 224 282 224 282 220 308 c 1,9,-1
 92 308 l 1,10,-1
 92 374 l 1,11,-1
 213 374 l 1,12,13
 207 399 207 399 202 430.5 c 128,-1,14
 197 462 197 462 197 496 c 0,15,16
 197 540 197 540 211.5 577.5 c 128,-1,17
 226 615 226 615 251.5 641.5 c 128,-1,18
 277 668 277 668 312.5 683 c 128,-1,19
 348 698 348 698 390 698 c 0,20,21
 436 698 436 698 464.5 688.5 c 128,-1,22
 493 679 493 679 514 671 c 1,23,-1
 492 615 l 1,24,25
 475 622 475 622 449.5 633 c 128,-1,26
 424 644 424 644 386 643 c 0,27,28
 342 641 342 641 312 604.5 c 128,-1,29
 282 568 282 568 282 494 c 0,30,31
 282 456 282 456 285.5 431 c 128,-1,32
 289 406 289 406 295 381 c 1,33,-1
 433 381 l 1,34,-1
 433 314 l 1,35,-1
 304 313 l 1,36,37
 306 300.5 l 2,38,39
 308 288 308 288 310.5 269.5 c 128,-1,40
 313 251 313 251 313 226.5 c 128,-1,41
 313 202 313 202 308 179 c 0,42,43
 301 135 301 135 272.5 102.5 c 128,-1,44
 244 70 244 70 205 51 c 1,45,-1
 538 53 l 1,46,-1
 541 0 l 1,47,-1
 97 0 l 1,0,-1
EndSplineSet
EndChar
StartChar: currency
Encoding: 359 164 103
Width: 713
VWidth: 1467
Flags: W
HStem: 82 65.5<262.736 433.748> 536 65<294.654 436.264>
VStem: 95 74<233.448 305.119 305.119 381.881 381.881 468.281> 533 71<234.172 461.404>
Fore
610 85 m 1,0,-1
 552 145 l 1,1,2
 519 114 519 114 466.5 98 c 128,-1,3
 414 82 414 82 356 82 c 128,-1,4
 298 82 298 82 244.5 97 c 128,-1,5
 191 112 191 112 157 141 c 1,6,-1
 94 82 l 1,7,-1
 59 123 l 1,8,-1
 117 183 l 1,9,10
 103 204 103 204 99 221 c 128,-1,11
 95 238 95 238 95 267 c 0,12,13
 94 301 94 301 94.5 343.5 c 128,-1,14
 95 386 95 386 95 420 c 0,15,16
 95 452 95 452 103.5 472.5 c 128,-1,17
 112 493 112 493 129 514 c 1,18,-1
 75 566 l 1,19,-1
 113 604 l 1,20,-1
 166 550 l 1,21,22
 200 577 200 577 251 589.5 c 128,-1,23
 302 602 302 602 356.5 601 c 128,-1,24
 411 600 411 600 461 586 c 128,-1,25
 511 572 511 572 543 544 c 1,26,-1
 600 600 l 1,27,-1
 643 559 l 1,28,-1
 580 502 l 1,29,30
 594 481 594 481 599 462 c 128,-1,31
 604 443 604 443 604 414 c 2,32,-1
 604 267 l 2,33,34
 604 239 604 239 600 223 c 128,-1,35
 596 207 596 207 584 188 c 1,36,-1
 649 122 l 1,37,-1
 610 85 l 1,0,-1
169 274 m 0,38,39
 169 233 169 233 195.5 205.5 c 128,-1,40
 222 178 222 178 261.5 163 c 128,-1,41
 301 148 301 148 348 147.5 c 128,-1,42
 395 147 395 147 435 161 c 128,-1,43
 475 175 475 175 503 202 c 128,-1,44
 531 229 531 229 533 270 c 0,45,46
 533 292 533 292 533 297 c 0,47,-1
 533 316 l 0,48,49
 533 330 533 330 533 345.5 c 128,-1,50
 533 361 533 361 533 395 c 0,51,52
 531 442 531 442 504 473.5 c 128,-1,53
 477 505 477 505 437.5 520.5 c 128,-1,54
 398 536 398 536 351.5 536 c 128,-1,55
 305 536 305 536 264.5 521 c 128,-1,56
 224 506 224 506 197 476 c 128,-1,57
 170 446 170 446 169 402 c 0,58,59
 169 395 169 395 169 378 c 128,-1,60
 169 361 169 361 169 340.5 c 128,-1,61
 169 320 169 320 169 301.5 c 128,-1,62
 169 283 169 283 169 274 c 0,38,39
EndSplineSet
EndChar
StartChar: yen
Encoding: 360 165 104
Width: 641
VWidth: 1467
Flags: W
HStem: 0 21G<278.341 357> 91 81<50 276 354 596> 248 84<50 232 398 596> 678 20G<25 119.5 513 604>
VStem: 276 78<0 91 172 248>
Fore
401 336 m 0,0,1
 399 335 399 335 399 334 c 128,-1,2
 399 333 399 333 398 332 c 1,3,-1
 596 332 l 1,4,-1
 596 248 l 1,5,-1
 354 248 l 1,6,-1
 354 172 l 1,7,-1
 596 172 l 1,8,-1
 596 91 l 1,9,-1
 354 91 l 1,10,-1
 357 0 l 1,11,-1
 279 0 l 1,12,-1
 276 91 l 1,13,-1
 50 91 l 1,14,-1
 50 172 l 1,15,-1
 276 172 l 1,16,-1
 276 248 l 1,17,-1
 50 248 l 1,18,-1
 50 332 l 1,19,-1
 232 332 l 1,20,21
 227 339 227 339 226 340 c 0,22,23
 202 377 202 377 176.5 422.5 c 128,-1,24
 151 468 151 468 124.5 516.5 c 128,-1,25
 98 565 98 565 72.5 612 c 128,-1,26
 47 659 47 659 25 698 c 1,27,-1
 98 698 l 1,28,29
 141 618 141 618 191 533.5 c 128,-1,30
 241 449 241 449 283 374 c 0,31,32
 301 342 301 342 312 340.5 c 128,-1,33
 323 339 323 339 342 370 c 0,34,35
 389 446 389 446 439.5 532 c 128,-1,36
 490 618 490 618 536 698 c 1,37,-1
 604 698 l 1,38,39
 581 656 581 656 555.5 609 c 128,-1,40
 530 562 530 562 503.5 515 c 128,-1,41
 477 468 477 468 450.5 422 c 128,-1,42
 424 376 424 376 401 336 c 0,0,1
EndSplineSet
EndChar
StartChar: brokenbar
Encoding: 361 166 105
Width: 247
VWidth: 1467
Flags: W
HStem: 340 372<87 164 87 164 87 87>
VStem: 87 77<-183 189 340 712>
Fore
87 340 m 1,0,-1
 87 712 l 1,1,-1
 164 712 l 1,2,-1
 164 340 l 1,3,-1
 87 340 l 1,0,-1
87 -183 m 1,4,-1
 87 189 l 1,5,-1
 164 189 l 1,6,-1
 164 -183 l 1,7,-1
 87 -183 l 1,4,-1
EndSplineSet
EndChar
StartChar: section
Encoding: 362 167 106
Width: 591
VWidth: 1467
Flags: W
HStem: -50 57<246.696 345.962> 673 53<244.617 334.883>
VStem: 88 82<295.987 367.359 546.408 580 580 616.982> 427 78<315.372 380.014>
Fore
509 101 m 0,0,1
 511 62 511 62 491 32.5 c 128,-1,2
 471 3 471 3 438.5 -15.5 c 128,-1,3
 406 -34 406 -34 367.5 -42.5 c 128,-1,4
 329 -51 329 -51 292 -50 c 0,5,6
 263 -50 263 -50 227 -43.5 c 128,-1,7
 191 -37 191 -37 158.5 -23.5 c 128,-1,8
 126 -10 126 -10 101 11 c 128,-1,9
 76 32 76 32 70 65 c 1,10,-1
 163 65 l 1,11,12
 180 31 180 31 214.5 19 c 128,-1,13
 249 7 249 7 296 7 c 0,14,15
 352 7 352 7 385 33 c 128,-1,16
 418 59 418 59 420 97 c 0,17,18
 417 129 417 129 396.5 150.5 c 128,-1,19
 376 172 376 172 340 183 c 0,20,21
 307 194 307 194 264.5 201 c 128,-1,22
 222 208 222 208 183 223.5 c 128,-1,23
 144 239 144 239 116.5 265.5 c 128,-1,24
 89 292 89 292 88 339 c 0,25,26
 87 362 87 362 98 384 c 128,-1,27
 109 406 109 406 126.5 424 c 128,-1,28
 144 442 144 442 164.5 453.5 c 128,-1,29
 185 465 185 465 204 468 c 1,30,31
 186 474 186 474 165.5 483 c 128,-1,32
 145 492 145 492 128.5 505 c 128,-1,33
 112 518 112 518 100 536.5 c 128,-1,34
 88 555 88 555 87 580 c 0,35,36
 84 616 84 616 103 644 c 128,-1,37
 122 672 122 672 152.5 690.5 c 128,-1,38
 183 709 183 709 219 717.5 c 128,-1,39
 255 726 255 726 289 726 c 0,40,41
 315 726 315 726 348 720.5 c 128,-1,42
 381 715 381 715 411.5 701.5 c 128,-1,43
 442 688 442 688 464.5 667.5 c 128,-1,44
 487 647 487 647 493 619 c 1,45,-1
 411 619 l 1,46,47
 390 656 390 656 360 665.5 c 128,-1,48
 330 675 330 675 286 673 c 0,49,50
 235 672 235 672 197.5 647 c 128,-1,51
 160 622 160 622 166 580 c 0,52,53
 167 559 167 559 176.5 546 c 128,-1,54
 186 533 186 533 201 524 c 128,-1,55
 216 515 216 515 234 509 c 128,-1,56
 252 503 252 503 273 497 c 1,57,58
 305 493 305 493 338 485.5 c 128,-1,59
 371 478 371 478 399.5 468 c 128,-1,60
 428 458 428 458 451 443 c 128,-1,61
 474 428 474 428 487 406 c 0,62,63
 503 380 503 380 505 342 c 0,64,65
 506 318 506 318 496.5 300 c 128,-1,66
 487 282 487 282 472.5 267 c 128,-1,67
 458 252 458 252 439.5 240.5 c 128,-1,68
 421 229 421 229 403 220 c 1,69,70
 420 213 420 213 438 203.5 c 128,-1,71
 456 194 456 194 471.5 179 c 128,-1,72
 487 164 487 164 497.5 145 c 128,-1,73
 508 126 508 126 509 101 c 0,0,1
170 339 m 0,74,75
 170 311 170 311 182 295.5 c 128,-1,76
 194 280 194 280 213.5 272 c 128,-1,77
 233 264 233 264 259 260.5 c 128,-1,78
 285 257 285 257 314 252 c 1,79,80
 336 255 336 255 356.5 261 c 128,-1,81
 377 267 377 267 393 278 c 128,-1,82
 409 289 409 289 418.5 304.5 c 128,-1,83
 428 320 428 320 427 342 c 0,84,85
 424 365 424 365 415 380.5 c 128,-1,86
 406 396 406 396 392.5 406.5 c 128,-1,87
 379 417 379 417 359 422.5 c 128,-1,88
 339 428 339 428 317 434 c 1,89,-1
 291 434 l 2,90,91
 270 434 270 434 248 428.5 c 128,-1,92
 226 423 226 423 208.5 412 c 128,-1,93
 191 401 191 401 180 382.5 c 128,-1,94
 169 364 169 364 170 339 c 0,74,75
EndSplineSet
EndChar
StartChar: dieresis
Encoding: 363 168 107
Width: 416
VWidth: 1467
Flags: W
HStem: 541 157<61.0634 138.932 281.063 358.932>
VStem: 43 114<564.721 673.279> 263 114<564.721 673.279>
Fore
100 541 m 0,0,1
 75 541 75 541 59 564 c 128,-1,2
 43 587 43 587 43 619 c 256,3,4
 43 651 43 651 59.5 674 c 128,-1,5
 76 697 76 697 100 698 c 0,6,7
 125 697 125 697 141 674 c 128,-1,8
 157 651 157 651 157 619 c 256,9,10
 157 587 157 587 140 564 c 128,-1,11
 123 541 123 541 100 541 c 0,0,1
320 541 m 0,12,13
 295 541 295 541 279 564 c 128,-1,14
 263 587 263 587 263 619 c 256,15,16
 263 651 263 651 279.5 674 c 128,-1,17
 296 697 296 697 320 698 c 0,18,19
 345 697 345 697 361 674 c 128,-1,20
 377 651 377 651 377 619 c 256,21,22
 377 587 377 587 360 564 c 128,-1,23
 343 541 343 541 320 541 c 0,12,13
EndSplineSet
EndChar
StartChar: copyright
Encoding: 364 169 108
Width: 893
VWidth: 1467
Flags: W
HStem: -22.5 59.5<317.393 572.123> 660 61<317.393 572.123>
VStem: 101 75<126.864 164 164 572.48> 233 69<222.637 474.688> 713 76<126.864 164 164 572.48>
Fore
101 534 m 2,0,1
 101 596 101 596 151.5 637.5 c 128,-1,2
 202 679 202 679 279.5 699.5 c 128,-1,3
 357 720 357 720 445.5 721 c 128,-1,4
 534 722 534 722 611 700.5 c 128,-1,5
 688 679 688 679 738.5 637.5 c 128,-1,6
 789 596 789 596 789 534 c 2,7,-1
 789 164 l 2,8,9
 789 103 789 103 738.5 61 c 128,-1,10
 688 19 688 19 611 -2 c 128,-1,11
 534 -23 534 -23 445.5 -22.5 c 128,-1,12
 357 -22 357 -22 279.5 -1.5 c 128,-1,13
 202 19 202 19 151.5 60 c 128,-1,14
 101 101 101 101 101 164 c 2,15,-1
 101 534 l 2,0,1
713 506 m 2,16,17
 713 558 713 558 673.5 592 c 128,-1,18
 634 626 634 626 574 643 c 128,-1,19
 514 660 514 660 445 660 c 128,-1,20
 376 660 376 660 315.5 643 c 128,-1,21
 255 626 255 626 215.5 592 c 128,-1,22
 176 558 176 558 176 506 c 2,23,-1
 176 195 l 2,24,25
 176 142 176 142 215.5 107 c 128,-1,26
 255 72 255 72 315.5 54.5 c 128,-1,27
 376 37 376 37 445 37 c 128,-1,28
 514 37 514 37 574 54.5 c 128,-1,29
 634 72 634 72 673.5 107 c 128,-1,30
 713 142 713 142 713 195 c 2,31,-1
 713 506 l 2,16,17
345 530 m 0,32,33
 315 512 315 512 308.5 488.5 c 128,-1,34
 302 465 302 465 302 434 c 2,35,-1
 302 261 l 2,36,37
 302 230 302 230 308.5 211 c 128,-1,38
 315 192 315 192 345 175 c 0,39,40
 373 158 373 158 412.5 151 c 128,-1,41
 452 144 452 144 491.5 148.5 c 128,-1,42
 531 153 531 153 564 172 c 128,-1,43
 597 191 597 191 612 227 c 1,44,-1
 656 200 l 1,45,46
 635 157 635 157 592 133.5 c 128,-1,47
 549 110 549 110 498 102.5 c 128,-1,48
 447 95 447 95 397.5 102.5 c 128,-1,49
 348 110 348 110 313 131 c 0,50,51
 280 150 280 150 256.5 178.5 c 128,-1,52
 233 207 233 207 233 242 c 2,53,-1
 233 453 l 2,54,55
 233 489 233 489 256.5 519.5 c 128,-1,56
 280 550 280 550 313 569 c 0,57,58
 348 590 348 590 397.5 596.5 c 128,-1,59
 447 603 447 603 498 595 c 128,-1,60
 549 587 549 587 592 562.5 c 128,-1,61
 635 538 635 538 656 496 c 1,62,-1
 603 480 l 1,63,64
 590 511 590 511 557.5 528.5 c 128,-1,65
 525 546 525 546 487 552 c 128,-1,66
 449 558 449 558 411 552 c 128,-1,67
 373 546 373 546 345 530 c 0,32,33
EndSplineSet
EndChar
StartChar: ordfeminine
Encoding: 365 170 109
Width: 422
VWidth: 1467
Flags: W
HStem: 277.5 343<166 168.5 209 219 189.5 192.5 189.5 189.5>
VStem: 47 54<332.329 392.972> 302 52<368 464 508.952 535.625>
Fore
302 464 m 1,0,1
 285 450 285 450 268.5 444.5 c 128,-1,2
 252 439 252 439 230 434 c 0,3,4
 202 428 202 428 178 424 c 128,-1,5
 154 420 154 420 137 412.5 c 128,-1,6
 120 405 120 405 110.5 393 c 128,-1,7
 101 381 101 381 101 361 c 0,8,9
 101 345 101 345 116 334 c 128,-1,10
 131 323 131 323 150 320 c 0,11,12
 183 315 183 315 209 319.5 c 128,-1,13
 235 324 235 324 253 333 c 128,-1,14
 271 342 271 342 283 352 c 128,-1,15
 295 362 295 362 302 368 c 1,16,-1
 302 371 l 1,17,-1
 302 462 l 1,18,-1
 302 464 l 1,0,1
337 280 m 1,19,20
 326 285 326 285 315.5 298 c 128,-1,21
 305 311 305 311 302 324 c 1,22,23
 293 317 293 317 277 307.5 c 128,-1,24
 261 298 261 298 240 290 c 128,-1,25
 219 282 219 282 192.5 277.5 c 128,-1,26
 166 273 166 273 138 279 c 0,27,28
 103 286 103 286 75.5 308 c 128,-1,29
 48 330 48 330 47 368 c 0,30,31
 47 399 47 399 64.5 417.5 c 128,-1,32
 82 436 82 436 109 447 c 128,-1,33
 136 458 136 458 168.5 464 c 128,-1,34
 201 470 201 470 230 477 c 0,35,36
 239 478 239 478 251 481 c 128,-1,37
 263 484 263 484 274 490 c 128,-1,38
 285 496 285 496 293 503.5 c 128,-1,39
 301 511 301 511 301 521 c 0,40,41
 301 534 301 534 290 547 c 128,-1,42
 279 560 279 560 263 571 c 0,43,44
 245 581 245 581 221 584 c 128,-1,45
 197 587 197 587 172 584 c 128,-1,46
 147 581 147 581 121 573 c 128,-1,47
 95 565 95 565 75 555 c 1,48,-1
 79 596 l 1,49,50
 103 607 103 607 131.5 613 c 128,-1,51
 160 619 160 619 189.5 620.5 c 128,-1,52
 219 622 219 622 246 617 c 128,-1,53
 273 612 273 612 295 602 c 0,54,55
 317 593 317 593 335.5 569.5 c 128,-1,56
 354 546 354 546 354 519 c 2,57,-1
 354 349 l 2,58,59
 354 335 354 335 356.5 323 c 128,-1,60
 359 311 359 311 376 299 c 1,61,62
 370 292 370 292 356 287.5 c 128,-1,63
 342 283 342 283 337 280 c 1,19,20
EndSplineSet
EndChar
StartChar: guillemotleft
Encoding: 366 171 110
Width: 660
VWidth: 1467
Flags: W
HStem: 67 364<271 355 271 271>
Fore
148 248 m 1,0,1
 163 242 163 242 191 223 c 128,-1,2
 219 204 219 204 249 178.5 c 128,-1,3
 279 153 279 153 308 123.5 c 128,-1,4
 337 94 337 94 355 67 c 1,5,-1
 274 67 l 1,6,7
 249 97 249 97 220 125.5 c 128,-1,8
 191 154 191 154 160 178 c 128,-1,9
 129 202 129 202 97.5 220 c 128,-1,10
 66 238 66 238 38 245 c 1,11,12
 94 270 94 270 158.5 317 c 128,-1,13
 223 364 223 364 271 431 c 1,14,-1
 355 431 l 1,15,16
 333 399 333 399 303.5 368 c 128,-1,17
 274 337 274 337 245 313 c 128,-1,18
 216 289 216 289 189.5 271.5 c 128,-1,19
 163 254 163 254 148 248 c 1,0,1
383 248 m 1,20,21
 398 242 398 242 425.5 223 c 128,-1,22
 453 204 453 204 483.5 178.5 c 128,-1,23
 514 153 514 153 543 123.5 c 128,-1,24
 572 94 572 94 590 67 c 1,25,-1
 509 67 l 1,26,27
 484 97 484 97 454.5 125.5 c 128,-1,28
 425 154 425 154 394.5 178 c 128,-1,29
 364 202 364 202 332.5 220 c 128,-1,30
 301 238 301 238 273 245 c 1,31,32
 329 270 329 270 393.5 317 c 128,-1,33
 458 364 458 364 506 431 c 1,34,-1
 590 431 l 1,35,36
 568 399 568 399 538.5 368 c 128,-1,37
 509 337 509 337 479.5 313 c 128,-1,38
 450 289 450 289 424 271.5 c 128,-1,39
 398 254 398 254 383 248 c 1,20,21
EndSplineSet
EndChar
StartChar: logicalnot
Encoding: 367 172 111
Width: 693
VWidth: 1467
Flags: W
HStem: 134 286<563 629 56 563 629 629> 354 66<56 563>
VStem: 563 66<134 354>
Fore
563 134 m 1,0,-1
 563 354 l 1,1,-1
 56 354 l 1,2,-1
 56 420 l 1,3,-1
 629 420 l 1,4,-1
 629 134 l 1,5,-1
 563 134 l 1,0,-1
EndSplineSet
EndChar
StartChar: registered
Encoding: 368 174 112
Width: 710
VWidth: 1467
Flags: W
HStem: 202 51.5<266.798 405.706> 499 21G<308 375.5> 587 39<364 376.758 376.758 379.423 379.423 389.5 397 408.152> 672 53<308.834 446.686>
VStem: 100.5 69.5<326.263 425.119 425.119 501.881 501.881 604.669> 425 46<359 393.755> 434 41<507.684 571.36> 544 68<320.083 599.948>
Fore
100 540 m 0,0,1
 100 602 100 602 138 643 c 128,-1,2
 176 684 176 684 232.5 704.5 c 128,-1,3
 289 725 289 725 356 725 c 128,-1,4
 423 725 423 725 479.5 704.5 c 128,-1,5
 536 684 536 684 574 643 c 128,-1,6
 612 602 612 602 612 540 c 2,7,-1
 612 387 l 2,8,9
 612 326 612 326 574.5 285 c 128,-1,10
 537 244 537 244 481 223 c 128,-1,11
 425 202 425 202 359 202 c 128,-1,12
 293 202 293 202 236.5 223 c 128,-1,13
 180 244 180 244 142 285 c 128,-1,14
 104 326 104 326 103 387 c 0,15,16
 101 421 101 421 100.5 463.5 c 128,-1,17
 100 506 100 506 100 540 c 0,0,1
170 533 m 2,18,-1
 170 396 l 2,19,20
 169 351 169 351 196.5 319.5 c 128,-1,21
 224 288 224 288 265.5 271.5 c 128,-1,22
 307 255 307 255 355 253.5 c 128,-1,23
 403 252 403 252 445 267 c 128,-1,24
 487 282 487 282 515.5 312 c 128,-1,25
 544 342 544 342 544 387 c 2,26,-1
 544 534 l 2,27,28
 544 577 544 577 517 607.5 c 128,-1,29
 490 638 490 638 448 654.5 c 128,-1,30
 406 671 406 671 358 672 c 128,-1,31
 310 673 310 673 268.5 658.5 c 128,-1,32
 227 644 227 644 198.5 613 c 128,-1,33
 170 582 170 582 170 533 c 2,18,-1
408 465 m 1,34,35
 436 472 436 472 455 490 c 128,-1,36
 474 508 474 508 475 537 c 0,37,38
 475 565 475 565 463.5 582.5 c 128,-1,39
 452 600 452 600 434.5 610.5 c 128,-1,40
 417 621 417 621 397 623.5 c 128,-1,41
 377 626 377 626 362 626 c 2,42,-1
 263 626 l 1,43,-1
 263 313 l 1,44,-1
 308 313 l 1,45,-1
 308 445 l 1,46,-1
 324 445 l 2,47,48
 343 445 343 445 362 443.5 c 128,-1,49
 381 442 381 442 395 433.5 c 128,-1,50
 409 425 409 425 417 407.5 c 128,-1,51
 425 390 425 390 425 358 c 2,52,-1
 425 313 l 1,53,-1
 471 313 l 1,54,-1
 471 359 l 2,55,56
 471 392 471 392 466 410 c 128,-1,57
 461 428 461 428 452 439 c 128,-1,58
 443 450 443 450 432 455.5 c 128,-1,59
 421 461 421 461 408 465 c 1,34,35
308 587 m 1,60,-1
 364 587 l 2,61,62
 377 587 377 587 389.5 586 c 128,-1,63
 402 585 402 585 412.5 581 c 128,-1,64
 423 577 423 577 428.5 566.5 c 128,-1,65
 434 556 434 556 434 537 c 0,66,67
 431 512 431 512 410.5 507 c 128,-1,68
 390 502 390 502 361 499 c 2,69,-1
 308 499 l 1,70,71
 308 522 308 522 308 532.5 c 128,-1,72
 308 543 308 543 308 546 c 0,73,-1
 308 559 l 0,74,75
 308 569 308 569 308 587 c 1,60,-1
EndSplineSet
EndChar
StartChar: macron
Encoding: 369 175 113
Width: 346
VWidth: 1467
Flags: W
HStem: 609 70<53 286 53 286 53 53>
Fore
53 609 m 1,0,-1
 53 679 l 1,1,-1
 286 679 l 1,2,-1
 286 609 l 1,3,-1
 53 609 l 1,0,-1
EndSplineSet
EndChar
StartChar: degree
Encoding: 370 176 114
Width: 321
VWidth: 1467
Flags: W
HStem: 483 39<123.236 185.912> 673 43<115.93 187.799>
VStem: 40 60<573.202 653.411> 210 60<559.753 637.862>
Fore
40 602 m 0,0,1
 40 650 40 650 74.5 683 c 128,-1,2
 109 716 109 716 156 716 c 0,3,4
 178 716 178 716 198.5 707 c 128,-1,5
 219 698 219 698 235 682 c 128,-1,6
 251 666 251 666 260.5 645 c 128,-1,7
 270 624 270 624 270 600 c 0,8,9
 270 575 270 575 260.5 554 c 128,-1,10
 251 533 251 533 235 517.5 c 128,-1,11
 219 502 219 502 198.5 492.5 c 128,-1,12
 178 483 178 483 156 483 c 0,13,14
 131 483 131 483 109.5 492.5 c 128,-1,15
 88 502 88 502 72.5 519 c 128,-1,16
 57 536 57 536 48.5 557 c 128,-1,17
 40 578 40 578 40 602 c 0,0,1
100 602 m 0,18,19
 100 574 100 574 113 549 c 128,-1,20
 126 524 126 524 156 522 c 0,21,22
 180 522 180 522 194 547 c 128,-1,23
 208 572 208 572 210 602 c 0,24,25
 210 626 210 626 196 649 c 128,-1,26
 182 672 182 672 156 673 c 0,27,28
 129 672 129 672 114.5 649 c 128,-1,29
 100 626 100 626 100 602 c 0,18,19
EndSplineSet
EndChar
StartChar: plusminus
Encoding: 371 177 115
Width: 657
VWidth: 1467
Flags: W
HStem: 0 75<51 594> 327 76<48 280 354 593>
VStem: 280 74<139 327 403 599>
Fore
354 327 m 1,0,-1
 354 139 l 1,1,-1
 280 139 l 1,2,-1
 280 327 l 1,3,-1
 48 327 l 1,4,-1
 48 403 l 1,5,-1
 280 403 l 1,6,-1
 280 599 l 1,7,-1
 354 599 l 1,8,-1
 354 403 l 1,9,-1
 593 403 l 1,10,-1
 593 327 l 1,11,-1
 354 327 l 1,0,-1
51 0 m 1,12,-1
 50 75 l 1,13,-1
 594 75 l 1,14,-1
 596 0 l 1,15,-1
 51 0 l 1,12,-1
EndSplineSet
EndChar
StartChar: twosuperior
Encoding: 372 178 116
Width: 435
VWidth: 1467
Flags: W
HStem: 280 427<191 276 220 357 416.185 436> 280 52<141.717 280.581 280.581 337.185 337.185 357> 659 48<187.435 265.014>
VStem: 56 301<280 332 332 613 476.185 496>
Fore
56 332 m 1,0,-1
 217 475 l 2,1,2
 239 499 239 499 253.5 518.5 c 128,-1,3
 268 538 268 538 282 555 c 0,4,5
 310 591 310 591 304 616 c 128,-1,6
 298 641 298 641 279 650 c 0,7,8
 261 659 261 659 243.5 659 c 128,-1,9
 226 659 226 659 216 659 c 0,10,11
 189 659 189 659 147.5 640.5 c 128,-1,12
 106 622 106 622 75 597 c 1,13,-1
 75 649 l 1,14,15
 113 681 113 681 152 694 c 128,-1,16
 191 707 191 707 220 707 c 0,17,18
 276 707 276 707 318.5 686.5 c 128,-1,19
 361 666 361 666 364 613 c 0,20,21
 365 594 365 594 355.5 565 c 128,-1,22
 346 536 346 536 304 486 c 0,23,24
 295 475 295 475 269.5 450 c 128,-1,25
 244 425 244 425 216 399 c 128,-1,26
 188 373 188 373 165 352.5 c 128,-1,27
 142 332 142 332 141 332 c 1,28,29
 164 333 164 333 180 333 c 0,30,-1
 243.5 333 l 0,31,32
 291 333 291 333 317 332.5 c 128,-1,33
 343 332 343 332 357 332 c 1,34,-1
 357 280 l 1,35,-1
 56 280 l 1,36,-1
 56 332 l 1,0,-1
EndSplineSet
EndChar
StartChar: threesuperior
Encoding: 373 179 117
Width: 407
VWidth: 1467
Flags: W
HStem: 283 424.5<176 184.5 213 219 160 202.5 202.5 202.5> 283 52<140.889 222.704> 659 47<130.477 178.181 178.181 204.347>
VStem: 59 287.5<358 414.5 368.5 374.5> 271 75.5<358.544 447.044>
Fore
114 547 m 1,0,1
 139 547 139 547 144 549 c 2,2,3
 161 550 161 550 184.5 555 c 128,-1,4
 208 560 208 560 224 568 c 0,5,6
 254 580 254 580 262 598 c 128,-1,7
 270 616 270 616 251 635 c 0,8,9
 238 649 238 649 213 654 c 128,-1,10
 188 659 188 659 161 659 c 0,11,12
 132 657 132 657 112 651.5 c 128,-1,13
 92 646 92 646 67 638 c 1,14,-1
 70 690 l 1,15,16
 97 697 97 697 115.5 700.5 c 128,-1,17
 134 704 134 704 154 706 c 0,18,19
 176 709 176 709 202.5 707.5 c 128,-1,20
 229 706 229 706 245 700 c 0,21,22
 274 691 274 691 300 673.5 c 128,-1,23
 326 656 326 656 330 621 c 0,24,25
 336 574 336 574 299.5 549.5 c 128,-1,26
 263 525 263 525 210 515 c 1,27,-1
 210 514 l 1,28,29
 236 514 236 514 267 503.5 c 128,-1,30
 298 493 298 493 313 481 c 0,31,32
 345 452 345 452 346.5 414.5 c 128,-1,33
 348 377 348 377 326 345.5 c 128,-1,34
 304 314 304 314 261.5 295 c 128,-1,35
 219 276 219 276 160 283 c 0,36,37
 153 283 153 283 140.5 284 c 128,-1,38
 128 285 128 285 114 287 c 128,-1,39
 100 289 100 289 85 292.5 c 128,-1,40
 70 296 70 296 62 301 c 1,41,-1
 59 358 l 1,42,43
 87 348 87 348 109.5 342 c 128,-1,44
 132 336 132 336 164 335 c 0,45,46
 216 333 216 333 243.5 353.5 c 128,-1,47
 271 374 271 374 271 408 c 0,48,49
 271 433 271 433 258.5 447.5 c 128,-1,50
 246 462 246 462 225 468.5 c 128,-1,51
 204 475 204 475 175.5 476.5 c 128,-1,52
 147 478 147 478 114 477 c 1,53,-1
 114 547 l 1,0,1
EndSplineSet
EndChar
StartChar: acute
Encoding: 374 180 118
Width: 325
VWidth: 1467
Flags: W
HStem: 514 206<144 166 100 239 144 144>
Fore
166 514 m 1,0,-1
 100 514 l 1,1,-1
 144 720 l 1,2,-1
 239 720 l 1,3,-1
 166 514 l 1,0,-1
EndSplineSet
EndChar
StartChar: mu
Encoding: 375 181 119
AltUni2: 0003bc.ffffffff.0
Width: 699
VWidth: 1467
Flags: W
HStem: -245 756<107 191 107 596 185.68 201> -10 66<293.993 379.033>
VStem: 107 87<-245 65 217.417 511> 512 84<1 32.2423 32.2423 79.6796 79.6796 95 184.696 511>
Fore
512 1 m 1,0,-1
 512 95 l 1,1,2
 499 76 499 76 483 58 c 128,-1,3
 467 40 467 40 445.5 24.5 c 128,-1,4
 424 9 424 9 397.5 -0.5 c 128,-1,5
 371 -10 371 -10 337 -10 c 0,6,7
 326 -10 326 -10 308.5 -8.5 c 128,-1,8
 291 -7 291 -7 271 1 c 128,-1,9
 251 9 251 9 231 23.5 c 128,-1,10
 211 38 211 38 194 65 c 1,11,-1
 191 -245 l 1,12,-1
 107 -245 l 1,13,-1
 107 511 l 1,14,-1
 194 511 l 1,15,-1
 194 264 l 2,16,17
 194 229 194 229 202 192.5 c 128,-1,18
 210 156 210 156 229 125 c 128,-1,19
 248 94 248 94 278 75 c 128,-1,20
 308 56 308 56 351 56 c 0,21,22
 383 56 383 56 412.5 69 c 128,-1,23
 442 82 442 82 462.5 105 c 128,-1,24
 483 128 483 128 495.5 156.5 c 128,-1,25
 508 185 508 185 508 216 c 2,26,-1
 508 511 l 1,27,-1
 596 511 l 1,28,-1
 596 126 l 2,29,30
 596 95 596 95 595 63.5 c 128,-1,31
 594 32 594 32 596 1 c 1,32,-1
 512 1 l 1,0,-1
EndSplineSet
EndChar
StartChar: paragraph
Encoding: 376 182 120
Width: 607
VWidth: 1467
Flags: W
HStem: 631 79<315 427>
VStem: 43.5 461.5<396 432 432 468 432 710 432 432> 239 76<-54 315> 427 78<-54 631>
Fore
505 710 m 1,0,-1
 505 -54 l 1,1,-1
 427 -54 l 1,2,-1
 427 631 l 1,3,-1
 315 631 l 1,4,-1
 315 -54 l 1,5,-1
 273 -54 l 1,6,-1
 239 -54 l 1,7,-1
 239 315 l 1,8,9
 205 301 205 301 171.5 301.5 c 128,-1,10
 138 302 138 302 109 318 c 0,11,12
 79 336 79 336 63 366 c 128,-1,13
 47 396 47 396 43.5 432 c 128,-1,14
 40 468 40 468 48.5 508.5 c 128,-1,15
 57 549 57 549 81 587 c 0,16,17
 116 649 116 649 169 680.5 c 128,-1,18
 222 712 222 712 273 709 c 1,19,-1
 273 710 l 1,20,-1
 505 710 l 1,0,-1
EndSplineSet
EndChar
StartChar: periodcentered
Encoding: 377 183 121
Width: 388
VWidth: 1467
Flags: W
HStem: 232 233<160.558 257.21>
VStem: 70 235<280.898 374.96>
Fore
305 348 m 256,0,1
 305 299 305 299 271.5 265.5 c 128,-1,2
 238 232 238 232 188 232 c 0,3,4
 141 232 141 232 105.5 265.5 c 128,-1,5
 70 299 70 299 70 348 c 0,6,7
 70 371 70 371 79.5 393 c 128,-1,8
 89 415 89 415 105.5 430.5 c 128,-1,9
 122 446 122 446 143 455.5 c 128,-1,10
 164 465 164 465 188 465 c 0,11,12
 238 465 238 465 271.5 430.5 c 128,-1,13
 305 396 305 396 305 348 c 256,0,1
EndSplineSet
EndChar
StartChar: cedilla
Encoding: 378 184 122
Width: 393
VWidth: 1467
Flags: W
HStem: -198.5 205.5<166 169 136 166 166 166>
VStem: 85 219<-186 -87 -216 -186>
Fore
304 -87 m 256,0,1
 308 -103 308 -103 301.5 -120.5 c 128,-1,2
 295 -138 295 -138 280.5 -153.5 c 128,-1,3
 266 -169 266 -169 245 -180.5 c 128,-1,4
 224 -192 224 -192 200 -197 c 0,5,6
 169 -202 169 -202 136 -198.5 c 128,-1,7
 103 -195 103 -195 85 -186 c 1,8,-1
 92 -158 l 1,9,10
 109 -166 109 -166 136 -164.5 c 128,-1,11
 163 -163 163 -163 179 -158 c 0,12,13
 200 -153 200 -153 219.5 -138 c 128,-1,14
 239 -123 239 -123 238 -103 c 0,15,16
 236 -92 236 -92 226.5 -86.5 c 128,-1,17
 217 -81 217 -81 204.5 -79.5 c 128,-1,18
 192 -78 192 -78 178 -79.5 c 128,-1,19
 164 -81 164 -81 153 -82 c 1,20,21
 145 -85 145 -85 126 -89.5 c 128,-1,22
 107 -94 107 -94 100 -98 c 1,23,-1
 100 -97 l 1,24,-1
 100 -98 l 1,25,-1
 100 -97 l 1,26,-1
 101 -94 l 1,27,-1
 106 -89 l 1,28,-1
 166 7 l 1,29,-1
 239 7 l 1,30,-1
 198 -47 l 1,31,32
 213 -45 213 -45 229.5 -45 c 128,-1,33
 246 -45 246 -45 261.5 -49 c 128,-1,34
 277 -53 277 -53 288 -61.5 c 128,-1,35
 299 -70 299 -70 304 -87 c 256,0,1
EndSplineSet
EndChar
StartChar: onesuperior
Encoding: 379 185 123
Width: 272
VWidth: 1467
Flags: W
HStem: 280 411<125 179 125 179 125 125>
VStem: 116 63<280 634>
Fore
117 634 m 1,0,-1
 75 609 l 1,1,-1
 75 663 l 1,2,-1
 125 691 l 1,3,-1
 179 691 l 1,4,-1
 179 280 l 1,5,-1
 116 280 l 1,6,-1
 117 634 l 1,0,-1
EndSplineSet
EndChar
StartChar: ordmasculine
Encoding: 380 186 124
Width: 450
VWidth: 1467
Flags: W
HStem: 273 45<140.949 300.766> 586 42<145.327 299.557>
VStem: 37.5 62.5<353.807 424.635 424.635 440 440 461.758 461.758 476.85 476.85 547.104> 340 63<353.197 549.465>
Fore
38 503 m 0,0,1
 38 544 38 544 65 572 c 128,-1,2
 92 600 92 600 132.5 614 c 128,-1,3
 173 628 173 628 220.5 628 c 128,-1,4
 268 628 268 628 308.5 614 c 128,-1,5
 349 600 349 600 376 573 c 128,-1,6
 403 546 403 546 403 503 c 2,7,-1
 403 399 l 2,8,9
 403 357 403 357 376 329.5 c 128,-1,10
 349 302 349 302 308.5 287.5 c 128,-1,11
 268 273 268 273 221.5 273 c 128,-1,12
 175 273 175 273 134.5 287 c 128,-1,13
 94 301 94 301 66 329.5 c 128,-1,14
 38 358 38 358 38 399 c 0,15,16
 37 421 37 421 37.5 450.5 c 128,-1,17
 38 480 38 480 38 503 c 0,0,1
101 487 m 0,18,19
 101 483 101 483 101 472.5 c 128,-1,20
 101 462 101 462 100.5 451 c 128,-1,21
 100 440 100 440 100 429 c 128,-1,22
 100 418 100 418 100 412 c 0,23,24
 100 365 100 365 137.5 341.5 c 128,-1,25
 175 318 175 318 220.5 318 c 128,-1,26
 266 318 266 318 303 341 c 128,-1,27
 340 364 340 364 340 412 c 2,28,-1
 340 487 l 2,29,30
 340 538 340 538 303 562.5 c 128,-1,31
 266 587 266 587 221 586 c 128,-1,32
 176 585 176 585 138.5 560.5 c 128,-1,33
 101 536 101 536 101 487 c 0,18,19
EndSplineSet
EndChar
StartChar: guillemotright
Encoding: 381 187 125
Width: 607
VWidth: 1467
Flags: W
HStem: 84 363<254 337 254 254>
Fore
461 267 m 1,0,1
 445 273 445 273 417.5 292 c 128,-1,2
 390 311 390 311 360 336.5 c 128,-1,3
 330 362 330 362 300.5 391.5 c 128,-1,4
 271 421 271 421 254 447 c 1,5,-1
 335 447 l 1,6,7
 358 418 358 418 388 389.5 c 128,-1,8
 418 361 418 361 449 337 c 128,-1,9
 480 313 480 313 511.5 295 c 128,-1,10
 543 277 543 277 571 270 c 1,11,12
 515 245 515 245 450.5 198 c 128,-1,13
 386 151 386 151 337 84 c 1,14,-1
 254 84 l 1,15,16
 276 116 276 116 305.5 147 c 128,-1,17
 335 178 335 178 364 202 c 128,-1,18
 393 226 393 226 419 243.5 c 128,-1,19
 445 261 445 261 461 267 c 1,0,1
226 267 m 1,20,21
 210 273 210 273 183 292 c 128,-1,22
 156 311 156 311 125.5 336.5 c 128,-1,23
 95 362 95 362 66 391.5 c 128,-1,24
 37 421 37 421 19 447 c 1,25,-1
 100 447 l 1,26,27
 123 418 123 418 153 389.5 c 128,-1,28
 183 361 183 361 214 337 c 128,-1,29
 245 313 245 313 276.5 295 c 128,-1,30
 308 277 308 277 336 270 c 1,31,32
 280 245 280 245 215.5 198 c 128,-1,33
 151 151 151 151 103 84 c 1,34,-1
 19 84 l 1,35,36
 41 116 41 116 70.5 147 c 128,-1,37
 100 178 100 178 129 202 c 128,-1,38
 158 226 158 226 184 243.5 c 128,-1,39
 210 261 210 261 226 267 c 1,20,21
EndSplineSet
EndChar
StartChar: onequarter
Encoding: 382 188 126
Width: 883
VWidth: 1467
Flags: W
HStem: -6 21G<134 211.966> 92 61<519 669 731 779> 681 20G<115.286 205 547.062 626>
VStem: 142 63<291 644> 650 1<354.484 356.938> 669 62<7 36.0038 36.0038 78.4576 78.4576 92 153 211.635 211.635 307.485 307.485 327.427 327.427 364.789 364.789 384>
Fore
650 352 m 1,0,1
 651 354 651 354 651 354.5 c 128,-1,2
 651 355 651 355 653 357 c 1,3,-1
 651 359 l 1,4,5
 650 357 650 357 650 352 c 1,0,1
654 357 m 1,6,-1
 653 357 l 1,7,-1
 654 358 l 1,8,-1
 654 357 l 1,6,-1
144 644 m 1,9,-1
 101 619 l 1,10,-1
 101 673 l 1,11,-1
 151 701 l 1,12,-1
 205 701 l 1,13,-1
 205 291 l 1,14,-1
 142 291 l 1,15,-1
 144 644 l 1,9,-1
779 153 m 1,16,-1
 779 92 l 1,17,-1
 731 92 l 1,18,19
 731 85 731 85 730 64.5 c 128,-1,20
 729 44 729 44 731 7 c 1,21,-1
 669 7 l 1,22,23
 669 40 669 40 669 52.5 c 128,-1,24
 669 65 669 65 669 68.5 c 128,-1,25
 669 72 669 72 669 75 c 128,-1,26
 669 78 669 78 669 92 c 1,27,-1
 450 92 l 1,28,-1
 450 144 l 1,29,30
 499 219 499 219 546 289 c 128,-1,31
 593 359 593 359 629 418 c 1,32,-1
 732 418 l 1,33,34
 732 384 732 384 731.5 345.5 c 128,-1,35
 731 307 731 307 731 269.5 c 128,-1,36
 731 232 731 232 731 201 c 128,-1,37
 731 170 731 170 731 153 c 1,38,-1
 779 153 l 1,16,-1
669 153 m 1,39,40
 668 208 668 208 670 270.5 c 128,-1,41
 672 333 672 333 671 384 c 1,42,-1
 519 153 l 1,43,-1
 669 153 l 1,39,40
626 706 m 1,44,-1
 200 -6 l 1,45,-1
 134 -6 l 1,46,-1
 559 706 l 1,47,-1
 626 706 l 1,44,-1
EndSplineSet
Ligature2: "'frac' Diagonal Fractions in Latin lookup 0 subtable" one fraction four
Ligature2: "'frac' Diagonal Fractions in Latin lookup 0 subtable" one slash four
EndChar
StartChar: onehalf
Encoding: 383 189 127
Width: 883
VWidth: 1467
Flags: W
HStem: -15 21G<119 196.994> 19 53<572 772 772 785> 399 48<619.805 693.566> 677 20G<532.062 612>
VStem: 125 63<279 632>
Fore
572 72 m 1,0,1
 596 72 596 72 627.5 72 c 128,-1,2
 659 72 659 72 689.5 72 c 128,-1,3
 720 72 720 72 746 72 c 128,-1,4
 772 72 772 72 785 72 c 1,5,-1
 785 21 l 1,6,-1
 772 21 l 1,7,-1
 772 19 l 1,8,-1
 500 19 l 1,9,-1
 500 21 l 1,10,-1
 484 21 l 1,11,-1
 484 72 l 1,12,-1
 646 216 l 2,13,14
 668 238 668 238 682.5 257.5 c 128,-1,15
 697 277 697 277 710 295 c 0,16,17
 738 332 738 332 732 356.5 c 128,-1,18
 726 381 726 381 707 390 c 0,19,20
 690 399 690 399 672 399 c 128,-1,21
 654 399 654 399 644 399 c 0,22,23
 626 399 626 399 600 389.5 c 128,-1,24
 574 380 574 380 549 365 c 0,25,26
 534 357 534 357 519 345 c 1,27,-1
 519 348 l 1,28,29
 515 345 515 345 510.5 342.5 c 128,-1,30
 506 340 506 340 503 337 c 1,31,-1
 503 389 l 1,32,33
 541 421 541 421 580 434 c 128,-1,34
 619 447 619 447 649 447 c 0,35,36
 704 447 704 447 746.5 426.5 c 128,-1,37
 789 406 789 406 792 354 c 0,38,39
 794 335 794 335 784.5 305.5 c 128,-1,40
 775 276 775 276 732 226 c 0,41,42
 725 217 725 217 708 200 c 128,-1,43
 691 183 691 183 670 162.5 c 128,-1,44
 649 142 649 142 626.5 122.5 c 128,-1,45
 604 103 604 103 590 89 c 1,46,47
 581 78 581 78 572 72 c 1,0,1
126 632 m 1,48,-1
 84 607 l 1,49,-1
 84 662 l 1,50,-1
 134 690 l 1,51,-1
 188 690 l 1,52,-1
 188 279 l 1,53,-1
 125 279 l 1,54,-1
 126 632 l 1,48,-1
612 697 m 1,55,-1
 185 -15 l 1,56,-1
 119 -15 l 1,57,-1
 544 697 l 1,58,-1
 612 697 l 1,55,-1
EndSplineSet
Ligature2: "'frac' Diagonal Fractions in Latin lookup 0 subtable" one fraction two
Ligature2: "'frac' Diagonal Fractions in Latin lookup 0 subtable" one slash two
EndChar
StartChar: threequarters
Encoding: 384 190 128
Width: 883
VWidth: 1467
Flags: W
HStem: -12 21G<220 297.994> 92 61<536 685 747 795> 276 51<160.889 242.049> 644 49.5<120.885 133 133 149.779 149.779 164.455 164.455 197.423 197.423 203.594 203.594 244.154 244.154 266>
VStem: 685 62<7 36.0038 36.0038 78.4576 78.4576 92 153 211.635 211.635 307.485 307.485 327.427 327.427 364.789 364.789 384>
Fore
332 474 m 0,0,1
 364 445 364 445 366 407.5 c 128,-1,2
 368 370 368 370 346 338.5 c 128,-1,3
 324 307 324 307 281 287.5 c 128,-1,4
 238 268 238 268 180 276 c 0,5,6
 173 276 173 276 160.5 276.5 c 128,-1,7
 148 277 148 277 134 279.5 c 128,-1,8
 120 282 120 282 105.5 285.5 c 128,-1,9
 91 289 91 289 82 293 c 1,10,-1
 79 351 l 1,11,12
 106 340 106 340 129.5 334.5 c 128,-1,13
 153 329 153 329 185 327 c 0,14,15
 236 326 236 326 264 346.5 c 128,-1,16
 292 367 292 367 292 401 c 0,17,18
 292 425 292 425 279.5 440 c 128,-1,19
 267 455 267 455 245.5 461.5 c 128,-1,20
 224 468 224 468 195.5 469.5 c 128,-1,21
 167 471 167 471 135 470 c 1,22,-1
 135 540 l 1,23,24
 160 540 160 540 164 541 c 2,25,26
 182 543 182 543 205.5 548 c 128,-1,27
 229 553 229 553 245 560 c 0,28,29
 273 572 273 572 282 590.5 c 128,-1,30
 291 609 291 609 271 628 c 0,31,32
 258 641 258 641 233 646 c 128,-1,33
 208 651 208 651 182 651 c 0,34,35
 153 650 153 650 133 644 c 128,-1,36
 113 638 113 638 88 631 c 1,37,-1
 91 682 l 1,38,39
 117 690 117 690 135 693.5 c 128,-1,40
 153 697 153 697 173 698 c 0,41,42
 195 701 195 701 222 699.5 c 128,-1,43
 249 698 249 698 266 693 c 0,44,45
 293 684 293 684 319.5 666.5 c 128,-1,46
 346 649 346 649 351 613 c 0,47,48
 357 566 357 566 320 542 c 128,-1,49
 283 518 283 518 230 508 c 1,50,-1
 230 506 l 1,51,52
 257 506 257 506 287 496 c 128,-1,53
 317 486 317 486 332 474 c 0,0,1
795 153 m 1,54,-1
 795 92 l 1,55,-1
 747 92 l 1,56,57
 747 85 747 85 746 64.5 c 128,-1,58
 745 44 745 44 747 7 c 1,59,-1
 685 7 l 1,60,61
 685 40 685 40 685 52.5 c 128,-1,62
 685 65 685 65 685 68.5 c 128,-1,63
 685 72 685 72 685 75 c 128,-1,64
 685 78 685 78 685 92 c 1,65,-1
 467 92 l 1,66,-1
 467 144 l 1,67,68
 515 219 515 219 562 289 c 128,-1,69
 609 359 609 359 646 418 c 1,70,-1
 748 418 l 1,71,72
 748 384 748 384 747.5 345.5 c 128,-1,73
 747 307 747 307 747 269.5 c 128,-1,74
 747 232 747 232 747 201 c 128,-1,75
 747 170 747 170 747 153 c 1,76,-1
 795 153 l 1,54,-1
685 153 m 1,77,78
 684 208 684 208 686 270.5 c 128,-1,79
 688 333 688 333 687 384 c 1,80,-1
 536 153 l 1,81,-1
 685 153 l 1,77,78
713 700 m 1,82,-1
 286 -12 l 1,83,-1
 220 -12 l 1,84,-1
 646 700 l 1,85,-1
 713 700 l 1,82,-1
EndSplineSet
Ligature2: "'frac' Diagonal Fractions in Latin lookup 0 subtable" three fraction four
Ligature2: "'frac' Diagonal Fractions in Latin lookup 0 subtable" three slash four
EndChar
StartChar: questiondown
Encoding: 385 191 129
Width: 616
VWidth: 1467
Flags: W
HStem: 383 132<273.47 332.268>
VStem: 258 106<399.596 494.373> 267 90<210.687 248 251.5 262.563 262.563 265.359 265.359 301.515 301.515 316.679> 465.5 60.5<-64.002 -39.5 -39.5 -8.95361>
Fore
314 -34 m 0,0,1
 320 -10 320 -10 334 11 c 128,-1,2
 348 32 348 32 366 48.5 c 128,-1,3
 384 65 384 65 406 73 c 128,-1,4
 428 81 428 81 452 76 c 0,5,6
 472 73 472 73 487.5 57 c 128,-1,7
 503 41 503 41 513.5 19 c 128,-1,8
 524 -3 524 -3 526 -29.5 c 128,-1,9
 528 -56 528 -56 522 -79 c 0,10,11
 519 -97 519 -97 515.5 -108 c 128,-1,12
 512 -119 512 -119 505 -131 c 0,13,14
 480 -169 480 -169 449 -190 c 128,-1,15
 418 -211 418 -211 364 -224 c 0,16,17
 286 -238 286 -238 223.5 -214.5 c 128,-1,18
 161 -191 161 -191 125 -144.5 c 128,-1,19
 89 -98 89 -98 87 -37.5 c 128,-1,20
 85 23 85 23 129 82 c 0,21,22
 142 100 142 100 160 114 c 128,-1,23
 178 128 178 128 195.5 142.5 c 128,-1,24
 213 157 213 157 228.5 173 c 128,-1,25
 244 189 244 189 251 210 c 0,26,27
 258 232 258 232 262 251.5 c 128,-1,28
 266 271 266 271 267 286 c 0,29,30
 268 302 268 302 267 317 c 1,31,-1
 354 318 l 1,32,33
 357 304 357 304 357 286 c 0,34,35
 357 270 357 270 353 248 c 128,-1,36
 349 226 349 226 337 197 c 0,37,38
 329 173 329 173 309 152 c 128,-1,39
 289 131 289 131 268 113 c 0,40,41
 245 92 245 92 219 75 c 1,42,43
 175 32 175 32 166.5 -12.5 c 128,-1,44
 158 -57 158 -57 174.5 -94.5 c 128,-1,45
 191 -132 191 -132 226 -156 c 128,-1,46
 261 -180 261 -180 304 -180 c 0,47,48
 317 -180 317 -180 339 -178 c 128,-1,49
 361 -176 361 -176 377 -167 c 1,50,51
 361 -161 361 -161 347 -151.5 c 128,-1,52
 333 -142 333 -142 324 -127 c 128,-1,53
 315 -112 315 -112 312.5 -89.5 c 128,-1,54
 310 -67 310 -67 314 -34 c 0,0,1
461 -69 m 0,55,56
 464 -56 464 -56 465.5 -39.5 c 128,-1,57
 467 -23 467 -23 464.5 -8.5 c 128,-1,58
 462 6 462 6 457 16 c 128,-1,59
 452 26 452 26 442 29 c 0,60,61
 433 31 433 31 422.5 25 c 128,-1,62
 412 19 412 19 402.5 9 c 128,-1,63
 393 -1 393 -1 386 -14.5 c 128,-1,64
 379 -28 379 -28 376 -41 c 0,65,66
 368 -67 368 -67 372 -95 c 128,-1,67
 376 -123 376 -123 396 -131 c 0,68,69
 417 -136 417 -136 435 -115 c 128,-1,70
 453 -94 453 -94 461 -69 c 0,55,56
310 383 m 1,71,72
 288 380 288 380 273 399 c 128,-1,73
 258 418 258 418 258 447 c 0,74,75
 258 475 258 475 273 495 c 128,-1,76
 288 515 288 515 310 515 c 0,77,78
 335 515 335 515 350 495 c 128,-1,79
 365 475 365 475 364 447 c 0,80,81
 364 418 364 418 348 399 c 128,-1,82
 332 380 332 380 310 383 c 1,71,72
EndSplineSet
EndChar
StartChar: Aring
Encoding: 390 197 134
Width: 764
VWidth: 1467
Flags: W
HStem: 0 21G<91 171.929 594.408 675> 211 59<235 527> 646.5 84.5<345.922 392.422>
VStem: 264 62<781.923 838.071> 434 60<756.782 835.442>
Fore
527 562 m 0,0,1
 562 420 562 420 598 280.5 c 128,-1,2
 634 141 634 141 675 0 c 1,3,-1
 600 0 l 1,4,-1
 541 211 l 1,5,-1
 219 211 l 1,6,-1
 167 0 l 1,7,-1
 91 0 l 1,8,-1
 222 533 l 2,9,10
 230 562 230 562 239.5 589 c 128,-1,11
 249 616 249 616 261.5 638 c 128,-1,12
 274 660 274 660 291 677 c 128,-1,13
 308 694 308 694 333 701 c 1,14,15
 302 716 302 716 283 745.5 c 128,-1,16
 264 775 264 775 264 810 c 0,17,18
 266 858 266 858 299.5 891 c 128,-1,19
 333 924 333 924 380 924 c 0,20,21
 402 924 402 924 422.5 915.5 c 128,-1,22
 443 907 443 907 459 890.5 c 128,-1,23
 475 874 475 874 484.5 853 c 128,-1,24
 494 832 494 832 494 808 c 0,25,26
 496 772 496 772 474.5 742.5 c 128,-1,27
 453 713 453 713 423 700 c 1,28,29
 470 684 470 684 492.5 644 c 128,-1,30
 515 604 515 604 527 562 c 0,0,1
380 882 m 0,31,32
 354 880 354 880 339 857.5 c 128,-1,33
 324 835 324 835 326 810 c 0,34,35
 326 782 326 782 339 757 c 128,-1,36
 352 732 352 732 380 731 c 0,37,38
 406 731 406 731 420 756 c 128,-1,39
 434 781 434 781 434 810 c 0,40,41
 436 835 436 835 421 857.5 c 128,-1,42
 406 880 406 880 380 882 c 0,31,32
527 270 m 1,43,-1
 465 508 l 2,44,45
 455 536 455 536 447.5 558 c 128,-1,46
 440 580 440 580 431 599 c 0,47,48
 421 624 421 624 405.5 635.5 c 128,-1,49
 390 647 390 647 374.5 646.5 c 128,-1,50
 359 646 359 646 345.5 634 c 128,-1,51
 332 622 332 622 324 602 c 0,52,53
 318 587 318 587 314.5 576 c 128,-1,54
 311 565 311 565 308 554.5 c 128,-1,55
 305 544 305 544 303 533 c 128,-1,56
 301 522 301 522 296 508 c 2,57,-1
 235 270 l 1,58,-1
 527 270 l 1,43,-1
EndSplineSet
EndChar
StartChar: AE
Encoding: 391 198 135
Width: 1113
VWidth: 1467
Flags: W
HStem: 1 77<793.12 1043> 230 69<257 550> 314 69<647 932> 644 76<777.562 1043>
VStem: 550 76<1 79> 552 95<191.584 230 301 314 383 521 546.5 564.719>
Fore
841 644 m 2,0,1
 803 644 803 644 769 639.5 c 128,-1,2
 735 635 735 635 708.5 621 c 128,-1,3
 682 607 682 607 666 578.5 c 128,-1,4
 650 550 650 550 646 500 c 2,5,-1
 647 383 l 1,6,-1
 932 383 l 1,7,-1
 932 314 l 1,8,-1
 647 314 l 1,9,-1
 647 254 l 2,10,11
 644 201 644 201 657.5 167.5 c 128,-1,12
 671 134 671 134 697 114.5 c 128,-1,13
 723 95 723 95 760.5 87 c 128,-1,14
 798 79 798 79 841 78 c 2,15,-1
 1043 78 l 1,16,-1
 1043 1 l 1,17,-1
 844 1 l 2,18,19
 775 3 775 3 718.5 17 c 128,-1,20
 662 31 662 31 626 79 c 1,21,-1
 626 1 l 1,22,-1
 550 1 l 1,23,-1
 550 230 l 1,24,-1
 220 230 l 1,25,-1
 101 1 l 1,26,-1
 18 1 l 1,27,-1
 295 546 l 2,28,29
 311 580 311 580 329.5 612 c 128,-1,30
 348 644 348 644 372 669.5 c 128,-1,31
 396 695 396 695 427 710.5 c 128,-1,32
 458 726 458 726 497 726 c 0,33,34
 519 726 519 726 539.5 719 c 128,-1,35
 560 712 560 712 576.5 699.5 c 128,-1,36
 593 687 593 687 604.5 670.5 c 128,-1,37
 616 654 616 654 619 638 c 1,38,39
 653 687 653 687 714 703 c 128,-1,40
 775 719 775 719 844 720 c 2,41,-1
 1043 720 l 1,42,-1
 1043 644 l 1,43,-1
 841 644 l 2,0,1
552 521 m 2,44,45
 552 537 552 537 552 546.5 c 128,-1,46
 552 556 552 556 552.5 565 c 128,-1,47
 553 574 553 574 552.5 583.5 c 128,-1,48
 552 593 552 593 549 607 c 0,49,50
 546 634 546 634 528.5 645 c 128,-1,51
 511 656 511 656 488 654.5 c 128,-1,52
 465 653 465 653 442.5 640.5 c 128,-1,53
 420 628 420 628 406 606 c 0,54,55
 398 591 398 591 392.5 582.5 c 128,-1,56
 387 574 387 574 383.5 565 c 128,-1,57
 380 556 380 556 375.5 546 c 128,-1,58
 371 536 371 536 362 521 c 2,59,-1
 257 299 l 1,60,-1
 552 301 l 1,61,-1
 552 521 l 2,44,45
EndSplineSet
EndChar
StartChar: Eth
Encoding: 401 208 145
Width: 782
VWidth: 1467
Flags: W
HStem: -9 66<185 310.387> 308 69<0 98 185 392> 643 63.5<186.201 292.91>
VStem: 98 87<57 308 377 643> 578 88<210.819 489.697>
Fore
98 709 m 1,0,1
 167 709 167 709 235.5 706.5 c 128,-1,2
 304 704 304 704 367 694 c 128,-1,3
 430 684 430 684 484 661 c 128,-1,4
 538 638 538 638 578 598.5 c 128,-1,5
 618 559 618 559 641.5 498 c 128,-1,6
 665 437 665 437 666 351 c 0,7,8
 665 254 665 254 639 189.5 c 128,-1,9
 613 125 613 125 570.5 85 c 128,-1,10
 528 45 528 45 471.5 25.5 c 128,-1,11
 415 6 415 6 352 -1.5 c 128,-1,12
 289 -9 289 -9 223.5 -9 c 128,-1,13
 158 -9 158 -9 98 -9 c 1,14,-1
 98 308 l 1,15,-1
 0 308 l 1,16,-1
 0 377 l 1,17,-1
 98 377 l 1,18,-1
 98 709 l 1,0,1
185 57 m 1,19,20
 299 53 299 53 374 67 c 128,-1,21
 449 81 449 81 493 116 c 128,-1,22
 537 151 537 151 556 209 c 128,-1,23
 575 267 575 267 578 351 c 256,24,25
 581 434 581 434 559.5 491.5 c 128,-1,26
 538 549 538 549 491.5 582.5 c 128,-1,27
 445 616 445 616 368.5 630 c 128,-1,28
 292 644 292 644 185 643 c 1,29,-1
 185 377 l 1,30,-1
 392 377 l 1,31,-1
 392 308 l 1,32,-1
 185 308 l 1,33,-1
 185 57 l 1,19,20
EndSplineSet
EndChar
StartChar: multiply
Encoding: 408 215 152
Width: 660
VWidth: 1467
Flags: W
HStem: -6 21G<63.5714 116 518.877 575.714>
Fore
538 -6 m 1,0,-1
 320 222 l 1,1,2
 288 188 288 188 260 159.5 c 128,-1,3
 232 131 232 131 205.5 105 c 128,-1,4
 179 79 179 79 154 53.5 c 128,-1,5
 129 28 129 28 103 0 c 1,6,-1
 34 35 l 1,7,-1
 270 271 l 1,8,-1
 34 521 l 1,9,-1
 100 556 l 1,10,-1
 327 315 l 1,11,-1
 560 553 l 1,12,-1
 619 514 l 1,13,-1
 373 267 l 1,14,-1
 604 29 l 1,15,-1
 538 -6 l 1,0,-1
EndSplineSet
EndChar
StartChar: Oslash
Encoding: 409 216 153
Width: 752
VWidth: 1467
Flags: W
HStem: -9.5 60<274.688 303 322 340.646 340.646 348 344.323 446.73> 649 63<325.276 422.421>
VStem: 100 85<151.875 575.668> 565 85<118.847 584.722>
Fore
566 662 m 1,0,1
 604 640 604 640 627 606 c 128,-1,2
 650 572 650 572 650 528 c 2,3,-1
 650 167 l 2,4,5
 650 123 650 123 626 89.5 c 128,-1,6
 602 56 602 56 562 33 c 128,-1,7
 522 10 522 10 471 -1.5 c 128,-1,8
 420 -13 420 -13 367 -15 c 0,9,10
 333 -15 333 -15 303 -9.5 c 128,-1,11
 273 -4 273 -4 246 4 c 1,12,-1
 226 -37 l 1,13,-1
 136 -37 l 1,14,-1
 175 41 l 1,15,16
 100 94 100 94 100 167 c 2,17,-1
 100 528 l 2,18,19
 100 577 100 577 128 613 c 128,-1,20
 156 649 156 649 199 671.5 c 128,-1,21
 242 694 242 694 295 704.5 c 128,-1,22
 348 715 348 715 396 712 c 0,23,24
 421 709 421 709 445.5 705 c 128,-1,25
 470 701 470 701 493 694 c 1,26,-1
 511 729 l 1,27,-1
 599 729 l 1,28,-1
 566 662 l 1,0,1
185 186 m 2,29,30
 185 161 185 161 191 142 c 128,-1,31
 197 123 197 123 207 109 c 1,32,-1
 467 638 l 1,33,34
 425 649 425 649 374 649 c 0,35,36
 339 649 339 649 305 642 c 128,-1,37
 271 635 271 635 245 619 c 128,-1,38
 219 603 219 603 202 576.5 c 128,-1,39
 185 550 185 550 185 509 c 2,40,-1
 185 186 l 2,29,30
565 509 m 2,41,42
 565 563 565 563 534 597 c 1,43,-1
 274 62 l 1,44,45
 296 54 296 54 322 50.5 c 128,-1,46
 348 47 348 47 374 47 c 0,47,48
 409 47 409 47 443.5 53.5 c 128,-1,49
 478 60 478 60 505.5 75.5 c 128,-1,50
 533 91 533 91 549 118 c 128,-1,51
 565 145 565 145 565 186 c 2,52,-1
 565 509 l 2,41,42
EndSplineSet
EndChar
StartChar: Thorn
Encoding: 415 222 159
Width: 701
VWidth: 1467
Flags: W
HStem: 94 60<313.094 440.445> 549 62<265.327 308.5 308.5 329.578 329.578 330.911 330.911 425.098> 681 20G<100 178>
VStem: 100 78<6 157 229 459 546 701>
Fore
348 613 m 0,0,1
 423 612 423 612 475 587.5 c 128,-1,2
 527 563 527 563 559 523 c 128,-1,3
 591 483 591 483 604.5 431 c 128,-1,4
 618 379 618 379 615 323 c 0,5,6
 612 279 612 279 593 237 c 128,-1,7
 574 195 574 195 541 163.5 c 128,-1,8
 508 132 508 132 464 113 c 128,-1,9
 420 94 420 94 370 94 c 0,10,11
 327 94 327 94 297.5 100 c 128,-1,12
 268 106 268 106 247.5 114.5 c 128,-1,13
 227 123 227 123 211 134 c 128,-1,14
 195 145 195 145 178 157 c 1,15,-1
 178 6 l 1,16,-1
 100 6 l 1,17,-1
 100 701 l 1,18,-1
 178 701 l 1,19,-1
 178 546 l 1,20,21
 191 565 191 565 214.5 578 c 128,-1,22
 238 591 238 591 264.5 599 c 128,-1,23
 291 607 291 607 313.5 611 c 128,-1,24
 336 615 336 615 348 613 c 0,0,1
528 327 m 0,25,26
 533 370 533 370 524 408 c 128,-1,27
 515 446 515 446 493 476 c 128,-1,28
 471 506 471 506 435 526.5 c 128,-1,29
 399 547 399 547 349 553 c 0,30,31
 332 555 332 555 308.5 549 c 128,-1,32
 285 543 285 543 260.5 531 c 128,-1,33
 236 519 236 519 214 501 c 128,-1,34
 192 483 192 483 178 459 c 1,35,-1
 178 229 l 1,36,37
 211 197 211 197 253.5 174 c 128,-1,38
 296 151 296 151 359 154 c 0,39,40
 434 157 434 157 477.5 204.5 c 128,-1,41
 521 252 521 252 528 327 c 0,25,26
EndSplineSet
EndChar
StartChar: uni00DF
Encoding: 416 223 160
Width: 793
VWidth: 1467
Flags: W
HStem: -125 59<4 79.7715> -3 68<298 441.83 441.83 447.357 447.357 483.5 493.5 530.075> 376 96<336 372.5 372.5 439.196> 643 66<227.593 473.125>
VStem: 114 87.5<-50.923 -19.5 -19.5 26.1888 27.813 34.4475 34.4475 201.269 201.269 321.362 321.362 558.238> 527 86<541.766 620.984> 600 91<134.553 289.712>
Fore
461 424 m 1,0,1
 487 418 487 418 526 409.5 c 128,-1,2
 565 401 565 401 601.5 379 c 128,-1,3
 638 357 638 357 664.5 317 c 128,-1,4
 691 277 691 277 691 210 c 0,5,6
 691 136 691 136 660 94.5 c 128,-1,7
 629 53 629 53 585 31 c 128,-1,8
 541 9 541 9 493.5 3 c 128,-1,9
 446 -3 446 -3 412 -3 c 2,10,-1
 298 -3 l 1,11,-1
 298 65 l 1,12,-1
 423 65 l 2,13,14
 452 65 452 65 483.5 70.5 c 128,-1,15
 515 76 515 76 540.5 92.5 c 128,-1,16
 566 109 566 109 583 138 c 128,-1,17
 600 167 600 167 600 214 c 0,18,19
 600 258 600 258 581 288 c 128,-1,20
 562 318 562 318 533.5 336.5 c 128,-1,21
 505 355 505 355 471 364 c 128,-1,22
 437 373 437 373 409 376 c 2,23,-1
 336 376 l 1,24,-1
 336 468 l 1,25,-1
 409 472 l 2,26,27
 431 472 431 472 451.5 479 c 128,-1,28
 472 486 472 486 488.5 498.5 c 128,-1,29
 505 511 505 511 516 527 c 128,-1,30
 527 543 527 543 527 563 c 0,31,32
 528 609 528 609 498 626.5 c 128,-1,33
 468 644 468 644 423 643 c 2,34,-1
 307 643 l 2,35,36
 251 644 251 644 226 620 c 128,-1,37
 201 596 201 596 201 524 c 0,38,39
 201 458 201 458 201 387.5 c 128,-1,40
 201 317 201 317 201.5 255.5 c 128,-1,41
 202 194 202 194 202 147.5 c 128,-1,42
 202 101 202 101 202 84 c 0,43,44
 205 23 205 23 198 -17 c 128,-1,45
 191 -57 191 -57 169.5 -81.5 c 128,-1,46
 148 -106 148 -106 113.5 -115.5 c 128,-1,47
 79 -125 79 -125 26 -125 c 2,48,-1
 4 -125 l 1,49,-1
 4 -66 l 1,50,-1
 26 -66 l 2,51,52
 70 -66 70 -66 90 -53 c 128,-1,53
 110 -40 110 -40 115 -19.5 c 128,-1,54
 120 1 120 1 117 27 c 128,-1,55
 114 53 114 53 114 81 c 2,56,-1
 113 528 l 2,57,58
 114 540 114 540 118 569.5 c 128,-1,59
 122 599 122 599 136.5 629.5 c 128,-1,60
 151 660 151 660 181 684.5 c 128,-1,61
 211 709 211 709 267 709 c 2,62,-1
 424 709 l 2,63,64
 456 709 456 709 490 703 c 128,-1,65
 524 697 524 697 551 681.5 c 128,-1,66
 578 666 578 666 595 638 c 128,-1,67
 612 610 612 610 613 566 c 0,68,69
 613 528 613 528 598.5 504 c 128,-1,70
 584 480 584 480 561 464.5 c 128,-1,71
 538 449 538 449 511 439.5 c 128,-1,72
 484 430 484 430 461 424 c 1,0,1
EndSplineSet
EndChar
StartChar: ae
Encoding: 423 230 167
Width: 999
VWidth: 1467
Flags: W
HStem: 220 54<521 784.914> 459.5 50.5<654.548 730.031>
VStem: 63 73<73.3915 180.579> 443 78<138 220 274 276 334.86 397.56> 860 66<307.688 346 346 387.674>
Fore
577 67 m 0,0,1
 606 50 606 50 649.5 43.5 c 128,-1,2
 693 37 693 37 737 42 c 128,-1,3
 781 47 781 47 816.5 67.5 c 128,-1,4
 852 88 852 88 869 126 c 1,5,-1
 923 95 l 1,6,7
 899 47 899 47 849.5 21.5 c 128,-1,8
 800 -4 800 -4 741 -11 c 128,-1,9
 682 -18 682 -18 625 -7.5 c 128,-1,10
 568 3 568 3 530 25 c 0,11,12
 528 26 528 26 521 31.5 c 128,-1,13
 514 37 514 37 505 44 c 128,-1,14
 496 51 496 51 488 59 c 128,-1,15
 480 67 480 67 477 75 c 1,16,17
 477 76 477 76 474 71 c 128,-1,18
 471 66 471 66 459 54 c 0,19,20
 427 21 427 21 362.5 -2 c 128,-1,21
 298 -25 298 -25 211 -9 c 0,22,23
 183 -3 183 -3 157 8 c 128,-1,24
 131 19 131 19 109.5 36 c 128,-1,25
 88 53 88 53 75.5 75.5 c 128,-1,26
 63 98 63 98 63 128 c 0,27,28
 63 178 63 178 88 206.5 c 128,-1,29
 113 235 113 235 150.5 251 c 128,-1,30
 188 267 188 267 232.5 275 c 128,-1,31
 277 283 277 283 315 292 c 0,32,33
 329 295 329 295 349.5 300 c 128,-1,34
 370 305 370 305 390.5 314 c 128,-1,35
 411 323 411 323 425.5 334.5 c 128,-1,36
 440 346 440 346 440 362 c 0,37,38
 440 402 440 402 393 436 c 0,39,40
 367 455 367 455 329.5 461 c 128,-1,41
 292 467 292 467 250 462.5 c 128,-1,42
 208 458 208 458 167 444.5 c 128,-1,43
 126 431 126 431 94 415 c 1,44,-1
 117 477 l 1,45,46
 154 494 154 494 195 504 c 128,-1,47
 236 514 236 514 278 514.5 c 128,-1,48
 320 515 320 515 359.5 507 c 128,-1,49
 399 499 399 499 433 483 c 0,50,51
 468 467 468 467 487 434 c 1,52,53
 508 459 508 459 541 478 c 0,54,55
 569 494 569 494 607.5 502.5 c 128,-1,56
 646 511 646 511 687.5 510 c 128,-1,57
 729 509 729 509 769.5 499 c 128,-1,58
 810 489 810 489 844 470 c 0,59,60
 876 450 876 450 899.5 420 c 128,-1,61
 923 390 923 390 926 351 c 0,62,63
 927 308 927 308 918.5 281 c 128,-1,64
 910 254 910 254 883.5 240 c 128,-1,65
 857 226 857 226 810.5 221.5 c 128,-1,66
 764 217 764 217 693 220 c 2,67,-1
 521 220 l 1,68,-1
 521 138 l 1,69,70
 528 113 528 113 540 98.5 c 128,-1,71
 552 84 552 84 577 67 c 0,0,1
577 428 m 0,72,73
 552 412 552 412 540 398 c 128,-1,74
 528 384 528 384 521 358 c 1,75,-1
 521 354 l 1,76,-1
 521 274 l 1,77,-1
 693 274 l 2,78,79
 782 273 782 273 821.5 284 c 128,-1,80
 861 295 861 295 860 346 c 0,81,82
 858 362 858 362 841.5 388.5 c 128,-1,83
 825 415 825 415 803 430 c 0,84,85
 776 447 776 447 746 454 c 128,-1,86
 716 461 716 461 686 459.5 c 128,-1,87
 656 458 656 458 627.5 450 c 128,-1,88
 599 442 599 442 577 428 c 0,72,73
443 276 m 1,89,90
 414 260 414 260 384 251 c 128,-1,91
 354 242 354 242 320 236 c 0,92,93
 271.5 227.5 l 0,94,95
 223 219 223 219 196.5 208 c 128,-1,96
 170 197 170 197 153 178.5 c 128,-1,97
 136 160 136 160 136 128 c 0,98,99
 136 88 136 88 160.5 68 c 128,-1,100
 185 48 185 48 223 44 c 0,101,102
 273 37 273 37 309 43.5 c 128,-1,103
 345 50 345 50 371.5 63 c 128,-1,104
 398 76 398 76 414.5 94 c 128,-1,105
 431 112 431 112 443 129 c 1,106,-1
 443 276 l 1,89,90
EndSplineSet
EndChar
StartChar: eth
Encoding: 433 240 177
Width: 729
VWidth: 1467
Flags: W
HStem: 4 65<319.749 411.672> 370 66<281.163 436.708>
VStem: 78 69.5<176.563 258.757>
Fore
619 301 m 0,0,1
 626 266 626 266 623.5 224 c 128,-1,2
 621 182 621 182 604.5 143 c 128,-1,3
 588 104 588 104 556 71 c 128,-1,4
 524 38 524 38 472 21 c 0,5,6
 453 13 453 13 420 8.5 c 128,-1,7
 387 4 387 4 349 4 c 128,-1,8
 311 4 311 4 273 11.5 c 128,-1,9
 235 19 235 19 205 35 c 0,10,11
 192 43 192 43 171 56.5 c 128,-1,12
 150 70 150 70 129.5 92 c 128,-1,13
 109 114 109 114 94 146.5 c 128,-1,14
 79 179 79 179 78 224 c 0,15,16
 76 266 76 266 88.5 297.5 c 128,-1,17
 101 329 101 329 118.5 351.5 c 128,-1,18
 136 374 136 374 155.5 388 c 128,-1,19
 175 402 175 402 186 408 c 0,20,21
 210 421 210 421 254 429 c 128,-1,22
 298 437 298 437 336 436 c 0,23,24
 395 433 395 433 444.5 411 c 128,-1,25
 494 389 494 389 524 371 c 1,26,27
 518 383 518 383 506 404 c 128,-1,28
 494 425 494 425 479 450 c 128,-1,29
 464 475 464 475 447.5 500 c 128,-1,30
 431 525 431 525 418 544 c 1,31,-1
 280 483 l 1,32,-1
 248 538 l 1,33,-1
 377 594 l 1,34,35
 352 629 352 629 330 656.5 c 128,-1,36
 308 684 308 684 274 719 c 1,37,-1
 357 719 l 1,38,39
 384 685 384 685 402.5 664.5 c 128,-1,40
 421 644 421 644 442 616 c 1,41,-1
 563 672 l 1,42,-1
 590 619 l 1,43,-1
 472 568 l 1,44,45
 506 528 506 528 534 484 c 0,46,47
 559 446 559 446 583 399 c 128,-1,48
 607 352 607 352 619 301 c 0,0,1
361 69 m 0,49,50
 417 67 417 67 453 81 c 128,-1,51
 489 95 489 95 510 117 c 128,-1,52
 531 139 531 139 540.5 165.5 c 128,-1,53
 550 192 550 192 553 217 c 128,-1,54
 556 242 556 242 553 262 c 128,-1,55
 550 282 550 282 549 289 c 1,56,57
 508 330 508 330 453 349 c 128,-1,58
 398 368 398 368 333 370 c 0,59,60
 286 371 286 371 246.5 358.5 c 128,-1,61
 207 346 207 346 182 317 c 0,62,63
 160 291 160 291 152.5 264.5 c 128,-1,64
 145 238 145 238 147.5 216 c 128,-1,65
 150 194 150 194 158 176 c 128,-1,66
 166 158 166 158 173 148 c 0,67,68
 192 120 192 120 218 104 c 128,-1,69
 244 88 244 88 269.5 80.5 c 128,-1,70
 295 73 295 73 319 71 c 128,-1,71
 343 69 343 69 361 69 c 0,49,50
EndSplineSet
EndChar
StartChar: divide
Encoding: 440 247 184
Width: 652
VWidth: 1467
Flags: W
HStem: 29 157<275.607 353.72> 246 74<48 594> 384 157<266.607 345.283>
VStem: 248 116<407.721 516.279> 257 116<52.7209 161.279>
Fore
305 384 m 0,0,1
 280 384 280 384 264 407 c 128,-1,2
 248 430 248 430 248 462 c 256,3,4
 248 494 248 494 265 517 c 128,-1,5
 282 540 282 540 305 541 c 0,6,7
 330 540 330 540 347.5 517 c 128,-1,8
 365 494 365 494 364 462 c 0,9,10
 364 430 364 430 346.5 407 c 128,-1,11
 329 384 329 384 305 384 c 0,0,1
314 186 m 0,12,13
 339 185 339 185 356.5 162 c 128,-1,14
 374 139 374 139 373 107 c 0,15,16
 373 75 373 75 355 52 c 128,-1,17
 337 29 337 29 314 29 c 0,18,19
 289 29 289 29 273 52 c 128,-1,20
 257 75 257 75 257 107 c 256,21,22
 257 139 257 139 274 162 c 128,-1,23
 291 185 291 185 314 186 c 0,12,13
594 320 m 1,24,-1
 594 246 l 1,25,-1
 48 246 l 1,26,-1
 48 320 l 1,27,-1
 594 320 l 1,24,-1
EndSplineSet
EndChar
StartChar: oslash
Encoding: 441 248 185
Width: 625
VWidth: 1467
Flags: W
HStem: -4 47<248 308.418> 446 51<314.664 373.994> 455.5 51.5<216.932 342.99>
VStem: 66.5 72.5<131.424 187.331 187.331 230.485 230.485 278.304 278.304 315.973 315.973 377.387> 471 72<114.097 238.877 238.877 268.146 268.146 357.092>
Fore
543 324 m 0,0,1
 543 291 543 291 543 274 c 128,-1,2
 543 257 543 257 543 249.5 c 128,-1,3
 543 242 543 242 543 239 c 128,-1,4
 543 236 543 236 543 230 c 128,-1,5
 543 224 543 224 543 211 c 128,-1,6
 543 198 543 198 543 169 c 0,7,8
 543 113 543 113 512 74 c 128,-1,9
 481 35 481 35 435 13 c 128,-1,10
 389 -9 389 -9 333 -13.5 c 128,-1,11
 277 -18 277 -18 226 -4 c 1,12,-1
 210 -37 l 1,13,-1
 128 -37 l 1,14,-1
 157 23 l 1,15,16
 119 47 119 47 94 83 c 128,-1,17
 69 119 69 119 67 169 c 0,18,19
 67 182 67 182 66.5 206 c 128,-1,20
 66 230 66 230 66 255 c 128,-1,21
 66 280 66 280 65.5 301.5 c 128,-1,22
 65 323 65 323 65 330 c 0,23,24
 67 386 67 386 99 424 c 128,-1,25
 131 462 131 462 177.5 482.5 c 128,-1,26
 224 503 224 503 280.5 507 c 128,-1,27
 337 511 337 511 389 497 c 1,28,-1
 405 530 l 1,29,-1
 486 530 l 1,30,-1
 456 471 l 1,31,32
 494 447 494 447 518.5 411.5 c 128,-1,33
 543 376 543 376 543 324 c 0,0,1
364 446 m 1,34,35
 327 459 327 459 287.5 455.5 c 128,-1,36
 248 452 248 452 215 433 c 128,-1,37
 182 414 182 414 160.5 378.5 c 128,-1,38
 139 343 139 343 139 292 c 2,39,-1
 139 198 l 2,40,41
 139 160 139 160 151.5 130.5 c 128,-1,42
 164 101 164 101 185 81 c 1,43,-1
 364 446 l 1,34,35
248 43 m 1,44,45
 283 31 283 31 322 34.5 c 128,-1,46
 361 38 361 38 394 58 c 128,-1,47
 427 78 427 78 448.5 113 c 128,-1,48
 470 148 470 148 471 198 c 0,49,50
 471 220 471 220 471 224.5 c 128,-1,51
 471 229 471 229 471 232 c 128,-1,52
 471 235 471 235 470.5 246 c 128,-1,53
 470 257 470 257 470 291 c 0,54,55
 470 329 470 329 458 358 c 128,-1,56
 446 387 446 387 425 408 c 1,57,-1
 248 43 l 1,44,45
65 324 m 1,58,-1
 65 330 l 1,59,-1
 65 324 l 1,58,-1
EndSplineSet
EndChar
StartChar: thorn
Encoding: 447 254 191
Width: 711
VWidth: 1467
Flags: W
HStem: -213 21G<100 178> -15 60<313.094 440.445> 440 62.5<265.327 308.5 308.5 330.911 330.911 331.724 331.724 425.098> 684 20G<100 178>
VStem: 100 78<-211 48 120 351 437 703>
Fore
348 505 m 0,0,1
 423 503 423 503 475 479 c 128,-1,2
 527 455 527 455 559 414.5 c 128,-1,3
 591 374 591 374 604.5 322 c 128,-1,4
 618 270 618 270 615 214 c 0,5,6
 612 170 612 170 593 128.5 c 128,-1,7
 574 87 574 87 541 55 c 128,-1,8
 508 23 508 23 464 4 c 128,-1,9
 420 -15 420 -15 370 -15 c 0,10,11
 327 -15 327 -15 297.5 -9 c 128,-1,12
 268 -3 268 -3 247.5 6 c 128,-1,13
 227 15 227 15 211 26 c 128,-1,14
 195 37 195 37 178 48 c 1,15,-1
 178 -211 l 1,16,-1
 100 -213 l 1,17,-1
 100 703 l 1,18,-1
 178 704 l 1,19,-1
 178 437 l 1,20,21
 191 456 191 456 214.5 469.5 c 128,-1,22
 238 483 238 483 264.5 491 c 128,-1,23
 291 499 291 499 313.5 502.5 c 128,-1,24
 336 506 336 506 348 505 c 0,0,1
528 219 m 0,25,26
 533 261 533 261 524 299 c 128,-1,27
 515 337 515 337 493 367.5 c 128,-1,28
 471 398 471 398 435 418.5 c 128,-1,29
 399 439 399 439 349 445 c 0,30,31
 332 446 332 446 308.5 440 c 128,-1,32
 285 434 285 434 260.5 422.5 c 128,-1,33
 236 411 236 411 214 392.5 c 128,-1,34
 192 374 192 374 178 351 c 1,35,-1
 178 120 l 1,36,37
 211 88 211 88 253.5 65.5 c 128,-1,38
 296 43 296 43 359 45 c 0,39,40
 434 48 434 48 477.5 96 c 128,-1,41
 521 144 521 144 528 219 c 0,25,26
EndSplineSet
EndChar
StartChar: Lslash
Encoding: 449 321 193
Width: 595
VWidth: 1467
Flags: W
HStem: 0 79<175 533> 690 20G<95 175>
VStem: 95 80<79 295 412 710>
Fore
98 0 m 1,0,-1
 95 295 l 1,1,2
 70 279 70 279 46 260.5 c 128,-1,3
 22 242 22 242 0 226 c 1,4,-1
 0 308 l 1,5,-1
 95 377 l 1,6,-1
 95 710 l 1,7,-1
 175 710 l 1,8,-1
 175 412 l 1,9,10
 213 437 213 437 251 464.5 c 128,-1,11
 289 492 289 492 327 516 c 1,12,-1
 327 433 l 1,13,-1
 175 330 l 1,14,-1
 175 79 l 1,15,-1
 533 79 l 1,16,-1
 536 0 l 1,17,-1
 98 0 l 1,0,-1
EndSplineSet
EndChar
StartChar: lslash
Encoding: 450 322 194
Width: 269
VWidth: 1467
Flags: W
HStem: 0 21G<90.8176 170>
VStem: 88 79<0 329 456 756>
Fore
167 368 m 1,0,-1
 170 0 l 1,1,-1
 91 0 l 1,2,-1
 88 329 l 1,3,-1
 13 266 l 1,4,-1
 13 351 l 1,5,-1
 88 411 l 1,6,-1
 88 756 l 1,7,-1
 167 756 l 1,8,-1
 167 456 l 1,9,10
 185 471 185 471 205.5 486.5 c 128,-1,11
 226 502 226 502 242 516 c 1,12,-1
 242 431 l 1,13,-1
 167 368 l 1,0,-1
EndSplineSet
EndChar
StartChar: OE
Encoding: 451 338 195
Width: 1065
VWidth: 1467
Flags: W
HStem: 0 57<247.861 290.5 290.5 343.78 343.78 352.994 352.994 392.5 392.5 473.78 733.437 999> 320 59<578 888> 644 57<253.161 290.5 308.5 345.334 345.334 355.546 355.546 392.5 392.5 473.78 733.437 820.419 820.419 869.181 869.181 931.304 931.304 981.096 981.096 999>
VStem: 100 72<172.365 539.518> 506 72<147.226 320 379 553.259>
Fore
801 644 m 2,0,1
 760 644 760 644 719.5 639 c 128,-1,2
 679 634 679 634 647.5 614 c 128,-1,3
 616 594 616 594 596.5 554.5 c 128,-1,4
 577 515 577 515 578 447 c 2,5,-1
 578 379 l 1,6,-1
 888 379 l 1,7,-1
 888 320 l 1,8,-1
 578 320 l 1,9,-1
 578 254 l 2,10,11
 577 185 577 185 596.5 146 c 128,-1,12
 616 107 616 107 647.5 87 c 128,-1,13
 679 67 679 67 719.5 62 c 128,-1,14
 760 57 760 57 801 57 c 2,15,-1
 999 57 l 1,16,-1
 1002 0 l 1,17,-1
 805 0 l 2,18,19
 739 1 739 1 676 13.5 c 128,-1,20
 613 26 613 26 569 69 c 1,21,22
 540 35 540 35 492.5 17.5 c 128,-1,23
 445 0 445 0 392.5 -4.5 c 128,-1,24
 340 -9 340 -9 290.5 0 c 128,-1,25
 241 9 241 9 207 28 c 0,26,27
 191 37 191 37 172.5 53.5 c 128,-1,28
 154 70 154 70 138 93 c 128,-1,29
 122 116 122 116 111 145.5 c 128,-1,30
 100 175 100 175 100 210 c 2,31,-1
 100 508 l 2,32,33
 100 537 100 537 111 562.5 c 128,-1,34
 122 588 122 588 138 608.5 c 128,-1,35
 154 629 154 629 172.5 645.5 c 128,-1,36
 191 662 191 662 207 671 c 0,37,38
 241 690 241 690 290.5 699.5 c 128,-1,39
 340 709 340 709 392.5 704.5 c 128,-1,40
 445 700 445 700 492.5 682.5 c 128,-1,41
 540 665 540 665 569 631 c 1,42,43
 613 673 613 673 675.5 685.5 c 128,-1,44
 738 698 738 698 803 701 c 0,45,46
 810 701 810 701 838.5 702 c 128,-1,47
 867 703 867 703 900 703 c 128,-1,48
 933 703 933 703 962.5 702 c 128,-1,49
 992 701 992 701 999 701 c 1,50,-1
 999 644 l 1,51,-1
 801 644 l 2,0,1
242 82 m 0,52,53
 268 66 268 66 308.5 58.5 c 128,-1,54
 349 51 349 51 392.5 54 c 128,-1,55
 436 57 436 57 475 72 c 128,-1,56
 514 87 514 87 536 116 c 1,57,58
 506 170 506 170 506 257 c 2,59,-1
 506 445 l 2,60,61
 506 530 506 530 536 584 c 1,62,63
 514 612 514 612 475 627.5 c 128,-1,64
 436 643 436 643 392.5 646 c 128,-1,65
 349 649 349 649 308.5 640.5 c 128,-1,66
 268 632 268 632 242 616 c 0,67,68
 213 599 213 599 192.5 571 c 128,-1,69
 172 543 172 543 172 511 c 2,70,-1
 172 188 l 2,71,72
 172 156 172 156 192.5 128 c 128,-1,73
 213 100 213 100 242 82 c 0,52,53
EndSplineSet
EndChar
StartChar: oe
Encoding: 452 339 196
Width: 1022
VWidth: 1467
Flags: W
HStem: 219 55<562 791.173 791.173 831.28 831.28 845> 457 51<309.578 444.515 641.106 767.921>
VStem: 100 76<108.628 391.887> 490 72<139.748 219 274 388.795> 879 63<302.403 381.156>
Fore
918 298 m 1,0,-1
 916 298 l 1,1,-1
 916 295 l 1,2,-1
 918 298 l 1,0,-1
632 70 m 0,3,4
 662 54 662 54 700.5 47.5 c 128,-1,5
 739 41 739 41 777.5 46 c 128,-1,6
 816 51 816 51 848 70 c 128,-1,7
 880 89 880 89 896 128 c 1,8,-1
 940 95 l 1,9,10
 918 51 918 51 871.5 27 c 128,-1,11
 825 3 825 3 770.5 -4.5 c 128,-1,12
 716 -12 716 -12 662.5 -4 c 128,-1,13
 609 4 609 4 572 26 c 2,14,15
 562 29 562 29 551 37 c 128,-1,16
 540 45 540 45 530 59 c 1,17,18
 499 28 499 28 452.5 12 c 128,-1,19
 406 -4 406 -4 356.5 -7 c 128,-1,20
 307 -10 307 -10 260.5 -1.5 c 128,-1,21
 214 7 214 7 182 26 c 0,22,23
 148 45 148 45 124 74 c 128,-1,24
 100 103 100 103 100 141 c 2,25,-1
 100 359 l 2,26,27
 100 398 100 398 124 426.5 c 128,-1,28
 148 455 148 455 182 474 c 0,29,30
 214 493 214 493 260.5 502 c 128,-1,31
 307 511 307 511 356.5 508 c 128,-1,32
 406 505 406 505 452.5 488.5 c 128,-1,33
 499 472 499 472 530 442 c 1,34,35
 550 462 550 462 572 474 c 0,36,37
 600 490 600 490 635.5 499.5 c 128,-1,38
 671 509 671 509 708 510.5 c 128,-1,39
 745 512 745 512 783.5 504.5 c 128,-1,40
 822 497 822 497 854 478 c 256,41,42
 886 459 886 459 912.5 422.5 c 128,-1,43
 939 386 939 386 942 348 c 0,44,45
 945 305 945 305 934 279.5 c 128,-1,46
 923 254 923 254 896.5 240.5 c 128,-1,47
 870 227 870 227 826.5 223 c 128,-1,48
 783 219 783 219 720 219 c 2,49,-1
 562 219 l 1,50,-1
 562 166 l 2,51,52
 562 123 562 123 584.5 103.5 c 128,-1,53
 607 84 607 84 632 70 c 0,3,4
562 274 m 1,54,-1
 720 274 l 2,55,56
 766 274 766 274 796 274 c 128,-1,57
 826 274 826 274 845 278.5 c 128,-1,58
 864 283 864 283 871.5 294 c 128,-1,59
 879 305 879 305 879 327 c 0,60,61
 877 355 877 355 864 382 c 128,-1,62
 851 409 851 409 829 424 c 0,63,64
 778 458 778 458 725.5 456.5 c 128,-1,65
 673 455 673 455 632 430 c 0,66,67
 603 412 603 412 582.5 389.5 c 128,-1,68
 562 367 562 367 562 335 c 2,69,-1
 562 274 l 1,54,-1
248 70 m 0,70,71
 276 54 276 54 312.5 47 c 128,-1,72
 349 40 349 40 384.5 45 c 128,-1,73
 420 50 420 50 450.5 68.5 c 128,-1,74
 481 87 481 87 497 122 c 1,75,76
 490 151 490 151 490 186 c 2,77,-1
 490 359 l 2,78,79
 490 379 490 379 496 392 c 1,80,81
 477 423 477 423 445.5 438 c 128,-1,82
 414 453 414 453 378.5 457 c 128,-1,83
 343 461 343 461 308.5 453.5 c 128,-1,84
 274 446 274 446 248 430 c 0,85,86
 219 412 219 412 197.5 392.5 c 128,-1,87
 176 373 176 373 176 340 c 2,88,-1
 176 160 l 2,89,90
 176 128 176 128 197.5 108 c 128,-1,91
 219 88 219 88 248 70 c 0,70,71
EndSplineSet
EndChar
StartChar: florin
Encoding: 458 402 202
Width: 410
VWidth: 1467
Flags: W
HStem: 359 53<21 116 200 304> 640 55<285.255 359>
VStem: 21 347<359 695 359 463>
Fore
368 695 m 1,0,-1
 359 640 l 1,1,-1
 333 640 l 2,2,3
 273 640 273 640 248 607.5 c 128,-1,4
 223 575 223 575 211 494 c 2,5,-1
 205 455 l 1,6,-1
 200 412 l 1,7,-1
 304 412 l 1,8,-1
 304 364 l 1,9,-1
 194 364 l 1,10,-1
 156 53 l 1,11,-1
 145 -32 l 1,12,13
 138 -53 138 -53 124 -70 c 128,-1,14
 110 -87 110 -87 89 -94 c 1,15,16
 87 -91 87 -91 78 -88 c 128,-1,17
 69 -85 69 -85 59.5 -81.5 c 128,-1,18
 50 -78 50 -78 41 -73.5 c 128,-1,19
 32 -69 32 -69 28 -65 c 1,20,21
 54 -45 54 -45 60.5 -27.5 c 128,-1,22
 67 -10 67 -10 70 13 c 2,23,-1
 116 359 l 1,24,-1
 21 359 l 1,25,-1
 21 412 l 1,26,-1
 120 412 l 1,27,-1
 131 489 l 2,28,29
 138 547 138 547 151 586.5 c 128,-1,30
 164 626 164 626 188.5 650.5 c 128,-1,31
 213 675 213 675 250.5 685 c 128,-1,32
 288 695 288 695 343 695 c 2,33,-1
 368 695 l 1,0,-1
EndSplineSet
EndChar
StartChar: circumflex
Encoding: 459 710 203
Width: 478
VWidth: 1467
Flags: W
HStem: 697 197<56 236 236 236>
VStem: 56 364<697 697 697 697>
Fore
56 697 m 1,0,1
 82 715 82 715 110.5 739 c 128,-1,2
 139 763 139 763 164 789.5 c 128,-1,3
 189 816 189 816 209 843 c 128,-1,4
 229 870 229 870 236 894 c 1,5,6
 245 870 245 870 264 843.5 c 128,-1,7
 283 817 283 817 309 790.5 c 128,-1,8
 335 764 335 764 363.5 740 c 128,-1,9
 392 716 392 716 420 697 c 1,10,-1
 336 697 l 1,11,12
 318 713 318 713 305.5 725.5 c 128,-1,13
 293 738 293 738 282 749.5 c 128,-1,14
 271 761 271 761 261 773.5 c 128,-1,15
 251 786 251 786 238 804 c 1,16,17
 220 779 220 779 207 763.5 c 128,-1,18
 194 748 194 748 183.5 737 c 128,-1,19
 173 726 173 726 164.5 716.5 c 128,-1,20
 156 707 156 707 145 697 c 1,21,-1
 56 697 l 1,0,1
EndSplineSet
EndChar
StartChar: caron
Encoding: 460 711 204
Width: 507
VWidth: 1467
Flags: W
HStem: 676 197<251 431 431 431>
VStem: 67 364<873 873 873 873>
Fore
431 873 m 1,0,1
 405 855 405 855 376.5 831 c 128,-1,2
 348 807 348 807 322 780.5 c 128,-1,3
 296 754 296 754 277 727 c 128,-1,4
 258 700 258 700 251 676 c 1,5,6
 242 700 242 700 222 726.5 c 128,-1,7
 202 753 202 753 177.5 779 c 128,-1,8
 153 805 153 805 124 829.5 c 128,-1,9
 95 854 95 854 67 873 c 1,10,-1
 147 873 l 1,11,12
 180 842 180 842 204.5 816.5 c 128,-1,13
 229 791 229 791 251 753 c 1,14,15
 277 800 277 800 301.5 826 c 128,-1,16
 326 852 326 852 349 873 c 1,17,-1
 431 873 l 1,0,1
EndSplineSet
EndChar
StartChar: breve
Encoding: 461 728 205
Width: 440
VWidth: 1467
Flags: W
HStem: 612 45<164.565 268.554>
VStem: 329 76<714.392 775>
Fore
405 775 m 1,0,1
 405 742 405 742 392.5 713.5 c 128,-1,2
 380 685 380 685 353.5 661.5 c 128,-1,3
 327 638 327 638 289 625 c 128,-1,4
 251 612 251 612 217 612 c 0,5,6
 185 612 185 612 144 623 c 128,-1,7
 103 634 103 634 78.5 659 c 128,-1,8
 54 684 54 684 42.5 713 c 128,-1,9
 31 742 31 742 31 775 c 1,10,-1
 106 775 l 1,11,12
 106 725 106 725 137.5 691 c 128,-1,13
 169 657 169 657 217 657 c 256,14,15
 266 657 266 657 297.5 691 c 128,-1,16
 329 725 329 725 329 775 c 1,17,-1
 405 775 l 1,0,1
EndSplineSet
EndChar
StartChar: dotaccent
Encoding: 462 729 206
Width: 231
VWidth: 1467
Flags: W
HStem: 606 132<91.7319 150.53>
VStem: 60 106<626.627 721.404>
Fore
114 738 m 1,0,1
 136 741 136 741 151 722 c 128,-1,2
 166 703 166 703 166 673 c 0,3,4
 166 646 166 646 151 626 c 128,-1,5
 136 606 136 606 114 606 c 0,6,7
 89 606 89 606 74 626 c 128,-1,8
 59 646 59 646 60 673 c 0,9,10
 60 703 60 703 76 722 c 128,-1,11
 92 741 92 741 114 738 c 1,0,1
EndSplineSet
EndChar
StartChar: ring
Encoding: 463 730 207
Width: 404
VWidth: 1467
Flags: W
HStem: 577 39<170.12 232.82> 767 43<163.418 234.716>
VStem: 87 60<666.917 747.351> 257 60<653.664 731.532>
Fore
87 695 m 0,0,1
 87 744 87 744 121.5 777 c 128,-1,2
 156 810 156 810 202 810 c 0,3,4
 224 810 224 810 245 801 c 128,-1,5
 266 792 266 792 282 776 c 128,-1,6
 298 760 298 760 307.5 738.5 c 128,-1,7
 317 717 317 717 317 694 c 0,8,9
 317 669 317 669 307.5 647.5 c 128,-1,10
 298 626 298 626 282 611 c 128,-1,11
 266 596 266 596 245 586.5 c 128,-1,12
 224 577 224 577 202 577 c 0,13,14
 178 577 178 577 156.5 586.5 c 128,-1,15
 135 596 135 596 119.5 612.5 c 128,-1,16
 104 629 104 629 95.5 650.5 c 128,-1,17
 87 672 87 672 87 695 c 0,0,1
147 695 m 0,18,19
 147 668 147 668 160 643 c 128,-1,20
 173 618 173 618 202 616 c 0,21,22
 227 616 227 616 241 641 c 128,-1,23
 255 666 255 666 257 695 c 0,24,25
 257 720 257 720 243 743 c 128,-1,26
 229 766 229 766 202 767 c 0,27,28
 176 766 176 766 161.5 743 c 128,-1,29
 147 720 147 720 147 695 c 0,18,19
EndSplineSet
EndChar
StartChar: tilde
Encoding: 465 732 209
Width: 368
VWidth: 1467
Flags: W
HStem: 594 21G<22.5 80> 638 59<93.7141 130.085 126.695 133.475>
VStem: 23 56<594 626.138> 279 51<662.285 697>
Fore
330 697 m 1,0,1
 330 654 330 654 305 623.5 c 128,-1,2
 280 593 280 593 238 596 c 0,3,4
 226 597 226 597 210 603.5 c 128,-1,5
 194 610 194 610 176 617.5 c 128,-1,6
 158 625 158 625 142 631.5 c 128,-1,7
 126 638 126 638 116 638 c 0,8,9
 103 638 103 638 92 626.5 c 128,-1,10
 81 615 81 615 79 594 c 1,11,-1
 23 594 l 1,12,13
 22 632 22 632 50 663.5 c 128,-1,14
 78 695 78 695 114 697 c 0,15,16
 129 697 129 697 150.5 690.5 c 128,-1,17
 172 684 172 684 191.5 675 c 128,-1,18
 211 666 211 666 226.5 659.5 c 128,-1,19
 242 653 242 653 246 653 c 0,20,21
 255 653 255 653 265.5 662 c 128,-1,22
 276 671 276 671 279 697 c 1,23,-1
 327 697 l 1,24,-1
 330 697 l 1,0,1
EndSplineSet
EndChar
StartChar: uni0E01
Encoding: 468 3585 212
Width: 669
VWidth: 1467
Flags: W
HStem: -1 21G<100 176 491.694 563> 524 54<184.063 282.819 282.819 289.546 289.546 389.031>
VStem: 100 76<-1 344.607> 492 71<-1 162.5 162.5 399.993>
Fore
183 524 m 1,0,1
 186 521 186 521 195.5 511.5 c 128,-1,2
 205 502 205 502 216 491 c 128,-1,3
 227 480 227 480 234.5 472 c 128,-1,4
 242 464 242 464 244 462 c 1,5,-1
 244 417 l 1,6,7
 238 412 238 412 230.5 407.5 c 128,-1,8
 223 403 223 403 219 398 c 0,9,10
 197 374 197 374 187.5 345.5 c 128,-1,11
 178 317 178 317 176 280 c 2,12,-1
 176 -1 l 1,13,-1
 100 -1 l 1,14,-1
 100 239 l 2,15,16
 98 296 98 296 120 355 c 128,-1,17
 142 414 142 414 192 446 c 1,18,-1
 95 538 l 1,19,-1
 94 538 l 1,20,-1
 92 578 l 1,21,-1
 219 581 l 2,22,23
 285 581 285 581 346.5 578 c 128,-1,24
 408 575 408 575 456.5 551.5 c 128,-1,25
 505 528 505 528 534 475.5 c 128,-1,26
 563 423 563 423 563 324 c 2,27,-1
 563 -1 l 1,28,-1
 492 -1 l 1,29,-1
 487 326 l 2,30,31
 490 386 490 386 477.5 425 c 128,-1,32
 465 464 465 464 443 485 c 128,-1,33
 421 506 421 506 390 515 c 128,-1,34
 359 524 359 524 325 525.5 c 128,-1,35
 291 527 291 527 254 524.5 c 128,-1,36
 217 522 217 522 183 524 c 1,0,1
EndSplineSet
EndChar
StartChar: uni0E02
Encoding: 469 3586 213
Width: 528
VWidth: 1467
Flags: W
HStem: -11 53<188.227 303.479> 561 20G<346 423>
VStem: 73 77<80.6264 197.396> 346 77<85.1685 270.423 270.423 477.577 477.577 581>
Fore
179 584 m 0,0,1
 195 577 195 577 208.5 563 c 128,-1,2
 222 549 222 549 229 527 c 0,3,4
 242 478 242 478 241.5 443 c 128,-1,5
 241 408 241 408 232 380 c 128,-1,6
 223 352 223 352 209 328.5 c 128,-1,7
 195 305 195 305 182 280 c 128,-1,8
 169 255 169 255 159.5 226.5 c 128,-1,9
 150 198 150 198 150 158 c 0,10,11
 150 100 150 100 180.5 70.5 c 128,-1,12
 211 41 211 41 248 42 c 128,-1,13
 285 43 285 43 315.5 74.5 c 128,-1,14
 346 106 346 106 346 167 c 0,15,16
 345 268 345 268 345.5 374 c 128,-1,17
 346 480 346 480 346 581 c 1,18,-1
 423 581 l 1,19,-1
 423 145 l 2,20,21
 423 94 423 94 396.5 59.5 c 128,-1,22
 370 25 370 25 331 7.5 c 128,-1,23
 292 -10 292 -10 247 -11 c 128,-1,24
 202 -12 202 -12 163.5 4.5 c 128,-1,25
 125 21 125 21 99 54.5 c 128,-1,26
 73 88 73 88 73 139 c 0,27,28
 73 185 73 185 81 217 c 128,-1,29
 89 249 89 249 102.5 275 c 128,-1,30
 116 301 116 301 133 324.5 c 128,-1,31
 150 348 150 348 166 376 c 1,32,33
 154 367 154 367 142 364 c 0,34,35
 134 361 134 361 124 359.5 c 128,-1,36
 114 358 114 358 107 361 c 0,37,38
 76 370 76 370 61.5 408.5 c 128,-1,39
 47 447 47 447 59 494 c 0,40,41
 67 531 67 531 92 555.5 c 128,-1,42
 117 580 117 580 142 587 c 0,43,44
 160 591 160 591 179 584 c 0,0,1
142 412 m 1,45,46
 154 420 154 420 165 436 c 128,-1,47
 176 452 176 452 179 467 c 0,48,49
 185 486 185 486 179 511 c 128,-1,50
 173 536 173 536 158 541 c 1,51,52
 151 543 151 543 142 538 c 0,53,54
 129 531 129 531 119 514 c 128,-1,55
 109 497 109 497 106 483 c 0,56,57
 100 464 100 464 104.5 439 c 128,-1,58
 109 414 109 414 123 409 c 0,59,60
 131 408 131 408 142 412 c 1,45,46
EndSplineSet
EndChar
StartChar: uni0E03
Encoding: 470 3587 214
Width: 586
VWidth: 1467
Flags: W
HStem: 488 20G<221 230.5> 565 20G<250.875 290.667 408 483>
VStem: 103 83<87.1333 225.27> 264 58<411 451.605> 408 75<98.8782 255.154 255.154 473.392 473.392 582>
Fore
244 521 m 1,0,-1
 254 585 l 1,1,-1
 282 585 l 1,2,-1
 308 525 l 2,3,4
 324 471 324 471 322 433.5 c 128,-1,5
 320 396 320 396 306 368 c 128,-1,6
 292 340 292 340 271.5 319 c 128,-1,7
 251 298 251 298 232 275 c 128,-1,8
 213 252 213 252 199.5 225 c 128,-1,9
 186 198 186 198 186 158 c 0,10,11
 186 117 186 117 203 90 c 128,-1,12
 220 63 220 63 245 50.5 c 128,-1,13
 270 38 270 38 298 39.5 c 128,-1,14
 326 41 326 41 350 55.5 c 128,-1,15
 374 70 374 70 391 98 c 128,-1,16
 408 126 408 126 408 167 c 2,17,-1
 408 582 l 1,18,-1
 483 582 l 1,19,20
 483 470 483 470 483.5 365 c 128,-1,21
 484 260 484 260 483 145 c 0,22,23
 483 94 483 94 454 58.5 c 128,-1,24
 425 23 425 23 383.5 5 c 128,-1,25
 342 -13 342 -13 293 -14 c 128,-1,26
 244 -15 244 -15 202 1.5 c 128,-1,27
 160 18 160 18 131.5 52.5 c 128,-1,28
 103 87 103 87 103 139 c 256,29,30
 103 192 103 192 122.5 227.5 c 128,-1,31
 142 263 142 263 170 291.5 c 128,-1,32
 198 320 198 320 224.5 348 c 128,-1,33
 251 376 251 376 264 411 c 1,34,35
 267 445 267 445 254 466 c 128,-1,36
 241 487 241 487 220 508 c 1,37,38
 222 494 222 494 222.5 481 c 128,-1,39
 223 468 223 468 220 453 c 0,40,41
 216 433 216 433 205.5 413 c 128,-1,42
 195 393 195 393 179.5 378.5 c 128,-1,43
 164 364 164 364 146 357.5 c 128,-1,44
 128 351 128 351 107 357 c 0,45,46
 66 368 66 368 55 407.5 c 128,-1,47
 44 447 44 447 56 494 c 0,48,49
 62 518 62 518 74.5 537 c 128,-1,50
 87 556 87 556 102 568.5 c 128,-1,51
 117 581 117 581 135 587 c 128,-1,52
 153 593 153 593 169 588 c 0,53,54
 188 582 188 582 211.5 559.5 c 128,-1,55
 235 537 235 537 244 521 c 1,0,-1
98 486 m 0,56,57
 91 462 91 462 93 434 c 128,-1,58
 95 406 95 406 116 401 c 256,59,60
 136 395 136 395 153 416 c 128,-1,61
 170 437 170 437 178 462 c 0,62,63
 185 489 185 489 179 509.5 c 128,-1,64
 173 530 173 530 158 536 c 0,65,66
 142 543 142 543 124.5 527 c 128,-1,67
 107 511 107 511 98 486 c 0,56,57
EndSplineSet
EndChar
StartChar: uni0E04
Encoding: 471 3588 215
Width: 715
VWidth: 1467
Flags: W
HStem: -1 21G<100 176 533 610> 213 31<303.051 404.011> 337 33<339.703 401.919> 527 63<300.33 411.142>
VStem: 100 76<-1 195.492 299 446.562> 533 77<-1 446.669>
Fore
544 549 m 0,0,1
 580 528 580 528 595 498 c 128,-1,2
 610 468 610 468 610 425 c 2,3,-1
 610 -1 l 1,4,-1
 533 -1 l 1,5,-1
 533 383 l 2,6,7
 533 421 533 421 530.5 447.5 c 128,-1,8
 528 474 528 474 497 494 c 0,9,10
 471 511 471 511 433.5 519 c 128,-1,11
 396 527 396 527 356.5 527 c 128,-1,12
 317 527 317 527 279 519 c 128,-1,13
 241 511 241 511 214 494 c 0,14,15
 198 484 198 484 190 472.5 c 128,-1,16
 182 461 182 461 179 447 c 128,-1,17
 176 433 176 433 176 417 c 128,-1,18
 176 401 176 401 176 383 c 2,19,-1
 176 299 l 1,20,21
 232 359 232 359 326 367 c 0,22,23
 333 368 333 368 339.5 369 c 128,-1,24
 346 370 346 370 354 370 c 0,25,26
 401 370 401 370 435.5 347 c 128,-1,27
 470 324 470 324 468 291 c 0,28,29
 468 258 468 258 434.5 235.5 c 128,-1,30
 401 213 401 213 354 213 c 256,31,32
 307 213 307 213 274 234 c 128,-1,33
 241 255 241 255 238 285 c 1,34,35
 220 271 220 271 205 254 c 0,36,37
 185 230 185 230 180.5 202.5 c 128,-1,38
 176 175 176 175 176 139 c 2,39,-1
 176 -1 l 1,40,-1
 100 -1 l 1,41,-1
 100 430 l 2,42,43
 100 467 100 467 117 498.5 c 128,-1,44
 134 530 134 530 166 549 c 0,45,46
 200 569 200 569 250.5 579.5 c 128,-1,47
 301 590 301 590 355 590 c 128,-1,48
 409 590 409 590 460 579.5 c 128,-1,49
 511 569 511 569 544 549 c 0,0,1
352 337 m 2,50,51
 320 337 320 337 304 322 c 128,-1,52
 288 307 288 307 286 291 c 256,53,54
 285 274 285 274 302.5 259 c 128,-1,55
 320 244 320 244 354 244 c 2,56,-1
 355 244 l 2,57,58
 389 244 389 244 404.5 260 c 128,-1,59
 420 276 420 276 421 292 c 0,60,61
 421 308 421 308 402.5 322 c 128,-1,62
 384 336 384 336 354 337 c 2,63,-1
 352 337 l 2,50,51
EndSplineSet
EndChar
StartChar: uni0E05
Encoding: 472 3589 216
Width: 715
VWidth: 1467
Flags: W
HStem: -1 21G<100 175 533 612> 211 31<306.922 413.996> 336 32<311.504 352 331.799 414.294> 564 20G<254 277 427 461>
VStem: 100 75<-1 195.197 301 469.157> 428 49<258.5 320.562> 533 79<-1 421.398>
Fore
447 584 m 1,0,1
 475 580 475 580 504 563.5 c 128,-1,2
 533 547 533 547 557 523.5 c 128,-1,3
 581 500 581 500 596.5 471 c 128,-1,4
 612 442 612 442 612 414 c 2,5,-1
 612 -1 l 1,6,-1
 533 -1 l 1,7,-1
 533 387 l 2,8,9
 533 406 533 406 528.5 426.5 c 128,-1,10
 524 447 524 447 516 465.5 c 128,-1,11
 508 484 508 484 495.5 498 c 128,-1,12
 483 512 483 512 465 516 c 1,13,-1
 359 430 l 1,14,-1
 251 515 l 1,15,16
 219 499 219 499 197 470.5 c 128,-1,17
 175 442 175 442 175 395 c 2,18,-1
 175 301 l 1,19,20
 204 335 204 335 252.5 351 c 128,-1,21
 301 367 301 367 352 368 c 1,22,-1
 352 367 l 1,23,24
 355 368 355 368 361 368 c 0,25,26
 409 368 409 368 443.5 345.5 c 128,-1,27
 478 323 478 323 477 289 c 0,28,29
 477 257 477 257 443 234 c 128,-1,30
 409 211 409 211 359 211 c 0,31,32
 313 211 313 211 279 234 c 128,-1,33
 245 257 245 257 245 289 c 2,34,-1
 245 293 l 1,35,36
 233 285 233 285 223 275.5 c 128,-1,37
 213 266 213 266 205 257 c 0,38,39
 185 235 185 235 180 205.5 c 128,-1,40
 175 176 175 176 175 141 c 2,41,-1
 175 -1 l 1,42,-1
 100 -1 l 1,43,-1
 100 420 l 2,44,45
 100 443 100 443 117 470 c 128,-1,46
 134 497 134 497 159.5 521.5 c 128,-1,47
 185 546 185 546 213.5 563.5 c 128,-1,48
 242 581 242 581 266 584 c 1,49,50
 288 562 288 562 315.5 538 c 128,-1,51
 343 514 343 514 359 496 c 1,52,-1
 447 584 l 1,0,1
428 291 m 0,53,54
 430 307 430 307 411 321 c 128,-1,55
 392 335 392 335 359 336 c 0,56,57
 327 336 327 336 311 320.5 c 128,-1,58
 295 305 295 305 293 289 c 256,59,60
 292 273 292 273 309.5 257.5 c 128,-1,61
 327 242 327 242 362 242 c 0,62,63
 396 242 396 242 412 258 c 128,-1,64
 428 274 428 274 428 291 c 0,53,54
EndSplineSet
EndChar
StartChar: uni0E06
Encoding: 473 3590 217
Width: 724
VWidth: 1467
Flags: W
HStem: -4 55<163.618 205.876> -1 61<357.09 494.501> 220 53<161.939 205.1> 486 20G<225 236> 567 20G<269.825 319.746 549 622>
VStem: 87 52<86.903 151.153 148.212 154.094 154.094 161.5 187 188.593> 180 39<428.529 456 465 483.734 483.734 488.828 488.828 506> 274 67.5<414 452.249> 549 73<102.58 281.7 281.7 588>
Fore
87 135 m 0,0,1
 87 161 87 161 93.5 187 c 128,-1,2
 100 213 100 213 113 232 c 128,-1,3
 126 251 126 251 144.5 262 c 128,-1,4
 163 273 163 273 186 273 c 0,5,6
 205 273 205 273 219 264 c 1,7,8
 222 304 222 304 239 335 c 0,9,10
 249 354 249 354 257.5 372 c 128,-1,11
 266 390 266 390 274 414 c 1,12,13
 277 447 277 447 264.5 463.5 c 128,-1,14
 252 480 252 480 236 492 c 1,15,-1
 224 506 l 1,16,17
 226 481 226 481 219 456 c 0,18,19
 207 409 207 409 175.5 381.5 c 128,-1,20
 144 354 144 354 112 362 c 0,21,22
 81 371 81 371 67.5 410 c 128,-1,23
 54 449 54 449 66 496 c 0,24,25
 79 544 79 544 110 571.5 c 128,-1,26
 141 599 141 599 173 590 c 0,27,28
 182 587 182 587 196 579.5 c 128,-1,29
 210 572 210 572 223 562.5 c 128,-1,30
 236 553 236 553 247 543 c 128,-1,31
 258 533 258 533 263 524 c 1,32,-1
 273 587 l 1,33,-1
 315 587 l 1,34,-1
 329 528 l 2,35,36
 340 490 340 490 341.5 460 c 128,-1,37
 343 430 343 430 338 405 c 128,-1,38
 333 380 333 380 328 369.5 c 0,39,-1
 302 318 l 256,40,41
 292 298 292 298 289 273 c 128,-1,42
 286 248 286 248 288.5 222.5 c 128,-1,43
 291 197 291 197 295 173.5 c 128,-1,44
 299 150 299 150 304 135 c 1,45,46
 326 106 326 106 355 83 c 128,-1,47
 384 60 384 60 431 60 c 0,48,49
 493 60 493 60 521 86.5 c 128,-1,50
 549 113 549 113 549 186 c 2,51,-1
 549 588 l 1,52,-1
 622 588 l 1,53,54
 622 478 622 478 622 383 c 128,-1,55
 622 288 622 288 621 180 c 0,56,57
 621 136 621 136 604.5 101.5 c 128,-1,58
 588 67 588 67 562 44 c 128,-1,59
 536 21 536 21 503 10 c 128,-1,60
 470 -1 470 -1 434 -1 c 0,61,62
 373 -1 373 -1 336 27.5 c 128,-1,63
 299 56 299 56 274 87 c 1,64,65
 266 48 266 48 241 22 c 128,-1,66
 216 -4 216 -4 186 -4 c 0,67,68
 139 -4 139 -4 113 37.5 c 128,-1,69
 87 79 87 79 87 135 c 0,0,1
107 486 m 256,70,71
 100 461 100 461 100.5 439 c 128,-1,72
 101 417 101 417 122 409 c 0,73,74
 142 403 142 403 158.5 421.5 c 128,-1,75
 175 440 175 440 180 465 c 0,76,77
 188 490 188 490 185.5 515 c 128,-1,78
 183 540 183 540 164 547 c 0,79,80
 144 555 144 555 129 533 c 128,-1,81
 114 511 114 511 107 486 c 256,70,71
139 135 m 256,82,83
 139 123 139 123 142 108.5 c 128,-1,84
 145 94 145 94 151 80.5 c 128,-1,85
 157 67 157 67 166 59 c 128,-1,86
 175 51 175 51 185 51 c 256,87,88
 195 51 195 51 204.5 60 c 128,-1,89
 214 69 214 69 220.5 81.5 c 128,-1,90
 227 94 227 94 231 108.5 c 128,-1,91
 235 123 235 123 235 135 c 256,92,93
 235 147 235 147 231 161.5 c 128,-1,94
 227 176 227 176 220 189 c 128,-1,95
 213 202 213 202 203.5 211 c 128,-1,96
 194 220 194 220 182 220 c 256,97,98
 170 220 170 220 163 211 c 128,-1,99
 156 202 156 202 150 189 c 128,-1,100
 144 176 144 176 141.5 161.5 c 128,-1,101
 139 147 139 147 139 135 c 256,82,83
EndSplineSet
EndChar
StartChar: uni0E07
Encoding: 474 3591 218
Width: 522
VWidth: 1467
Flags: W
HStem: -12 21G<225.762 251.5> 568 20G<321 337 354 367>
VStem: 47 370<395 497 395 395> 337 80<101.303 384>
Fore
354 588 m 1,0,1
 380 580 380 580 398.5 555 c 128,-1,2
 417 530 417 530 417 497 c 2,3,-1
 417 160 l 2,4,5
 417 126 417 126 401.5 96.5 c 128,-1,6
 386 67 386 67 360.5 44.5 c 128,-1,7
 335 22 335 22 301.5 7.5 c 128,-1,8
 268 -7 268 -7 235 -12 c 1,9,-1
 47 395 l 1,10,-1
 107 424 l 1,11,12
 150 339 150 339 193 245 c 128,-1,13
 236 151 236 151 277 59 c 1,14,15
 307 75 307 75 322 100.5 c 128,-1,16
 337 126 337 126 337 176 c 2,17,-1
 337 384 l 1,18,19
 323 370 323 370 305 365 c 0,20,21
 288 359 288 359 274 364 c 0,22,23
 244 373 244 373 230.5 411 c 128,-1,24
 217 449 217 449 229 496 c 0,25,26
 239 533 239 533 259.5 557 c 128,-1,27
 280 581 280 581 305 588 c 0,28,29
 313 591 313 591 329 591 c 128,-1,30
 345 591 345 591 352 588 c 1,31,32
 354 588 354 588 354 587 c 1,33,-1
 354 588 l 1,0,1
305 414 m 0,34,35
 317 421 317 421 327 437 c 128,-1,36
 337 453 337 453 340 468 c 0,37,38
 346 487 346 487 341 511.5 c 128,-1,39
 336 536 336 536 320 543 c 0,40,41
 313 546 313 546 305 540 c 0,42,43
 293 533 293 533 282 516 c 128,-1,44
 271 499 271 499 268 484 c 0,45,46
 263 465 263 465 267 440 c 128,-1,47
 271 415 271 415 288 411 c 0,48,49
 295 408 295 408 305 414 c 0,34,35
EndSplineSet
EndChar
StartChar: uni0E08
Encoding: 475 3592 219
Width: 625
VWidth: 1467
Flags: W
HStem: -1 21G<311 369> 525 60<213.679 319.321>
VStem: 311 51<50 119.268> 311 49.5<50.9708 147.039 147.039 150 151 178> 445 76<123.951 438.79>
Fore
442 547 m 0,0,1
 475 527 475 527 498 500.5 c 128,-1,2
 521 474 521 474 521 436 c 2,3,-1
 521 145 l 2,4,5
 521 138 521 138 518 123.5 c 128,-1,6
 515 109 515 109 506 91 c 128,-1,7
 497 73 497 73 481 55.5 c 128,-1,8
 465 38 465 38 439 28 c 0,9,10
 421 19 421 19 400.5 12.5 c 128,-1,11
 380 6 380 6 358 -1 c 1,12,-1
 311 -1 l 1,13,-1
 311 151 l 1,14,15
 310 151 310 151 310 150 c 1,16,-1
 308 178 l 1,17,18
 296 166 296 166 282 161 c 0,19,20
 268 157 268 157 251 163 c 0,21,22
 226 170 226 170 206 195 c 128,-1,23
 186 220 186 220 176 255 c 0,24,25
 164 301 164 301 177.5 340 c 128,-1,26
 191 379 191 379 222 386 c 0,27,28
 236 390 236 390 251 386 c 0,29,30
 263 383 263 383 277 376.5 c 128,-1,31
 291 370 291 370 299 359 c 1,32,-1
 299 361 l 1,33,34
 305 354 305 354 309.5 348.5 c 128,-1,35
 314 343 314 343 317 336 c 2,36,37
 332 311 332 311 340.5 275 c 128,-1,38
 349 239 349 239 354 199.5 c 128,-1,39
 359 160 359 160 360.5 120.5 c 128,-1,40
 362 81 362 81 362 50 c 1,41,42
 411 59 411 59 428 86 c 128,-1,43
 445 113 445 113 445 145 c 2,44,-1
 445 390 l 2,45,46
 445 424 445 424 439.5 449.5 c 128,-1,47
 434 475 434 475 405 493 c 0,48,49
 377 509 377 509 340.5 517 c 128,-1,50
 304 525 304 525 265.5 525 c 128,-1,51
 227 525 227 525 192 517 c 128,-1,52
 157 509 157 509 131 493 c 0,53,54
 122 487 122 487 114.5 480.5 c 128,-1,55
 107 474 107 474 100 468 c 1,56,-1
 53 508 l 1,57,58
 59 519 59 519 70.5 528 c 128,-1,59
 82 537 82 537 95 547 c 0,60,61
 128 566 128 566 173.5 575.5 c 128,-1,62
 219 585 219 585 267 585 c 128,-1,63
 315 585 315 585 361.5 575.5 c 128,-1,64
 408 566 408 566 442 547 c 0,0,1
268 210 m 0,65,66
 285 214 285 214 288.5 239 c 128,-1,67
 292 264 292 264 288 283 c 0,68,69
 283 298 283 298 273 314 c 128,-1,70
 263 330 263 330 251 337 c 0,71,72
 244 343 244 343 236 340 c 0,73,74
 220 335 220 335 215 310.5 c 128,-1,75
 210 286 210 286 214 267 c 0,76,77
 219 252 219 252 229 236 c 128,-1,78
 239 220 239 220 251 213 c 1,79,80
 261 208 261 208 268 210 c 0,65,66
EndSplineSet
EndChar
StartChar: uni0E09
Encoding: 476 3593 220
Width: 707
VWidth: 1467
Flags: W
HStem: -10.5 61.5<277.659 373.28> 528 62<217.853 339.166>
VStem: 471 75<227 388.758 388.758 437.334> 613 44<50.7045 152.295>
Fore
574 236 m 2,0,1
 616 236 616 236 636.5 198 c 128,-1,2
 657 160 657 160 657 106 c 0,3,4
 657 53 657 53 631.5 20.5 c 128,-1,5
 606 -12 606 -12 574 -13 c 2,6,-1
 568 -13 l 2,7,8
 540 -12 540 -12 525.5 6.5 c 128,-1,9
 511 25 511 25 503 47 c 0,10,11
 494 73 494 73 492 104 c 1,12,13
 481 66 481 66 455.5 39.5 c 128,-1,14
 430 13 430 13 398.5 0.5 c 128,-1,15
 367 -12 367 -12 331.5 -10.5 c 128,-1,16
 296 -9 296 -9 264.5 7 c 128,-1,17
 233 23 233 23 210.5 55 c 128,-1,18
 188 87 188 87 180 134 c 1,19,20
 179 135 179 135 176 150 c 1,21,22
 172 147 172 147 163 144 c 0,23,24
 148 139 148 139 131 144 c 0,25,26
 100 151 100 151 85 190 c 128,-1,27
 70 229 70 229 82 276 c 0,28,29
 91 311 91 311 114.5 335 c 128,-1,30
 138 359 138 359 163 367 c 0,31,32
 178 371 178 371 192 368 c 1,33,34
 213 361 213 361 228.5 340.5 c 128,-1,35
 244 320 244 320 244 291 c 2,36,-1
 244 167 l 2,37,38
 244 103 244 103 273 76.5 c 128,-1,39
 302 50 302 50 352 51 c 0,40,41
 396 54 396 54 433.5 94.5 c 128,-1,42
 471 135 471 135 471 216 c 2,43,-1
 471 403 l 2,44,45
 471 433 471 433 462 457 c 128,-1,46
 453 481 453 481 425 497 c 0,47,48
 399 512 399 512 358.5 520 c 128,-1,49
 318 528 318 528 274 528 c 128,-1,50
 230 528 230 528 190 520 c 128,-1,51
 150 512 150 512 123 497 c 0,52,53
 114 492 114 492 110.5 489 c 0,54,-1
 92 474 l 1,55,-1
 44 514 l 1,56,57
 53 525 53 525 64 534 c 128,-1,58
 75 543 75 543 89 552 c 0,59,60
 122 571 122 571 174.5 580.5 c 128,-1,61
 227 590 227 590 283 590 c 128,-1,62
 339 590 339 590 391 580.5 c 128,-1,63
 443 571 443 571 475 552 c 0,64,65
 505 533 505 533 525.5 506.5 c 128,-1,66
 546 480 546 480 546 442 c 0,67,68
 549 389 549 389 548 335.5 c 128,-1,69
 547 282 547 282 546 227 c 1,70,71
 556 233 556 233 568 236 c 1,72,-1
 574 236 l 2,0,1
163 192 m 0,73,74
 175 200 175 200 184.5 210 c 128,-1,75
 194 220 194 220 200 248 c 0,76,77
 205 267 205 267 199.5 292 c 128,-1,78
 194 317 194 317 179 321 c 0,79,80
 169 324 169 324 160 318.5 c 128,-1,81
 151 313 151 313 144.5 303 c 128,-1,82
 138 293 138 293 133 282 c 128,-1,83
 128 271 128 271 126 264 c 0,84,85
 120 245 120 245 124.5 220 c 128,-1,86
 129 195 129 195 145 189 c 0,87,88
 156 186 156 186 163 192 c 0,73,74
566 38 m 1,89,90
 587 35 587 35 600 55.5 c 128,-1,91
 613 76 613 76 613 106 c 0,92,93
 613 117 613 117 611 131 c 128,-1,94
 609 145 609 145 603 157 c 128,-1,95
 597 169 597 169 589 176 c 128,-1,96
 581 183 581 183 569 183 c 0,97,98
 560 183 560 183 553.5 174.5 c 128,-1,99
 547 166 547 166 542.5 154 c 128,-1,100
 538 142 538 142 535.5 129 c 128,-1,101
 533 116 533 116 533 106 c 0,102,103
 533 85 533 85 541.5 64.5 c 128,-1,104
 550 44 550 44 566 38 c 1,89,90
EndSplineSet
EndChar
